<svg width="30" height="30" viewBox="0 0 30 30" fill="none" xmlns="http://www.w3.org/2000/svg">
<g clip-path="url(#clip0_1_219)">
<path d="M28.9407 24.3751L26.0063 19.3032C24.4205 21.7565 22.0617 23.6106 19.3032 24.572L21.6282 28.5938C21.7108 28.7369 21.8298 28.8556 21.973 28.9379C22.1162 29.0202 22.2787 29.0633 22.4438 29.0626C22.6075 29.0616 22.768 29.0178 22.9094 28.9356C23.0508 28.8534 23.1683 28.7355 23.2501 28.5938L24.8813 25.7813H28.1251C28.2903 25.782 28.4527 25.739 28.596 25.6567C28.7392 25.5744 28.8581 25.4557 28.9407 25.3126C29.023 25.1701 29.0663 25.0084 29.0663 24.8438C29.0663 24.6793 29.023 24.5176 28.9407 24.3751Z" fill="white"/>
<path d="M3.99381 19.3032L1.05944 24.3751C0.977156 24.5176 0.933838 24.6793 0.933838 24.8438C0.933838 25.0084 0.977156 25.1701 1.05944 25.3126C1.14204 25.4557 1.26097 25.5744 1.4042 25.6567C1.54743 25.739 1.70987 25.782 1.87506 25.7813H5.11881L6.75006 28.5938C6.83187 28.7355 6.94932 28.8534 7.09077 28.9356C7.23221 29.0178 7.39271 29.0616 7.55631 29.0626C7.72151 29.0633 7.88395 29.0202 8.02718 28.9379C8.17041 28.8556 8.28934 28.7369 8.37194 28.5938L10.6969 24.572C7.9385 23.6106 5.57961 21.7565 3.99381 19.3032Z" fill="white"/>
<path d="M15.9375 9.82495L15 7.94995L14.0625 9.82495C13.9947 9.95967 13.8953 10.076 13.7729 10.1642C13.6505 10.2523 13.5087 10.3096 13.3594 10.3312L11.3438 10.6312L12.8062 12.075C12.9148 12.1803 12.9962 12.3104 13.0435 12.4541C13.0908 12.5977 13.1027 12.7507 13.0781 12.9L12.7312 14.925L14.5219 13.9875C14.6589 13.9197 14.8097 13.8844 14.9625 13.8844C15.1153 13.8844 15.2661 13.9197 15.4031 13.9875L17.1937 14.925L16.875 12.9C16.8504 12.7507 16.8623 12.5977 16.9096 12.4541C16.957 12.3104 17.0384 12.1803 17.1469 12.075L18.6094 10.6312L16.6031 10.3125C16.4623 10.2873 16.3292 10.2304 16.2138 10.1459C16.0984 10.0614 16.0039 9.95159 15.9375 9.82495Z" fill="white"/>
<path d="M26.25 12.1875C26.25 9.96247 25.5902 7.78739 24.354 5.93734C23.1179 4.08729 21.3609 2.64535 19.3052 1.79386C17.2495 0.942374 14.9875 0.719587 12.8052 1.15367C10.623 1.58775 8.61839 2.65921 7.04505 4.23255C5.47171 5.80589 4.40025 7.81045 3.96617 9.99274C3.53209 12.175 3.75487 14.437 4.60636 16.4927C5.45785 18.5484 6.89979 20.3054 8.74984 21.5415C10.5999 22.7777 12.775 23.4375 15 23.4375C17.9837 23.4375 20.8452 22.2522 22.955 20.1425C25.0647 18.0327 26.25 15.1712 26.25 12.1875ZM21.2813 10.65L18.8156 13.0688L19.3969 16.4813C19.4303 16.657 19.4128 16.8387 19.3464 17.0048C19.2799 17.1709 19.1673 17.3146 19.0219 17.4188C18.8636 17.5333 18.6735 17.5956 18.4781 17.5969C18.3242 17.5961 18.1729 17.5575 18.0375 17.4844L15 15.8625L11.9625 17.4656C11.8143 17.5382 11.6496 17.5703 11.4849 17.5588C11.3203 17.5473 11.1617 17.4925 11.025 17.4C10.8796 17.2958 10.767 17.1522 10.7005 16.9861C10.6341 16.8199 10.6165 16.6383 10.65 16.4625L11.2313 13.05L8.71876 10.65C8.59238 10.5283 8.50268 10.3736 8.45986 10.2035C8.41704 10.0334 8.42281 9.85462 8.47653 9.68761C8.53025 9.5206 8.62975 9.37201 8.76372 9.25874C8.89769 9.14548 9.06076 9.07207 9.23438 9.04688L12.6375 8.55001L14.1563 5.44688C14.233 5.28838 14.3529 5.1547 14.5021 5.06117C14.6513 4.96763 14.8239 4.91803 15 4.91803C15.1761 4.91803 15.3487 4.96763 15.4979 5.06117C15.6471 5.1547 15.767 5.28838 15.8438 5.44688L17.3625 8.55001L20.7656 9.04688C20.9392 9.07207 21.1023 9.14548 21.2363 9.25874C21.3703 9.37201 21.4698 9.5206 21.5235 9.68761C21.5772 9.85462 21.583 10.0334 21.5402 10.2035C21.4973 10.3736 21.4076 10.5283 21.2813 10.65Z" fill="white"/>
</g>
<defs>
<clipPath id="clip0_1_219">
<rect width="30" height="30" fill="white"/>
</clipPath>
</defs>
</svg>
