<svg width="46" height="46" viewBox="0 0 46 46" fill="none" xmlns="http://www.w3.org/2000/svg">
<path d="M25.7673 13.6347L25.6235 13.491C25.3432 13.2107 24.8904 13.2107 24.6101 13.491L18.9104 19.1835L16.3373 18.9463C15.8917 18.9032 15.4532 19.0613 15.1442 19.3776L6.63417 27.8804C6.04479 28.4697 6.04479 29.4113 6.63417 30.0007L7.5973 30.9638C7.86323 31.2297 8.20823 31.3807 8.58198 31.4022L10.2135 31.4885C10.8173 31.5172 11.342 31.9126 11.5432 32.4876L14.5404 41.0263C15.3167 43.2329 18.127 43.8726 19.7801 42.2194L27.6576 34.3419C28.5632 33.4363 28.8364 32.0779 28.3548 30.8919L24.7467 22.0944L28.9801 17.861C29.2604 17.5807 29.2604 17.1279 28.9801 16.8476L25.7673 13.6347ZM25.6307 32.1426L18.2492 39.5241L15.4101 31.4382L16.8117 30.0366C17.2285 30.6691 18.1342 31.5316 19.3489 31.5316C19.5717 31.5316 19.8089 31.5029 20.046 31.4382C20.427 31.3376 20.657 30.9422 20.5564 30.5613C20.4557 30.1804 20.0604 29.9504 19.6795 30.051C18.6445 30.3241 17.9832 29.2029 17.9545 29.1597C17.9257 29.1022 17.8754 29.0663 17.8323 29.0232L22.461 24.3944L25.6307 32.1497V32.1426Z" fill="white"/>
<path d="M39.3373 4.8659L37.5979 3.12652C37.3319 2.86058 36.9079 2.83183 36.606 3.06902L33.501 5.50558C33.1488 5.7859 33.1201 6.3034 33.4363 6.61965L33.6448 6.82808L30.1013 10.3715C30.1373 10.4075 30.1804 10.429 30.2163 10.465L31.9988 12.2475C31.9988 12.2475 32.0563 12.3265 32.0923 12.3625L35.6357 8.81902L35.8441 9.02746C36.1604 9.34371 36.6851 9.31496 36.9582 8.96277L39.3948 5.85777C39.6319 5.56308 39.6032 5.13183 39.3373 4.8659Z" fill="white"/>
<path d="M29.2027 11.4858C28.8505 11.1336 28.2683 11.1336 27.9161 11.4858L26.7805 12.6214L29.8496 15.6905L30.9852 14.5549C31.3374 14.2027 31.3374 13.6205 30.9852 13.2683L29.2027 11.4858Z" fill="white"/>
</svg>
