<svg width="36" height="36" viewBox="0 0 36 36" fill="none" xmlns="http://www.w3.org/2000/svg">
<path fill-rule="evenodd" clip-rule="evenodd" d="M17.5499 13.3875L15.7499 12.2625V2.25H20.2499V12.2625L18.4499 13.3875C18.2812 13.4438 18.1687 13.5 17.9999 13.5C17.8312 13.5 17.6624 13.4438 17.5499 13.3875ZM8.99992 1.6875C8.99992 0.73125 9.73117 0 10.6874 0H25.3124C26.2687 0 26.9999 0.73125 26.9999 1.6875V9.16875C26.9999 10.125 26.4937 11.025 25.6499 11.5875L20.2499 14.9063V15.75C20.2499 16.4813 19.9124 17.1 19.4062 17.4938L21.0937 22.5H27.5624C28.0687 22.5 28.4624 22.8375 28.6312 23.2875C28.7999 23.7375 28.6312 24.2438 28.2374 24.525L22.9499 28.4063L24.9749 34.4813C25.1437 34.9313 24.9749 35.4375 24.5812 35.7188C24.1874 36 23.6812 36 23.2874 35.7188L17.9999 32.0063L12.7687 35.775C12.3749 36.0563 11.8124 36.0563 11.4749 35.775C11.0812 35.4938 10.9124 34.9875 11.0812 34.5375L13.1062 28.4063L7.87492 24.525C7.48117 24.2438 7.31242 23.7375 7.48117 23.2875C7.64992 22.8375 8.04367 22.5 8.54992 22.5H15.0187L16.7062 17.4938C16.0874 17.1 15.7499 16.4813 15.7499 15.75V14.9063L10.3499 11.5875C9.50617 11.0813 8.99992 10.1813 8.99992 9.16875V1.6875Z" fill="white"/>
</svg>
