<svg width="11" height="11" viewBox="0 0 11 11" fill="none" xmlns="http://www.w3.org/2000/svg">
<path d="M5.33375 0.000296564C6.04625 -0.00711408 6.75324 0.124427 7.41395 0.387358C8.07466 0.650289 8.67617 1.03941 9.18368 1.53233C9.69118 2.02524 10.0947 2.61222 10.3711 3.25946C10.6475 3.9067 10.7913 4.60143 10.7942 5.30366C10.8012 6.69129 10.2511 8.02534 9.26386 9.01477C8.27665 10.0042 6.93255 10.5687 5.52463 10.5852C4.08743 10.601 2.70176 10.0582 1.66775 9.07428C0.633741 8.09041 0.0344906 6.7447 3.17178e-05 5.32861C-0.00484738 3.92638 0.553357 2.57917 1.5526 1.58094C2.55184 0.582704 3.911 0.0144981 5.33375 0.000296564ZM8.69159 5.30366C8.70773 4.86977 8.63343 4.43723 8.47347 4.03268C8.31351 3.62814 8.07129 3.26016 7.76152 2.95144C7.45175 2.64272 7.08111 2.39979 6.67244 2.23763C6.26377 2.07547 5.82574 1.99751 5.38533 2.00855C4.94382 2.01084 4.5072 2.10024 4.10132 2.27151C3.69543 2.44278 3.32849 2.69243 3.02209 3.00574C2.71569 3.31904 2.476 3.68966 2.31729 4.09571C2.15859 4.50176 2.08405 4.93503 2.09801 5.36995C2.09372 5.79727 2.17715 6.22103 2.34337 6.61572C2.5096 7.01041 2.75511 7.36788 3.06518 7.66661C3.37524 7.96534 3.74353 8.19916 4.14768 8.35399C4.55183 8.50883 4.98344 8.58147 5.41683 8.56757C6.28935 8.56077 7.12373 8.21376 7.73737 7.60242C8.35101 6.99108 8.69413 6.16514 8.69159 5.30522V5.30366Z" fill="white"/>
</svg>
