<svg width="25" height="24" viewBox="0 0 25 24" fill="none" xmlns="http://www.w3.org/2000/svg">
<path d="M13.6877 16.4145C14.7631 17.0542 15.6606 15.8459 16.4212 15.2754C16.8922 14.8829 17.4819 14.6608 18.0948 14.6451C18.7077 14.6294 19.3079 14.821 19.7984 15.1889L22.836 17.4671C23.1746 17.7211 23.4548 18.0449 23.6574 18.4166C23.86 18.7882 23.9804 19.1991 24.0104 19.6214C24.0405 20.0437 23.9794 20.4675 23.8313 20.8641C23.6833 21.2607 23.4518 21.6209 23.1525 21.9202C18.6457 26.3456 11.4251 23.0912 6.12067 17.9346C2.08679 13.9006 0.616513 10.0029 0.133257 7.1957C-0.755818 3.67833 2.96186 -2.66907 6.58828 1.21918L8.86634 4.25677C9.2342 4.74725 9.42578 5.34752 9.41008 5.96042C9.39437 6.57333 9.1723 7.163 8.7798 7.634L7.78013 8.83359C7.60402 9.04493 7.49636 9.30484 7.47146 9.5788C7.44657 9.85277 7.5056 10.1278 7.64072 10.3675C9.06713 12.8969 11.1583 14.9881 13.6877 16.4145ZM23.781 9.38061C23.7783 6.96614 22.818 4.65134 21.1107 2.94406C19.4034 1.23677 17.0886 0.27643 14.6742 0.273729C14.5601 0.273368 14.4471 0.295517 14.3417 0.338906C14.2362 0.382295 14.1404 0.446071 14.0596 0.526578C13.9788 0.607085 13.9148 0.70274 13.871 0.808059C13.8273 0.913379 13.8048 1.02629 13.8048 1.14033C13.8048 1.25436 13.8273 1.36728 13.871 1.4726C13.9148 1.57791 13.9788 1.67357 14.0596 1.75408C14.1404 1.83458 14.2362 1.89836 14.3417 1.94175C14.4471 1.98514 14.5601 2.00729 14.6742 2.00693C16.6291 2.00917 18.5033 2.78676 19.8857 4.16911C21.268 5.55146 22.0456 7.42568 22.0479 9.38062C22.0513 9.60817 22.1441 9.82524 22.3063 9.98494C22.4684 10.1446 22.6869 10.2342 22.9145 10.2342C23.142 10.2342 23.3605 10.1446 23.5226 9.98493C23.6848 9.82523 23.7776 9.60817 23.781 9.38061ZM19.509 9.38061C19.5074 8.0989 18.9975 6.87016 18.0911 5.96393C17.1847 5.05771 15.9558 4.548 14.6741 4.54662C14.5601 4.54626 14.4471 4.56841 14.3417 4.6118C14.2362 4.65519 14.1404 4.71896 14.0596 4.79947C13.9788 4.87998 13.9147 4.97563 13.871 5.08095C13.8273 5.18627 13.8048 5.29919 13.8048 5.41322C13.8048 5.52726 13.8273 5.64017 13.871 5.74549C13.9147 5.85081 13.9788 5.94646 14.0596 6.02697C14.1404 6.10748 14.2362 6.17125 14.3417 6.21464C14.4471 6.25803 14.5601 6.28018 14.6741 6.27982C15.4964 6.2806 16.2847 6.60751 16.8662 7.18883C17.4476 7.77015 17.7748 8.55839 17.7758 9.38061C17.7792 9.60817 17.8721 9.82523 18.0342 9.98493C18.1963 10.1446 18.4148 10.2341 18.6424 10.2341C18.87 10.2341 19.0884 10.1446 19.2505 9.98493C19.4127 9.82523 19.5055 9.60817 19.509 9.38061ZM14.6744 10.2433C14.899 10.2356 15.1119 10.1409 15.2681 9.97918C15.4243 9.81751 15.5116 9.6015 15.5116 9.37671C15.5116 9.15192 15.4243 8.93591 15.2681 8.77424C15.1119 8.61257 14.899 8.51787 14.6744 8.51011C14.4497 8.51787 14.2368 8.61257 14.0807 8.77425C13.9245 8.93592 13.8372 9.15193 13.8372 9.37672C13.8372 9.60152 13.9245 9.81752 14.0807 9.97919C14.2369 10.1409 14.4497 10.2356 14.6744 10.2433Z" fill="white"/>
</svg>
