<svg width="87" height="87" viewBox="0 0 87 87" fill="none" xmlns="http://www.w3.org/2000/svg">
<circle cx="43.3099" cy="43.3099" r="43.3099" fill="white"/>
<g clip-path="url(#clip0_2028_115)">
<path d="M43.1439 28C46.6262 28.0737 49.5134 28.7419 52.2706 29.9646C56.6066 31.8855 60.2952 34.6918 63.5813 38.0178C64.951 39.4041 66.2035 40.9041 67.4649 42.3903C68.186 43.2396 68.1631 43.7629 67.4814 44.6272C63.7418 49.3669 59.3562 53.3947 53.9461 56.2648C51.7724 57.4176 49.4688 58.2331 47.0313 58.684C43.1605 59.3997 39.4336 58.8676 35.815 57.4488C32.2741 56.06 29.1461 54.0105 26.2589 51.5875C23.866 49.5792 21.6923 47.3636 19.739 44.9407C19.6868 44.8757 19.632 44.812 19.5798 44.7458C18.8153 43.7654 18.8 43.2571 19.5708 42.2979C23.0569 37.9628 27.1049 34.2335 31.9747 31.4209C34.5459 29.9359 37.279 28.8118 40.2465 28.3322C41.3524 28.1524 42.475 28.0749 43.1439 28ZM53.5665 43.5381C53.6289 38.4874 49.5491 33.7339 43.609 33.7152C37.7568 33.6964 33.4183 38.34 33.403 43.4881C33.3877 48.5763 37.6357 53.2898 43.558 53.3111C49.4382 53.3323 53.5983 48.645 53.5665 43.5381Z" fill="url(#paint0_linear_2028_115)"/>
<path d="M43.553 39.2567C46.058 39.3529 47.8877 41.1239 47.8991 43.4994C47.9093 45.8324 46.1255 47.747 43.581 47.7433C40.9614 47.7383 39.1024 45.765 39.0693 43.5581C39.0361 41.3999 40.8416 39.4016 43.553 39.2567Z" fill="url(#paint1_linear_2028_115)"/>
</g>
<defs>
<linearGradient id="paint0_linear_2028_115" x1="24.3193" y1="28" x2="35.7301" y2="73.9506" gradientUnits="userSpaceOnUse">
<stop stop-color="#2057B2"/>
<stop offset="1" stop-color="white"/>
</linearGradient>
<linearGradient id="paint1_linear_2028_115" x1="24.3193" y1="28" x2="35.7301" y2="73.9506" gradientUnits="userSpaceOnUse">
<stop stop-color="#2057B2"/>
<stop offset="1" stop-color="white"/>
</linearGradient>
<clipPath id="clip0_2028_115">
<rect width="49" height="31" fill="white" transform="translate(19 28)"/>
</clipPath>
</defs>
</svg>
