<svg width="9" height="18" viewBox="0 0 9 18" fill="none" xmlns="http://www.w3.org/2000/svg">
<path d="M5.83954 6.4241H8.48794C8.53478 6.59083 8.56071 6.76333 8.56518 6.9372C8.46586 7.7144 8.33514 8.48656 8.2382 9.26376C8.24084 9.32903 8.22962 9.3941 8.20553 9.45426C8.18143 9.51442 8.14499 9.56815 8.09881 9.61156C8.05263 9.65496 7.99784 9.68696 7.93851 9.70522C7.87918 9.72348 7.81685 9.72754 7.75585 9.71712C7.15101 9.70895 6.5462 9.71712 5.85275 9.71712V17.2124C5.57323 17.2319 5.37685 17.2552 5.18238 17.2577C4.48476 17.2652 3.78785 17.2747 3.09023 17.2671C2.50621 17.2608 2.4925 17.2313 2.49071 16.6176C2.48476 14.5476 2.47644 12.4776 2.46574 10.4075C2.46574 10.2013 2.43363 9.99442 2.40984 9.70643H0V6.49956H2.36279C2.41099 6.32218 2.44636 6.1412 2.46864 5.95816C2.49481 5.19794 2.47588 4.43458 2.53238 3.6775C2.53726 2.90871 2.77077 2.16102 3.19985 1.54033C3.62894 0.91964 4.23172 0.45741 4.92305 0.219103C5.35137 0.0759577 5.79776 0.0021816 6.24696 0.000281189C6.919 -0.00537801 7.59169 0.0757377 8.26433 0.12164C8.33226 0.115737 8.40055 0.125937 8.46427 0.151499C8.52799 0.177061 8.58557 0.217338 8.6327 0.269394C8.67982 0.32145 8.71529 0.383972 8.73666 0.452399C8.75802 0.520826 8.76466 0.593432 8.75611 0.664922C8.75195 1.28366 8.74959 1.9024 8.76149 2.52051C8.76862 2.89779 8.58896 3.02732 8.26186 3.01915C7.90503 3.01097 7.54168 3.00028 7.18247 3.01915C7.00666 3.00399 6.82989 3.02867 6.66382 3.09152C6.49775 3.15438 6.34628 3.25398 6.21952 3.38366C6.09276 3.51335 5.99358 3.67013 5.92869 3.84355C5.8638 4.01697 5.83463 4.20302 5.84317 4.3893C5.81105 5.02313 5.83954 5.66388 5.83954 6.4241Z" fill="white"/>
</svg>
