<svg width="245" height="112" viewBox="0 0 245 112" fill="none" xmlns="http://www.w3.org/2000/svg">
<path d="M96.1443 75.6443C96.1443 75.6443 94.0591 101.583 73.014 109.3C73.0107 109.304 73.0007 109.31 72.9941 109.31C71.0155 109.977 68.9536 110.456 66.8118 110.756C56.2193 112.235 46.5362 109.427 37.5059 104.204C21.9803 95.2204 11.511 81.8799 4.92572 65.3583C1.35159 56.388 -0.387168 47.0646 0.0725056 37.4014C0.475553 28.9774 2.59738 21.0231 7.56052 14.0813C12.4271 7.27283 18.6893 2.90926 26.4538 1.02727C26.5071 1.01394 26.5604 1.00396 26.6137 0.993965C28.6322 0.544285 30.5375 0.257817 32.3363 0.104592C32.3596 0.104592 32.3862 0.104589 32.4029 0.101258C36.7198 -0.228508 40.8502 0.274467 44.924 1.2138C47.1357 1.84335 48.9145 2.61281 50.2569 3.30232C52.2121 4.31494 53.2181 5.161 53.2181 5.161C50.5333 3.7087 47.7986 2.95923 45.1871 2.66611C40.194 2.09984 35.6572 3.1924 32.7726 4.18503C32.5395 4.2683 32.3129 4.34492 32.1064 4.42819C31.7966 4.54478 31.4869 4.66468 31.1837 4.7846C31.0672 4.83456 30.9572 4.87787 30.8506 4.9245C30.8307 4.9345 30.8107 4.94449 30.794 4.94782C30.1845 5.20431 29.7814 5.40416 29.6315 5.48077C29.5915 5.50409 29.5682 5.51408 29.5682 5.51408C24.765 7.86575 20.921 11.5098 17.9065 16.2265C14.6455 21.3362 13.2232 27.0155 12.4837 33.0012C12.3738 33.8706 12.3005 34.7333 12.2672 35.5961C12.2672 35.5961 12.2638 35.6627 12.2638 35.8026C12.0806 40.2394 12.7235 44.5797 13.3131 48.9532C13.3331 49.0898 13.4597 49.2131 13.5996 49.4229C13.8794 50.8652 14.2225 52.3741 14.6388 53.933C14.7587 54.5626 14.8953 55.1488 15.1185 55.6618C16.9572 61.9307 19.965 68.8458 24.8816 75.1113C31.8633 85.0643 40.8869 92.8188 52.8517 97.3056C58.4111 99.3908 64.087 100.277 69.813 99.564C69.813 99.564 89.6456 99.0044 96.1476 75.6476L96.1443 75.6443Z" fill="white"/>
<path d="M60.8027 110.323C53.1214 110.323 45.5302 108.095 37.5991 103.508C23.0461 95.084 12.2238 82.1765 5.43198 65.1419C1.81788 56.075 0.209016 46.8083 0.645373 37.5915C1.0784 28.5213 3.47004 21.0632 7.95685 14.7877C12.7468 8.08579 18.7459 3.94207 26.2905 2.11337C26.3405 2.10005 26.3671 2.09671 26.3938 2.09005C28.3024 1.66369 30.1744 1.37389 31.9898 1.21401C32.0264 1.21401 32.0731 1.21401 32.1264 1.20401C32.9658 1.14072 33.8251 1.10742 34.6812 1.10742C36.7964 1.10742 38.9848 1.30062 41.2998 1.69034C37.5225 1.79027 34.2182 2.66632 32.0631 3.40912L31.9132 3.46241C31.72 3.52903 31.5301 3.59565 31.3569 3.6656C31.0571 3.77886 30.7407 3.9021 30.4309 4.02534L30.321 4.07198C30.2377 4.10529 30.1578 4.1386 30.0811 4.17524L30.0212 4.19856C29.335 4.48835 28.9053 4.70487 28.7921 4.76149L28.7254 4.78148H28.7488V4.78814C23.9388 7.14313 19.885 10.8638 16.704 15.847C13.7494 20.477 12.0306 25.7732 11.1346 33.0247C11.0213 33.9174 10.9447 34.8168 10.9114 35.6929C10.9114 35.6929 10.9048 35.7828 10.9048 35.946C10.7315 40.143 11.2978 44.3334 11.8474 48.3838L11.9607 49.2266C12.0073 49.5597 12.1705 49.7895 12.2971 49.9594C12.5836 51.405 12.92 52.8607 13.3031 54.293C13.4196 54.8992 13.5629 55.5388 13.8127 56.1317C16.0145 63.623 19.3354 70.2383 23.6824 75.7944L23.6957 75.8144C31.3136 86.6667 40.6103 94.0381 52.1188 98.3517C56.6523 100.054 61.1524 100.917 65.4893 100.917C66.8284 100.917 68.1774 100.833 69.4965 100.673C70.0694 100.65 74.9393 100.364 80.6019 97.3624C84.2893 95.4071 88.7895 91.9995 92.3836 86.137C89.6588 94.0448 83.9695 104.258 72.2912 108.538L72.1946 108.574C70.3259 109.197 68.3406 109.66 66.2888 109.947C64.4667 110.2 62.6214 110.33 60.8027 110.33V110.323Z" fill="white"/>
<path d="M244.246 47.7323C245.202 46.4466 245.322 44.4213 244.182 42.9024C243.58 42.0996 242.777 41.5733 241.791 41.3435C240.615 41.077 239.516 41.3002 238.473 41.9831C238.38 41.8098 238.307 41.6899 238.243 41.56C237.72 40.604 237.051 39.7646 236.205 39.0818C235.988 38.9086 235.862 38.7287 235.825 38.4656C235.762 37.8926 235.582 37.3463 235.352 36.8201C234.972 35.944 234.456 35.1612 233.76 34.5017C232.491 33.3092 231.002 32.613 229.26 32.4998C228.24 32.4265 227.235 32.5364 226.282 32.9528C226.015 33.066 225.836 33.0261 225.629 32.8029C225.039 32.1867 224.323 31.747 223.504 31.5038C222.291 31.1507 221.106 31.194 219.936 31.7203C218.751 32.25 217.875 33.0927 217.345 34.2818C217.302 34.3818 217.238 34.475 217.172 34.5983C217.015 34.4684 216.892 34.3751 216.769 34.2752C215.763 33.4491 214.667 32.7763 213.488 32.2366C212.139 31.6204 210.74 31.1974 209.267 30.9809C207.309 30.6877 205.363 30.7877 203.431 31.2174C202.599 31.4039 201.803 31.6904 201.013 32.0135C200.1 32.3865 199.241 32.8395 198.422 33.3758C197.489 33.9921 196.633 34.7049 195.85 35.501C194.631 36.7568 193.645 38.1791 192.906 39.7646C192.799 39.9945 192.689 40.231 192.576 40.4675C189.581 38.4855 186.2 39.0018 184.005 40.9838C181.714 43.0456 181.334 46.1368 182.14 48.2353C181.724 45.0209 183.376 42.2928 185.907 41.0437C188.156 39.9378 190.84 40.2743 192.259 41.3035C192.123 41.7998 191.98 42.2862 191.85 42.7825C191.8 42.9823 191.706 43.1189 191.54 43.2488C190.85 43.7784 190.291 44.4246 189.844 45.1808C189.048 46.5365 188.782 48.0088 188.962 49.5677C188.968 49.6409 188.998 49.7042 189.025 49.7908C189.155 46.9562 190.354 44.7378 192.872 43.4653C196.097 41.8431 199.001 42.5693 201.596 45.0942C200.82 43.8651 199.831 42.9823 198.582 42.4161C196.836 41.6266 195.057 41.59 193.225 42.2728C193.245 42.1929 193.255 42.1496 193.275 42.1063C193.728 41.0137 194.301 40.0045 194.991 39.0485C195.794 37.9226 196.75 36.93 197.819 36.0606C199.241 34.9114 200.82 34.052 202.542 33.4691C203.605 33.1094 204.704 32.8729 205.83 32.7596C207.452 32.5864 209.061 32.6663 210.646 33.0028C212.598 33.4191 214.4 34.1952 216.059 35.3078C217.222 36.0839 218.241 37.0232 219.167 38.0658C219.24 38.1458 219.29 38.2457 219.36 38.3523C215.549 39.1484 214.673 42.9124 215.563 44.8344C215.706 42.4794 216.782 40.7339 219.024 39.8879C220.869 39.1984 222.591 39.5781 224.17 40.8006C223.71 41.4601 223.387 42.1496 223.144 42.8824C222.914 43.6086 222.764 44.348 222.778 45.1308C223.307 43.2588 224.27 41.6766 225.799 40.4575C227.334 39.2283 229.087 38.6188 231.038 38.6054C232.827 38.5921 234.463 39.1084 235.928 40.1277C237.394 41.1403 238.44 42.496 239.093 44.1615C239.013 43.7251 238.906 43.2988 238.77 42.8824C238.683 42.5959 238.683 42.5093 238.976 42.4294C239.313 42.3428 239.652 42.2562 239.995 42.2362C242.637 42.0697 244.675 44.2814 244.396 46.8163C244.366 47.1194 244.296 47.4125 244.239 47.7356L244.246 47.7323ZM234.433 37.9692C233.09 37.3363 231.685 37.0998 230.212 37.2298C228.504 37.3863 226.988 38.0192 225.689 39.1251C225.243 39.4981 224.876 39.9645 224.47 40.3875C224.413 40.4508 224.347 40.5241 224.27 40.6107C224.177 40.4974 224.103 40.4042 224.033 40.3176C223.157 39.175 222.025 38.5022 220.579 38.3656C220.369 38.3456 220.256 38.2524 220.163 38.0925C219.597 37.1798 218.934 36.3471 218.194 35.5809C218.151 35.5376 218.114 35.4877 218.071 35.451C217.618 35.0413 217.705 35.0846 218.028 34.6483C218.594 33.8888 219.313 33.2859 220.196 32.9328C221.619 32.3665 223.061 32.3299 224.483 32.9695C224.67 33.0561 224.85 33.1427 225.036 33.2359C225.093 33.2726 225.149 33.3159 225.259 33.3792C224.62 33.7955 224.04 34.2119 223.544 34.7515C223.054 35.2745 222.661 35.8574 222.338 36.497C224.023 34.2485 226.259 33.136 229.057 33.4824C231.855 33.8355 233.743 35.4577 234.849 38.1358C234.663 38.0625 234.539 38.0292 234.433 37.9792V37.9692Z" fill="white"/>
<path d="M86.6177 22.2988C86.5744 22.0856 86.4912 21.8791 86.4512 21.6659C86.3279 20.9797 86.218 20.2902 86.0981 19.5674C86.0615 19.7173 86.0182 19.8472 85.9949 19.9804C85.8716 20.6699 85.7484 21.3594 85.6284 22.0523C85.4686 22.9716 84.9156 23.5212 84.0329 23.7611C83.5066 23.9043 82.9737 24.0275 82.484 24.1475C82.987 24.2707 83.5333 24.3973 84.0762 24.5439C84.859 24.757 85.4153 25.2134 85.5851 26.0395C85.735 26.7723 85.8583 27.5084 85.9915 28.2446C86.0182 28.3911 86.0382 28.541 86.0581 28.6876C86.0848 28.6809 86.1081 28.6743 86.1347 28.6676C86.178 28.3278 86.218 27.9881 86.2647 27.6483C86.3513 26.9655 86.4912 26.2959 86.7343 25.6464C86.8709 25.2767 87.1107 24.9935 87.4605 24.8203C87.7403 24.6804 88.0301 24.5572 88.3265 24.4706C88.7895 24.3407 89.2659 24.2507 89.6956 24.1541C89.1459 24.0109 88.5564 23.8777 87.9801 23.7044C87.2739 23.4913 86.7776 23.0549 86.6211 22.2954L86.6177 22.2988Z" fill="white"/>
<path d="M174.465 44.953C174.502 44.6665 174.555 44.3867 174.612 44.1102C174.385 44.1169 174.162 44.1036 173.942 44.0703C173.929 44.3634 173.919 44.6565 173.919 44.9596C172.44 44.983 171.014 45.1528 169.702 45.7791C169.506 45.5192 169.352 45.336 169.212 45.1395C168.09 43.5373 166.701 42.2049 165.065 41.1357C162.874 39.7067 160.472 38.874 157.867 38.6874C155.765 38.5409 153.707 38.794 151.695 39.5035C150.099 40.0631 148.62 40.8259 147.301 41.8618C145.909 42.9544 144.736 44.2268 143.81 45.6791C144.124 45.6525 144.42 45.6625 144.713 45.6658C145.273 45.6725 145.836 45.6858 146.405 45.6924C148.211 43.494 150.579 41.9618 153.47 41.1124C156.408 40.253 159.366 40.3662 162.261 41.3988C164.902 42.3415 167.077 43.937 168.823 46.1421C168.316 46.4386 167.857 46.7617 167.44 47.1015C168.966 47.1181 170.518 47.1414 172.07 47.1647C173.123 46.9049 174.206 46.8583 175.335 47.0282C175.711 47.0881 176.068 47.1614 176.417 47.2514C176.514 47.2514 176.611 47.258 176.707 47.2613C177.283 47.278 177.79 47.2214 178.253 47.0948C178.509 47.0248 178.749 46.9349 178.999 46.8183C179.042 46.8017 179.082 46.7784 179.132 46.7584C177.936 45.849 176.494 45.2861 174.828 45.0362C174.715 45.0129 174.605 44.983 174.462 44.9496L174.465 44.953Z" fill="white"/>
<path d="M74.513 23.3584H61.1158C58.9973 21.02 56.6457 19.198 54.2807 17.7657C50.1869 15.2874 46.0299 14.005 42.8921 13.3355C42.8688 13.3322 42.8421 13.3255 42.8188 13.3222C41.2466 12.9491 39.6544 12.7159 38.0522 12.646C37.7424 12.626 37.5725 12.6227 37.5725 12.6227C34.2449 12.5161 30.8673 13.059 27.4764 14.3048C25.7243 14.9477 24.1054 15.9636 22.0336 17.0029C26.9434 9.73138 33.199 5.61763 41.7096 5.20126C46.4895 4.96809 50.9497 5.81416 55.19 7.43635C56.3159 7.89269 57.3785 8.35569 58.3744 8.81536C58.461 8.85866 58.5476 8.88865 58.6309 8.93528C72.5044 16.6931 74.5163 23.3584 74.5163 23.3584H74.513Z" fill="white"/>
<path d="M61.5389 22.3918C59.5969 20.3133 57.3252 18.4813 54.7803 16.9391C51.3061 14.8372 47.3756 13.305 43.092 12.389L43.002 12.3723C41.3832 11.9892 39.721 11.7527 38.0955 11.6795C37.7824 11.6595 37.5992 11.6561 37.5992 11.6561C37.3194 11.6461 37.0363 11.6428 36.7531 11.6428C33.5421 11.6428 30.3077 12.2324 27.14 13.3982C26.567 13.6081 26.0074 13.8579 25.4512 14.1277C29.9013 9.04466 35.1643 6.49314 41.7563 6.17336C42.2592 6.15005 42.7655 6.13672 43.2652 6.13672C47.1691 6.13672 50.9564 6.85954 54.8436 8.34515C55.8562 8.75486 56.8822 9.19788 57.9681 9.69752C57.9914 9.71085 58.0414 9.73084 58.0913 9.75416C58.1146 9.76415 58.1346 9.77414 58.1579 9.78413C67.9443 15.2569 71.6817 20.1734 72.9741 22.3952H61.5422L61.5389 22.3918Z" fill="white"/>
<path d="M90.3817 79.9336C88.4331 85.4597 84.3393 92.6013 75.9286 95.1095C75.9286 95.1095 81.2782 90.4361 83.9596 79.9436H84.9622C85.5818 79.9502 86.248 79.9502 86.9542 79.9502C87.8002 79.9502 88.593 79.9502 89.3258 79.9436C89.6922 79.9436 90.0453 79.9369 90.385 79.9369L90.3817 79.9336Z" fill="white"/>
<path d="M89.3224 79.9414C87.7136 84.325 84.7357 89.6445 79.2996 92.6524C81.1349 90.0909 83.4766 85.9272 84.9589 79.9414C85.5784 79.9481 86.2446 79.9481 86.9508 79.9481C87.7969 79.9481 88.5896 79.9481 89.3224 79.9414Z" fill="white"/>
<path d="M131.016 38.4133C131.003 38.3433 130.973 38.2734 130.96 38.2034C130.92 37.9736 130.883 37.7437 130.843 37.5039C130.83 37.5539 130.816 37.5972 130.81 37.6438C130.766 37.8736 130.726 38.1035 130.686 38.3366C130.633 38.6431 130.45 38.8263 130.153 38.9062C129.977 38.9529 129.8 38.9962 129.637 39.0362C129.807 39.0795 129.987 39.1194 130.17 39.1694C130.43 39.2393 130.616 39.3926 130.673 39.669C130.723 39.9122 130.763 40.1587 130.81 40.4052C130.82 40.4551 130.826 40.5051 130.833 40.5517C130.843 40.5517 130.85 40.5484 130.86 40.5451C130.873 40.4318 130.886 40.3186 130.903 40.2053C130.933 39.9788 130.98 39.7523 131.059 39.5358C131.106 39.4126 131.186 39.3193 131.303 39.2593C131.396 39.2127 131.492 39.1694 131.592 39.1427C131.746 39.0994 131.906 39.0695 132.049 39.0362C131.866 38.9895 131.669 38.9429 131.476 38.8863C131.239 38.8163 131.073 38.6697 131.023 38.4166L131.016 38.4133Z" fill="white"/>
<path d="M91.1412 58.2238C91.1278 58.1539 91.0979 58.0839 91.0845 58.014C91.0446 57.7841 91.0079 57.5543 90.968 57.3145C90.9546 57.3644 90.9413 57.4077 90.9346 57.4544C90.8913 57.6842 90.8514 57.914 90.8114 58.1472C90.7581 58.4536 90.5749 58.6369 90.2784 58.7168C90.1019 58.7634 89.9254 58.8067 89.7621 58.8467C89.932 58.89 90.1119 58.93 90.2951 58.9799C90.5549 59.0499 90.7414 59.2031 90.7981 59.4796C90.848 59.7227 90.888 59.9692 90.9346 60.2157C90.9446 60.2657 90.9513 60.3157 90.958 60.3623C90.968 60.3623 90.9746 60.359 90.9846 60.3556C90.9979 60.2424 91.0113 60.1291 91.0279 60.0159C91.0579 59.7894 91.1045 59.5629 91.1845 59.3464C91.2311 59.2231 91.311 59.1298 91.4276 59.0699C91.5209 59.0232 91.6175 58.98 91.7174 58.9533C91.8706 58.91 92.0305 58.88 92.1738 58.8467C91.9906 58.8001 91.794 58.7534 91.6008 58.6968C91.3643 58.6269 91.1978 58.4803 91.1478 58.2272L91.1412 58.2238Z" fill="white"/>
<path d="M195.837 38.4133C195.824 38.3433 195.794 38.2734 195.78 38.2034C195.74 37.9736 195.704 37.7437 195.664 37.5039C195.65 37.5539 195.637 37.5972 195.63 37.6438C195.587 37.8736 195.547 38.1035 195.507 38.3366C195.454 38.6431 195.271 38.8263 194.974 38.9062C194.798 38.9529 194.621 38.9962 194.458 39.0362C194.628 39.0795 194.808 39.1194 194.991 39.1694C195.251 39.2393 195.437 39.3926 195.494 39.669C195.544 39.9122 195.584 40.1587 195.63 40.4052C195.64 40.4551 195.647 40.5051 195.654 40.5517C195.664 40.5517 195.67 40.5484 195.68 40.5451C195.694 40.4318 195.707 40.3186 195.724 40.2053C195.754 39.9788 195.8 39.7523 195.88 39.5358C195.927 39.4126 196.007 39.3193 196.123 39.2593C196.217 39.2127 196.313 39.1694 196.413 39.1427C196.566 39.0994 196.726 39.0695 196.869 39.0362C196.686 38.9895 196.49 38.9429 196.297 38.8863C196.06 38.8163 195.893 38.6697 195.844 38.4166L195.837 38.4133Z" fill="white"/>
<path d="M28.7188 58.7522C29.1718 59.0486 29.6515 59.3018 30.1445 59.5483C29.4583 60.5076 28.7954 61.5036 28.1958 62.5628C27.2499 64.1084 26.517 65.7739 26.0141 67.476C14.7421 48.1097 14.319 27.4211 25.3512 20.4927C31.4069 16.6887 39.6944 17.7879 48.0151 22.6245C45.6801 22.7944 43.3284 23.0409 40.9135 23.294C37.9689 23.6271 36.0236 25.6723 35.8238 28.6436C35.8038 28.9334 35.8038 29.2298 35.8038 29.5129C35.8038 29.6628 35.8038 29.8027 35.7905 29.9793C35.6206 32.5608 36.3334 34.6726 37.9289 36.2615C37.9156 36.458 37.8357 36.8111 37.4126 37.2574C34.8278 39.9322 32.163 42.4937 29.6348 44.8787C29.1252 45.365 28.4856 45.838 27.7995 46.3477C27.5097 46.5675 27.2132 46.784 26.9168 47.0105C24.2353 49.079 23.5358 52.2335 25.158 55.0914C25.2513 55.248 25.3479 55.4079 25.4611 55.5711C26.3072 56.8136 27.3964 57.8795 28.7155 58.7555L28.7188 58.7522Z" fill="white"/>
<path d="M65.1563 62.8595C64.7466 64.6016 64.62 66.1638 64.69 67.5528C64.0405 68.2857 63.3643 68.9985 62.6514 69.6847C57.0188 75.2407 51.1762 78.4418 45.2738 79.2212C44.4144 79.3411 43.5583 79.4044 42.7456 79.4044C41.0867 79.4044 39.6111 79.1579 38.3986 78.7049C37.1862 78.2453 36.2335 77.5757 35.6173 76.7297C34.2616 74.831 34.7412 72.1362 35.3975 70.181C35.9837 68.6554 36.8298 67.2597 37.8757 65.8407C38.4819 66.2837 39.0882 66.7101 39.6911 67.0832C41.2566 68.0492 42.9154 68.5455 44.6176 68.5455C46.3197 68.5455 47.8986 68.0791 49.4608 67.1631C49.7839 66.9866 50.0904 66.7967 50.3768 66.5902L51.103 66.0672L51.1663 65.9473L53.7144 63.8355L53.8344 63.7156C56.7356 60.8076 59.3171 57.2702 61.9519 52.5868C63.9139 49.1159 65.1064 46.0514 65.6926 42.9869C65.7492 42.8737 65.8758 42.6405 65.9324 42.5439C65.9524 42.5006 65.9691 42.4673 65.9891 42.4373C66.5387 42.3308 67.1383 42.2108 67.7811 42.0576C68.1275 42.5806 68.474 43.1035 68.8037 43.6398C69.2334 44.3327 69.6565 45.0222 70.0595 45.715C67.8577 52.7234 66.2122 58.4693 65.153 62.8662L65.1563 62.8595Z" fill="white"/>
<path d="M78.4402 79.7646C77.5308 85.5605 74.9893 90.1905 70.7889 92.822C63.8938 97.1556 54.0908 95.1237 44.6475 88.4451C44.9006 88.4318 45.1638 88.4018 45.4169 88.3752C55.6563 87.2526 63.6906 81.057 68.6804 75.9873C71.0387 78.0692 74.3064 79.3382 78.4402 79.7646Z" fill="white"/>
<path d="M29.1152 36.571C28.8188 36.6376 28.529 36.7475 28.2458 36.8607C27.8961 37.0073 27.6596 37.2438 27.523 37.5536C27.2799 38.0932 27.14 38.6528 27.0534 39.2224C27.0067 39.5089 26.9701 39.792 26.9235 40.0785C26.8968 40.0818 26.8735 40.0885 26.8468 40.0951C26.8269 39.9685 26.8035 39.8486 26.7802 39.7254C26.647 39.1092 26.5237 38.4929 26.3738 37.88C26.2073 37.1872 25.651 36.8075 24.8682 36.6309C24.3286 36.5043 23.7823 36.4044 23.2794 36.2978C23.7657 36.1979 24.2986 36.0913 24.8283 35.9747C25.711 35.7749 26.2639 35.3118 26.4238 34.5424C26.5471 33.9661 26.667 33.3899 26.7935 32.8136C26.8135 32.7004 26.8568 32.5904 26.8935 32.4639C27.0167 33.0668 27.1233 33.643 27.2466 34.2193C27.2832 34.3992 27.3698 34.5724 27.4098 34.7489C27.5697 35.3818 28.066 35.7482 28.7688 35.9281C29.3484 36.0713 29.9346 36.1846 30.4843 36.3011C30.0579 36.3844 29.5782 36.461 29.1152 36.571Z" fill="white"/>
<path d="M31.4336 29.3734C31.307 29.4033 31.1871 29.45 31.0639 29.4999C30.9173 29.5599 30.8174 29.6598 30.7574 29.7897C30.6575 30.0196 30.5975 30.2594 30.5609 30.5026C30.5409 30.6258 30.5242 30.7457 30.5076 30.8623C30.4943 30.8656 30.4809 30.8723 30.4743 30.8723C30.4643 30.8223 30.4576 30.769 30.4443 30.7157C30.391 30.4526 30.3344 30.1928 30.2711 29.9296C30.2011 29.6365 29.9613 29.4733 29.6282 29.3967C29.3984 29.3467 29.1652 29.3001 28.952 29.2534C29.1585 29.2101 29.3851 29.1702 29.6116 29.1202C29.9846 29.0336 30.2211 28.8404 30.2911 28.5106C30.341 28.2641 30.391 28.021 30.4476 27.7778C30.4576 27.7279 30.4743 27.6812 30.4909 27.6279C30.5409 27.8877 30.5875 28.1309 30.6408 28.3741C30.6575 28.4507 30.6908 28.524 30.7108 28.6006C30.7741 28.8704 30.9873 29.0236 31.287 29.1002C31.5335 29.1635 31.7833 29.2101 32.0165 29.2601C31.8333 29.2934 31.6301 29.3267 31.4336 29.3734Z" fill="white"/>
<path d="M71.7549 64.4823H73.6203C71.1986 67.6567 68.8969 70.9277 66.3021 73.3727C60.6495 79.1652 53.288 83.9652 45.0372 84.8645C41.3298 85.2809 37.4326 84.9744 34.1083 83.0958C27.3498 79.3151 27.5829 70.2982 31.2337 64.3557C32.5727 61.9974 34.2182 59.9189 35.8437 57.917L38.1787 59.8756C35.7272 62.7202 33.3921 65.5249 32.0831 68.9858C28.6022 79.2252 36.2068 84.0251 45.7534 82.7194C53.2281 81.7367 59.8067 77.4464 65.1296 72.2002C67.5945 69.8352 69.6664 67.1671 71.7549 64.4823Z" fill="white"/>
<path d="M186.274 31.8609C186.264 31.5545 186.27 31.248 186.264 30.9349C186.264 30.6584 186.26 30.3753 186.26 30.0922C185.361 29.8757 184.465 29.6658 183.576 29.456C181.584 28.9863 179.612 28.5333 177.65 27.9903C176.547 27.6939 175.601 27.7139 174.649 28.3434C174.372 28.5266 174.049 28.6299 173.746 28.7798C172.387 29.4726 170.971 29.7591 169.416 29.7391C163.883 29.6925 127.352 29.7891 121.826 29.8157C121.217 29.819 120.604 29.8157 119.971 29.819C119.584 28.7964 118.908 28.48 117.869 28.49C111.95 28.5499 106.024 28.5366 100.098 28.5599C98.7625 28.5599 98.7625 28.5799 98.0963 29.869C92.4869 29.8957 86.8442 29.9123 81.3881 29.939C80.6553 29.3694 80.1124 28.6732 79.4295 28.4733C77.6808 27.967 75.872 27.4707 74.03 27.8105C73.4471 27.9137 73.0174 27.8604 72.671 27.4874C72.0381 26.7879 71.2353 26.5314 70.356 26.2949C67.5879 25.5521 64.7366 25.6687 61.9186 25.4655C60.3864 25.3489 58.8142 25.6054 57.2653 25.682C54.4339 25.8219 51.5893 25.9052 48.7613 26.0984C46.2697 26.2749 43.7782 26.5347 41.2966 26.7979C40.0175 26.9411 39.4246 27.6173 39.3413 28.8664C39.3113 29.3194 39.3413 29.7657 39.308 30.2054C39.2114 31.6611 39.4646 32.9535 40.6471 33.9728C41.2633 34.5024 41.4365 35.2718 41.4532 36.0879C41.4798 37.5269 40.8669 38.7527 39.9509 39.6954C37.3994 42.3435 34.7479 44.8883 32.0765 47.4166C31.1571 48.2993 30.0846 49.0188 29.0719 49.7949C28.0393 50.591 27.3565 51.8034 28.1992 53.2891C28.2525 53.3823 28.3092 53.4722 28.3724 53.5655C28.992 54.4715 29.7615 55.201 30.6375 55.7839C31.1871 56.1404 31.77 56.4435 32.3963 56.6933C33.4588 57.1263 34.2749 57.7858 35.0644 58.5886L35.1876 58.7119C35.8938 59.4347 36.6133 60.1442 37.3561 60.827C38.6618 62.0229 40.0375 63.1354 41.5531 64.0714C43.6016 65.3372 45.7068 65.2839 47.7154 64.0847C47.9352 63.9681 48.1384 63.8416 48.3416 63.6983V63.6883L51.3361 61.2134C54.3906 58.1556 56.7689 54.5914 58.8808 50.8408C60.4164 48.116 61.6621 45.2947 62.2517 42.2102C62.3483 41.7373 62.5948 41.2709 62.8346 40.8379C63.3543 39.8852 64.0138 39.209 65.2163 38.9825C66.8451 38.6761 68.494 38.2764 69.9996 37.6035C72.1314 36.6475 74.2832 36.2645 76.6115 36.2811C77.9572 36.2911 79.4428 36.0879 80.4688 35.0087C81.0883 34.3658 81.7579 34.2492 82.5706 34.2526C85.3053 34.2659 88.0467 34.2392 90.7848 34.2326C93.2364 34.2193 95.6946 34.2126 98.2062 34.2026C98.5659 35.445 99.5086 35.575 100.581 35.565C106.154 35.515 111.717 35.4817 117.279 35.4983C118.488 35.5017 119.508 35.3518 119.997 34.126C126.509 34.0927 163.93 34.046 170.352 33.9994C171.381 33.9961 172.324 34.1393 173.23 34.6556C175.105 35.7215 177.06 36.0813 179.125 35.1719C179.369 35.0587 179.662 35.0753 179.935 35.0087C181.577 34.599 183.216 34.1959 184.891 33.7829C185.348 33.6663 185.811 33.5464 186.27 33.4398C186.274 32.8902 186.27 32.3772 186.27 31.8543L186.274 31.8609ZM57.0787 47.4199C56.9855 47.8696 56.8689 48.2959 56.729 48.7256C56.6357 49.0021 56.5391 49.2852 56.4325 49.5517C56.3792 49.6916 56.3226 49.8282 56.2593 49.9614C55.9462 50.7175 55.5665 51.447 55.1601 52.1699C54.8869 52.6562 54.5972 53.1391 54.2974 53.6121C52.7918 56.0804 51.1829 58.482 49.0511 60.4773C48.3616 61.1135 47.5655 61.6465 46.776 62.1394C45.9333 62.6791 45.0306 62.6624 44.0513 62.4026C43.2719 62.1927 42.5657 61.8696 41.8962 61.4799C41.673 61.3533 41.4598 61.2234 41.2466 61.0735C41.1367 61.0069 41.0335 60.927 40.9235 60.8504C40.6104 60.6338 40.304 60.3973 40.0008 60.1542C39.6611 59.8777 39.318 59.5846 38.9882 59.2914C37.9989 58.3921 37.1096 57.4028 36.4301 56.217C35.6806 54.8946 35.5906 53.9086 36.2335 52.8227C36.3434 52.6428 36.47 52.4563 36.6233 52.2598C36.6932 52.1632 36.7731 52.0666 36.8697 51.97C36.9031 51.9267 36.9364 51.89 36.983 51.8467C39.8976 48.7822 42.8288 45.7111 45.7401 42.6499C46.0899 42.2835 46.4996 41.9538 46.7361 41.5307C46.7561 41.4874 46.7794 41.4541 46.806 41.4141C46.8493 41.3475 46.9026 41.2809 46.9526 41.221C47.0392 41.1377 47.1291 41.0611 47.2257 40.9944C47.3423 40.9112 47.4789 40.8445 47.6188 40.7879C47.6821 40.7613 47.7587 40.738 47.8286 40.7213C47.9719 40.6847 48.1084 40.6514 48.2617 40.6347C48.7446 40.5681 49.2776 40.7846 49.8305 40.8912C49.4741 43.3328 48.4082 45.2547 47.0725 47.0501C45.8767 48.6523 44.6276 50.2179 43.4184 51.8134C43.3352 51.9267 43.2552 52.0333 43.1753 52.1498C43.0487 52.3164 42.9388 52.493 42.8255 52.6662C42.7156 52.8427 42.609 53.0226 42.5057 53.2124C41.9095 54.2817 41.7962 55.4075 42.1194 56.4002C42.1627 56.5267 42.2026 56.6467 42.2526 56.7699C42.3325 56.9431 42.4191 57.113 42.5257 57.2862C42.7789 57.6759 43.1086 58.0323 43.505 58.3421C43.6216 58.4287 43.7415 58.5187 43.8615 58.6053C44.2312 58.8418 44.6509 59.0516 45.1206 59.2082C45.0673 59.0083 45.0339 58.8051 44.9973 58.6219C44.9773 58.4954 44.9473 58.3788 44.914 58.2655C44.8974 58.2122 44.8841 58.1423 44.8674 58.089C44.8541 58.039 44.8308 57.9857 44.8074 57.9291C44.7875 57.8825 44.7608 57.8292 44.7408 57.7792C44.7142 57.7326 44.6942 57.6859 44.6642 57.6393C44.6309 57.5427 44.5876 57.4494 44.5643 57.3595C44.5343 57.2662 44.5143 57.1763 44.501 57.0797C44.481 56.9931 44.471 56.8998 44.4677 56.8099C44.4643 56.7633 44.4677 56.7233 44.4677 56.6766C44.4777 56.58 44.4777 56.4968 44.4943 56.4035C44.531 56.1437 44.6176 55.8805 44.7375 55.6274C44.8041 55.5041 44.8674 55.3809 44.9473 55.2543C44.984 55.1877 45.0306 55.1277 45.0706 55.0711C45.1172 55.0045 45.1572 54.9412 45.2005 54.8812C45.2671 54.7813 45.3337 54.6914 45.4004 54.5948C45.5403 54.4149 45.6802 54.235 45.8334 54.0618C45.9133 53.9786 45.9899 53.8886 46.0632 53.8087C46.786 53.0326 47.5488 52.2998 48.305 51.5603C49.2709 50.611 50.0137 49.5251 50.5967 48.3059C50.7765 47.9162 50.9697 47.5298 51.1663 47.1434C51.2429 47.0102 51.3161 46.8703 51.3894 46.727L51.4727 46.5705C51.516 46.4905 51.556 46.4139 51.5993 46.334C51.6293 46.2874 51.6526 46.2374 51.6826 46.1941C51.7525 46.0542 51.8258 45.9309 51.9091 45.7944C52.049 45.5545 52.1955 45.3147 52.3421 45.0815C52.6852 44.5486 53.2115 44.0756 53.7511 43.7292C54.7004 43.1163 56.3692 43.6126 56.7356 44.6652C57.0388 45.5246 57.2952 46.4206 57.0754 47.4166L57.0787 47.4199ZM56.0928 42.4401C55.5232 42.1336 54.877 41.9571 54.2507 42.0337C53.6245 42.1137 53.0549 42.4268 52.5819 42.8531C52.3854 43.0963 52.1356 43.3095 51.9557 43.5759C51.7625 43.8358 51.5993 44.1222 51.4594 44.4054C50.8831 45.6045 50.2636 46.8003 49.5407 47.9229C48.8179 49.0387 48.0352 50.1579 46.9826 50.9873C47.4556 50.521 47.8719 49.9981 48.2417 49.4551C48.6181 48.9088 48.9678 48.3426 49.2943 47.773C49.9538 46.6238 50.5534 45.4479 51.1196 44.2455C51.2762 43.9423 51.4527 43.6426 51.6526 43.3694C51.8524 43.0796 52.1089 42.8498 52.3454 42.6066C52.8651 42.1536 53.5113 41.7939 54.2208 41.7506C54.9269 41.7039 55.6098 41.9404 56.1794 42.2835C56.7623 42.6499 57.2586 43.1063 57.665 43.6426C57.1986 43.1696 56.6757 42.7399 56.0928 42.4467V42.4401ZM108.789 30.1821L99.7184 30.3886L98.8591 31.5845L98.7658 31.7077H98.6159L84.919 31.7443L81.4981 31.7543L80.2156 31.7443H80.1157L80.0557 31.7343H80.0291L80.0158 31.7377C79.9958 31.7344 79.9825 31.721 79.9825 31.721C79.9292 31.6911 79.8259 31.6244 79.6627 31.5112C79.6327 31.4612 79.6094 31.3979 79.5827 31.3513C79.3529 30.9116 78.9732 30.5619 78.5302 30.3553C78.0638 30.1788 77.5109 30.0322 76.9679 29.939C76.4217 29.8424 75.8687 29.7824 75.3058 29.7491C74.1866 29.6825 73.0574 29.7125 71.9448 29.8024L71.735 29.8224L71.6251 29.8324H71.6117C71.6117 29.8324 71.6151 29.8357 71.6217 29.8424L71.5918 29.8257L71.5784 29.8124C71.5251 29.7924 71.4285 29.7324 71.2553 29.6392L71.2453 29.6225L71.2253 29.5792C71.1754 29.4693 71.1088 29.3694 71.0288 29.2761C70.8789 29.0862 70.6924 28.9263 70.4825 28.8098C70.2594 28.6965 70.0595 28.6332 69.773 28.5999L68.947 28.4966C68.3874 28.42 67.8178 28.4001 67.2548 28.3468L65.5527 28.2602C63.2843 28.1735 61.0059 28.1602 58.7276 28.1636C54.1708 28.2002 49.6074 28.3068 45.0439 28.46C47.319 28.2635 49.5974 28.1203 51.8758 27.9903C54.1541 27.8504 56.4325 27.7605 58.7176 27.7006C60.9959 27.6339 63.2877 27.6006 65.5727 27.6406C66.149 27.6606 66.7186 27.6839 67.2915 27.7039C67.8611 27.7505 68.4407 27.7738 69.0169 27.8438L69.8763 27.947C70.0162 27.9637 70.1794 27.9937 70.3426 28.0336C70.4992 28.0836 70.6524 28.1469 70.7957 28.2235C71.0921 28.3834 71.3486 28.5966 71.5584 28.8497C71.6251 28.943 71.6884 29.0429 71.7483 29.1295H71.8782C73.0241 29.0163 74.1832 28.983 75.3424 29.0463C75.922 29.0729 76.5016 29.1295 77.0845 29.2261C77.6674 29.3194 78.227 29.4526 78.82 29.6925C79.4162 29.9556 79.9158 30.4186 80.229 30.9882H80.632H81.4947L84.909 31.0082L98.4493 31.0881L99.3254 29.9223L99.412 29.809H108.772C111.847 29.8357 114.918 29.8357 118.002 29.8857C114.928 30.0022 111.85 30.0789 108.772 30.1755L108.789 30.1821Z" fill="white"/>
<path d="M80.2523 76.3627C75.6389 76.1462 72.3246 74.9004 70.3093 72.632C68.2941 70.3636 67.7212 67.3757 68.5939 63.6717C70.0462 57.6426 72.5877 49.1087 76.2218 38.0665C81.6679 37.9233 87.4905 37.83 93.6827 37.7934C99.875 37.7568 103.462 37.7768 104.442 37.8467C108.762 38.0299 111.687 39.1991 113.212 41.3609C114.738 43.5227 115.028 46.4173 114.085 50.0514C113.902 50.7775 113.632 51.6502 113.269 52.6662H103.626L104.172 50.7609C104.682 49.2353 104.698 48.0628 104.225 47.2467C103.752 46.4306 102.716 46.0209 101.121 46.0209H83.5799L78.8399 62.5258C77.824 66.0866 79.0198 67.8654 82.4341 67.8654H94.692C97.7798 67.8654 99.7751 66.2865 100.684 63.1254L101.61 59.911H111.417L110.108 64.4878C109.055 68.0819 107.23 70.9066 104.632 72.9584C102.033 75.0103 98.4494 76.1262 93.8726 76.3094C92.347 76.3827 90.042 76.4193 86.9542 76.4193C83.8664 76.4193 81.6346 76.3993 80.2523 76.366V76.3627Z" fill="white"/>
<path d="M102.04 63.5155C100.958 67.2828 98.416 69.278 94.692 69.278H82.434C80.3355 69.278 78.8199 68.6751 77.9239 67.4893C76.9746 66.2335 76.828 64.4348 77.4809 62.1398L77.754 61.1904H70.679C70.4192 62.1797 70.1794 63.1224 69.9695 63.9984C69.2034 67.2595 69.6598 69.7777 71.3685 71.6996C73.114 73.6649 76.1252 74.7608 80.2922 74.9573C81.6712 74.994 83.913 75.0106 86.9575 75.0106C90.002 75.0106 92.307 74.974 93.8193 74.904C98.0696 74.7375 101.414 73.7115 103.759 71.8562C106.107 70.0008 107.789 67.3894 108.752 64.105L109.545 61.327H102.673L102.04 63.5188V63.5155Z" fill="white"/>
<path d="M120.783 48.9623H141.322C144.263 48.9623 146.462 49.5985 147.914 50.8676C149.366 52.1401 149.839 53.9921 149.33 56.4237C148.387 60.4541 146.515 67.0461 143.72 76.1996H118.662C117.353 76.1996 116.237 76.0198 115.311 75.6534C114.385 75.2903 113.705 74.8173 113.269 74.2377C112.832 73.6581 112.533 73.0652 112.369 72.4689C112.206 71.8727 112.16 71.2631 112.233 70.6436C112.306 69.9907 112.523 69.0381 112.886 67.7823C113.249 66.5298 113.595 65.5039 113.922 64.7045C114.684 62.9257 115.7 61.6167 116.973 60.7806C118.242 59.9445 119.934 59.5281 122.039 59.5281H133.698C134.607 59.5281 135.376 59.6281 136.013 59.8279C136.649 60.0278 137.165 60.3442 137.565 60.7806C137.965 61.2169 138.238 61.7799 138.381 62.4694H138.597L139.577 58.8753C140.193 56.8067 139.414 55.7708 137.235 55.7708H128.245C124.031 55.7708 120.927 55.6809 118.928 55.4977L120.78 48.959L120.783 48.9623ZM136.472 69.7709L137.288 66.8829C137.761 65.3207 137.162 64.5412 135.49 64.5412H124.921C123.611 64.5412 122.759 65.1941 122.359 66.5032L121.923 67.9189C121.776 68.5018 121.813 68.9548 122.033 69.2812C122.249 69.6077 122.669 69.7709 123.285 69.7709H136.469H136.472Z" fill="white"/>
<path d="M140.409 61.1875L139.673 63.8856H137.948C138.091 64.0088 138.221 64.1487 138.334 64.302C138.904 65.0681 139.007 66.0774 138.644 67.2699L137.535 71.1837H123.285C121.896 71.1837 121.196 70.5742 120.857 70.0645C120.41 69.395 120.307 68.5556 120.554 67.5763L121.01 66.0907C121.593 64.1821 122.982 63.1295 124.92 63.1295H135.49C136.119 63.1295 136.665 63.2194 137.128 63.3993L136.995 62.7631C136.902 62.32 136.745 61.9836 136.519 61.7371C136.292 61.4906 135.993 61.3107 135.606 61.1875H119.668C118.921 61.3574 118.275 61.6139 117.746 61.9636C116.716 62.6398 115.867 63.749 115.227 65.2413C114.918 65.9974 114.588 66.9867 114.241 68.1792C113.818 69.6315 113.678 70.4076 113.635 70.8107C113.582 71.2537 113.615 71.6734 113.732 72.0998C113.848 72.5228 114.072 72.9592 114.398 73.3955C114.671 73.7619 115.154 74.0817 115.827 74.3448C116.583 74.6413 117.536 74.7912 118.662 74.7912H142.675C144.347 69.2984 145.672 64.7483 146.648 61.1875H140.413H140.409Z" fill="white"/>
<path d="M148.077 76.1996C148.877 72.932 150.129 68.3919 151.835 62.5793C153.47 56.8767 154.813 52.3366 155.865 48.959H164.256L163.82 53.2093H163.983C164.746 51.7936 165.645 50.741 166.681 50.0482C167.717 49.3587 168.996 48.9756 170.521 48.9057C172.553 48.7958 174.915 48.7958 177.603 48.9057C179.309 48.979 180.698 49.432 181.77 50.2681C182.843 51.1041 183.506 52.23 183.759 53.6457C184.448 52.2666 185.467 51.1474 186.81 50.2947C188.152 49.442 189.731 48.979 191.55 48.9057C194.345 48.7958 199.704 48.8158 207.622 48.959C205.66 56.6935 203.045 65.7737 199.777 76.1963H190.517L196.346 55.7142H187.359C185.434 55.7142 184.165 56.7868 183.546 58.9286L178.589 76.1963H169.329L174.232 58.9286C174.848 56.7868 174.139 55.7142 172.107 55.7142H166.168C164.206 55.7142 162.933 56.7868 162.354 58.9286L157.397 76.1963H148.081L148.077 76.1996Z" fill="white"/>
<path d="M175.052 61.1875L171.191 74.7878H177.52L181.424 61.1875H175.052Z" fill="white"/>
<path d="M153.703 61.1869C153.534 61.7698 153.364 62.3661 153.187 62.979C151.782 67.7656 150.672 71.7294 149.886 74.7873H156.328L160.232 61.1836H153.703V61.1869Z" fill="white"/>
<path d="M196.253 61.1875L192.383 74.7912H198.738C200.24 69.9779 201.603 65.4411 202.829 61.1875H196.253Z" fill="white"/>
<path d="M214.101 76.1988C211.159 76.1255 209.024 75.3094 207.698 73.7472C206.373 72.185 205.963 70.2597 206.473 67.9713C207.415 63.7943 209.234 57.4588 211.919 48.9581C221.179 48.7783 229.296 48.7783 236.271 48.9581C238.267 48.9948 239.912 49.4045 241.201 50.1839C242.49 50.9667 243.353 51.9627 243.789 53.1785C244.226 54.3943 244.262 55.75 243.899 57.2356C242.953 61.1961 241.957 64.7169 240.905 67.8048C240.542 68.8573 240.089 69.83 239.542 70.7193C238.999 71.6087 238.317 72.4814 237.501 73.3342C236.684 74.1869 235.649 74.8698 234.396 75.3761C233.144 75.8857 231.735 76.1588 230.172 76.1921C224.796 76.3354 219.44 76.3354 214.101 76.1921V76.1988ZM218.404 69.4436H227.937C229.969 69.4436 231.315 68.3377 231.968 66.1193L233.983 59.0377C234.636 56.8226 233.93 55.7133 231.858 55.7133H219.274L216.276 66.1193C215.623 68.3344 216.329 69.4436 218.401 69.4436H218.404Z" fill="white"/>
<path d="M234.842 61.1869L233.324 66.5231C232.497 69.3178 230.585 70.8567 227.937 70.8567H218.404C216.962 70.8567 215.899 70.417 215.25 69.5476C214.557 68.6216 214.447 67.3359 214.923 65.7304L216.232 61.1836H209.7C208.901 64.0083 208.281 66.3832 207.852 68.2786C207.442 70.1272 207.742 71.6162 208.778 72.832C209.827 74.0678 211.629 74.724 214.14 74.7873C216.785 74.8605 219.47 74.8938 222.125 74.8938C224.78 74.8938 227.474 74.8572 230.142 74.7873C231.525 74.7539 232.777 74.5141 233.866 74.0744C234.929 73.6447 235.808 73.0685 236.481 72.3623C237.224 71.5862 237.85 70.7868 238.34 69.9873C238.83 69.1879 239.243 68.3019 239.569 67.3525C240.209 65.4772 240.835 63.4153 241.441 61.1836H234.842V61.1869Z" fill="white"/>
<path d="M98.1562 88.5502C98.3994 87.6342 98.7458 86.385 99.1955 84.7995L100.311 81.0488H108.459C108.409 81.2553 108.186 82.1014 107.796 83.5904C107.59 84.3765 107.186 85.0327 106.59 85.559C105.994 86.0853 105.304 86.3484 104.528 86.3484H101.204L100.571 88.5568H98.1596L98.1562 88.5502ZM101.587 85.0127H101.63C101.81 84.7629 101.994 84.583 102.183 84.4764C102.373 84.3698 102.59 84.3165 102.833 84.3165H104.515C104.921 84.3165 105.188 84.11 105.308 83.6936L105.481 83.0607H102.147L101.59 85.0127H101.587Z" fill="white"/>
<path d="M107.01 88.5502C107.253 87.6342 107.6 86.385 108.049 84.7995L109.165 81.0488H117.699C117.606 81.4552 117.423 82.1414 117.153 83.1074C117.046 83.4704 116.89 83.7935 116.686 84.0667C116.483 84.3432 116.28 84.543 116.077 84.6729C115.874 84.8028 115.677 84.8795 115.494 84.9094C115.88 85.046 116.143 85.2392 116.287 85.4923C116.43 85.7455 116.443 86.0819 116.33 86.495L115.73 88.5535H113.309L113.739 87.0746C113.795 86.868 113.785 86.7148 113.712 86.6182C113.639 86.5216 113.472 86.475 113.212 86.475H110.028L109.428 88.5535H107.017L107.01 88.5502ZM110.408 85.1326H110.451C110.571 84.9694 110.694 84.8395 110.814 84.7429C110.934 84.6463 111.064 84.5763 111.2 84.533C111.337 84.4897 111.487 84.4697 111.65 84.4697H113.622C114.072 84.4697 114.368 84.2299 114.511 83.7503L114.695 83.0741H110.997L110.408 85.1326Z" fill="white"/>
<path d="M116.4 88.5502C116.643 87.6442 116.99 86.3917 117.439 84.7995L118.555 81.0488H126.07L125.533 82.9242C124.624 82.9442 123.502 82.9575 122.156 82.9575H120.42L119.947 84.5963H119.991C120.127 84.3898 120.261 84.2266 120.397 84.11C120.534 83.9934 120.67 83.9135 120.803 83.8702C120.94 83.8269 121.097 83.8069 121.277 83.8069H121.899C123.122 83.8069 124.151 83.8135 124.987 83.8269L124.474 85.6056C123.631 85.6189 122.599 85.6256 121.376 85.6256H119.651L119.395 86.5249H121.173C122.516 86.5249 123.635 86.5349 124.528 86.5583L123.958 88.5535H116.4V88.5502Z" fill="white"/>
<path d="M126.873 81.0498C129.631 80.9865 131.506 80.9698 132.502 81.0065C132.875 81.0198 133.201 81.0698 133.481 81.1564C133.764 81.243 133.987 81.3529 134.151 81.4895C134.314 81.626 134.45 81.7759 134.554 81.9458C134.657 82.1157 134.714 82.2856 134.72 82.4654C134.727 82.6453 134.717 82.8219 134.687 83.0017C134.667 83.1083 134.624 83.2582 134.557 83.4514H132.165L132.185 83.3648C132.242 83.1583 132.235 83.0151 132.165 82.9351C132.095 82.8552 131.959 82.8185 131.759 82.8185H128.638L128.498 83.1816C128.418 83.4015 128.458 83.5613 128.615 83.6579C128.771 83.7545 129.011 83.8012 129.334 83.8012H132.036C132.455 83.8012 132.815 83.8578 133.111 83.971C133.408 84.0843 133.628 84.2275 133.774 84.3941C133.921 84.5606 134.024 84.7605 134.084 84.9903C134.144 85.2202 134.171 85.4333 134.164 85.6265C134.157 85.8231 134.127 86.0163 134.077 86.2094C134.014 86.4892 133.901 86.7557 133.744 87.0089C133.588 87.262 133.385 87.5085 133.138 87.7484C132.892 87.9882 132.578 88.1814 132.195 88.3313C131.812 88.4812 131.389 88.5678 130.926 88.5878C130.663 88.5944 130.11 88.5978 129.271 88.5978C128.431 88.5978 127.858 88.5944 127.549 88.5878C126.556 88.5511 125.837 88.3379 125.394 87.9449C124.951 87.5518 124.841 86.9756 125.06 86.2194C125.074 86.1562 125.097 86.0862 125.124 86.0163H127.545L127.459 86.326C127.415 86.4693 127.419 86.5725 127.469 86.6325C127.519 86.6924 127.625 86.7224 127.792 86.7224H130.923C131.289 86.7224 131.519 86.5525 131.619 86.2094C131.662 86.0529 131.652 85.933 131.589 85.8497C131.526 85.7664 131.413 85.7265 131.256 85.7265H128.255C127.805 85.7265 127.422 85.6732 127.102 85.5699C126.786 85.4666 126.546 85.3334 126.383 85.1735C126.223 85.0136 126.106 84.8204 126.036 84.6006C125.963 84.3808 125.937 84.1609 125.95 83.9477C125.963 83.7345 126.003 83.5114 126.066 83.2815C126.23 82.682 126.496 81.9358 126.859 81.0398L126.873 81.0498Z" fill="white"/>
<path d="M136.262 81.0498C139.021 80.9865 140.896 80.9698 141.892 81.0065C142.265 81.0198 142.591 81.0698 142.871 81.1564C143.154 81.243 143.377 81.3529 143.541 81.4895C143.704 81.626 143.84 81.7759 143.944 81.9458C144.047 82.1157 144.104 82.2856 144.11 82.4654C144.117 82.6453 144.107 82.8219 144.077 83.0017C144.057 83.1083 144.014 83.2582 143.947 83.4514H141.555L141.575 83.3648C141.632 83.1583 141.625 83.0151 141.555 82.9351C141.485 82.8552 141.349 82.8185 141.149 82.8185H138.028L137.888 83.1816C137.808 83.4015 137.848 83.5613 138.005 83.6579C138.161 83.7545 138.401 83.8012 138.724 83.8012H141.425C141.845 83.8012 142.205 83.8578 142.501 83.971C142.798 84.0843 143.018 84.2275 143.164 84.3941C143.311 84.5606 143.414 84.7605 143.474 84.9903C143.534 85.2202 143.561 85.4333 143.554 85.6265C143.547 85.8231 143.517 86.0163 143.467 86.2094C143.404 86.4892 143.291 86.7557 143.134 87.0089C142.978 87.262 142.775 87.5085 142.528 87.7484C142.282 87.9882 141.968 88.1814 141.585 88.3313C141.202 88.4812 140.779 88.5678 140.316 88.5878C140.053 88.5944 139.5 88.5978 138.661 88.5978C137.821 88.5978 137.248 88.5944 136.939 88.5878C135.946 88.5511 135.227 88.3379 134.784 87.9449C134.341 87.5518 134.231 86.9756 134.45 86.2194C134.464 86.1562 134.487 86.0862 134.514 86.0163H136.935L136.849 86.326C136.805 86.4693 136.809 86.5725 136.859 86.6325C136.909 86.6924 137.015 86.7224 137.182 86.7224H140.313C140.679 86.7224 140.909 86.5525 141.009 86.2094C141.052 86.0529 141.042 85.933 140.979 85.8497C140.916 85.7664 140.803 85.7265 140.646 85.7265H137.645C137.195 85.7265 136.812 85.6732 136.492 85.5699C136.176 85.4666 135.936 85.3334 135.773 85.1735C135.613 85.0136 135.496 84.8204 135.426 84.6006C135.353 84.3808 135.326 84.1609 135.34 83.9477C135.353 83.7345 135.393 83.5114 135.456 83.2815C135.62 82.682 135.886 81.9358 136.249 81.0398L136.262 81.0498Z" fill="white"/>
<path d="M143.477 88.5502C143.641 87.9206 143.987 86.6715 144.517 84.7995C144.923 83.3472 145.299 82.0981 145.642 81.0488H148.021L146.242 87.2544H146.295C146.375 87.1312 146.452 87.0279 146.532 86.938C146.612 86.848 146.688 86.7748 146.768 86.7115C146.848 86.6482 146.932 86.6016 147.025 86.5682C147.118 86.5316 147.211 86.5083 147.308 86.4916C147.405 86.4783 147.514 86.4717 147.634 86.4717H149.78C150.003 86.4717 150.176 86.4217 150.299 86.3284C150.426 86.2318 150.516 86.0786 150.572 85.8721L151.955 81.0488H154.313C153.877 82.8209 153.41 84.5164 152.907 86.1286C152.664 86.9213 152.234 87.5242 151.615 87.934C150.995 88.3437 150.133 88.5502 149.027 88.5502H143.474H143.477Z" fill="white"/>
<path d="M152.954 88.5502C153.197 87.6342 153.544 86.385 153.993 84.7995L155.109 81.0488H163.643C163.55 81.4552 163.367 82.1414 163.097 83.1074C162.99 83.4704 162.834 83.7935 162.63 84.0667C162.427 84.3432 162.224 84.543 162.021 84.6729C161.818 84.8028 161.621 84.8795 161.438 84.9094C161.824 85.046 162.088 85.2392 162.231 85.4923C162.374 85.7455 162.387 86.0819 162.274 86.495L161.674 88.5535H159.253L159.683 87.0746C159.739 86.868 159.733 86.7148 159.656 86.6182C159.579 86.5216 159.416 86.475 159.156 86.475H155.972L155.372 88.5535H152.961L152.954 88.5502ZM156.352 85.1326H156.395C156.518 84.9694 156.638 84.8395 156.758 84.7429C156.881 84.6463 157.008 84.5763 157.144 84.533C157.281 84.4897 157.431 84.4697 157.594 84.4697H159.566C160.016 84.4697 160.312 84.2299 160.455 83.7503L160.639 83.0741H156.941L156.352 85.1326Z" fill="white"/>
<path d="M162.347 88.5502C162.59 87.6442 162.937 86.3917 163.387 84.7995L164.502 81.0488H172.017L171.481 82.9242C170.575 82.9442 169.449 82.9575 168.103 82.9575H166.368L165.895 84.5963H165.938C166.075 84.3898 166.208 84.2266 166.344 84.11C166.481 83.9934 166.614 83.9135 166.751 83.8702C166.887 83.8269 167.044 83.8069 167.224 83.8069H167.847C169.069 83.8069 170.098 83.8135 170.935 83.8269L170.422 85.6056C169.579 85.6189 168.546 85.6256 167.324 85.6256H165.598L165.342 86.5249H167.121C168.463 86.5249 169.582 86.5349 170.475 86.5583L169.909 88.5535H162.351L162.347 88.5502Z" fill="white"/>
<path d="M175.198 88.5506C174.718 85.656 174.335 83.1544 174.052 81.0459H176.69L177.26 85.5594L177.313 85.5161C177.407 85.193 177.52 84.9365 177.656 84.7433L180.175 81.0459H182.147L182.703 85.5594L182.756 85.5161C182.836 85.2296 182.953 84.9731 183.109 84.7433L185.607 81.0459H188.535L183.089 88.5506H180.944C180.894 88.3008 180.851 88.0409 180.811 87.7745C180.771 87.508 180.731 87.2249 180.688 86.9317C180.644 86.6386 180.604 86.3655 180.571 86.1123C180.534 85.8592 180.491 85.5427 180.441 85.1696C180.391 84.7932 180.348 84.4635 180.311 84.177L180.258 84.2203C180.221 84.4935 180.115 84.7533 179.935 85.0031C179.199 86.0823 178.346 87.2648 177.373 88.5506H175.198Z" fill="white"/>
<path d="M184.322 88.5506L190.947 81.0459H193.049L195.374 88.5506H192.586L192.286 87.4347H188.232L187.3 88.5506H184.318H184.322ZM191.267 83.7074L189.391 85.9058L189.425 85.9258C189.581 85.7626 189.728 85.6493 189.864 85.5927C190.001 85.5361 190.148 85.5061 190.304 85.5061H191.913L191.4 83.704H191.27L191.267 83.7074Z" fill="white"/>
<path d="M197.312 81.0498C200.071 80.9865 201.946 80.9698 202.942 81.0065C203.315 81.0198 203.641 81.0698 203.921 81.1564C204.204 81.243 204.427 81.3529 204.591 81.4895C204.754 81.626 204.89 81.7759 204.994 81.9458C205.097 82.1157 205.154 82.2856 205.16 82.4654C205.167 82.6453 205.157 82.8219 205.127 83.0017C205.107 83.1083 205.064 83.2582 204.997 83.4514H202.605L202.625 83.3648C202.682 83.1583 202.675 83.0151 202.605 82.9351C202.535 82.8552 202.399 82.8185 202.199 82.8185H199.078L198.938 83.1816C198.858 83.4015 198.898 83.5613 199.055 83.6579C199.211 83.7545 199.451 83.8012 199.774 83.8012H202.475C202.895 83.8012 203.255 83.8578 203.551 83.971C203.848 84.0843 204.068 84.2275 204.214 84.3941C204.361 84.5606 204.464 84.7605 204.524 84.9903C204.584 85.2202 204.611 85.4333 204.604 85.6265C204.597 85.8231 204.567 86.0163 204.517 86.2094C204.454 86.4892 204.341 86.7557 204.184 87.0089C204.028 87.262 203.825 87.5085 203.578 87.7484C203.332 87.9882 203.018 88.1814 202.635 88.3313C202.252 88.4812 201.829 88.5678 201.366 88.5878C201.103 88.5944 200.55 88.5978 199.711 88.5978C198.871 88.5978 198.298 88.5944 197.989 88.5878C196.996 88.5511 196.277 88.3379 195.834 87.9449C195.391 87.5518 195.281 86.9756 195.5 86.2194C195.514 86.1562 195.537 86.0862 195.564 86.0163H197.985L197.899 86.326C197.855 86.4693 197.859 86.5725 197.909 86.6325C197.959 86.6924 198.065 86.7224 198.232 86.7224H201.363C201.729 86.7224 201.959 86.5525 202.059 86.2094C202.102 86.0529 202.092 85.933 202.029 85.8497C201.966 85.7664 201.853 85.7265 201.696 85.7265H198.695C198.245 85.7265 197.862 85.6732 197.542 85.5699C197.226 85.4666 196.986 85.3334 196.823 85.1735C196.663 85.0136 196.546 84.8204 196.476 84.6006C196.403 84.3808 196.376 84.1609 196.39 83.9477C196.403 83.7345 196.443 83.5114 196.506 83.2815C196.67 82.682 196.936 81.9358 197.299 81.0398L197.312 81.0498Z" fill="white"/>
<path d="M204.517 88.5502C204.761 87.6442 205.107 86.3917 205.557 84.7995L206.673 81.0488H209.084L208.075 84.5763H208.118C208.311 84.2266 208.515 83.9834 208.731 83.8535C208.944 83.7203 209.204 83.657 209.504 83.657H212.335L213.075 81.0522H215.496C215.296 81.795 214.947 83.0474 214.447 84.8028L213.341 88.5535H210.93L211.746 85.6922H207.758L206.932 88.5535H204.521L204.517 88.5502Z" fill="white"/>
<path d="M214.134 88.5502C214.37 87.6442 214.717 86.3917 215.173 84.7995L216.279 81.0488H218.657C218.458 81.7916 218.108 83.0441 217.608 84.7995L216.502 88.5502H214.134Z" fill="white"/>
<path d="M217.295 88.5502C217.538 87.6442 217.885 86.3917 218.334 84.7995L219.45 81.0488H221.542L224.693 85.7022L224.746 85.6589C224.61 85.1859 224.613 84.7129 224.756 84.2332L225.656 81.0488H228.077C227.877 81.7916 227.528 83.0441 227.028 84.7995L225.922 88.5502H223.834L220.669 83.8668L220.616 83.9101C220.766 84.3731 220.776 84.8361 220.649 85.2925L219.707 88.5502H217.295Z" fill="white"/>
<path d="M228.893 81.0498C230.079 81.0198 231.362 81.0032 232.737 80.9965C234.113 80.9898 234.929 80.9932 235.189 81.0065C236.102 81.0431 236.724 81.2563 237.054 81.6427C237.384 82.0324 237.454 82.5521 237.267 83.2016L237.181 83.4681H234.706L234.726 83.3715C234.753 83.3082 234.766 83.2482 234.756 83.1949C234.749 83.1416 234.729 83.095 234.696 83.055C234.663 83.0151 234.609 82.9851 234.536 82.9651C234.463 82.9451 234.369 82.9318 234.263 82.9318H230.715L229.859 85.923C229.796 86.1528 229.799 86.3227 229.869 86.436C229.939 86.5492 230.099 86.6058 230.342 86.6058H233.02C233.284 86.6058 233.517 86.5425 233.717 86.4193C233.916 86.2927 234.05 86.1229 234.113 85.9097L234.273 85.3201H234.23C233.96 85.6765 233.597 85.8564 233.147 85.8564H232.867C232.401 85.8564 231.925 85.8464 231.432 85.8231L231.935 84.021C232.477 84.0077 233.04 84.001 233.627 84.001H237.068L236.468 86.1462C236.261 86.8623 235.872 87.4353 235.299 87.8716C234.726 88.308 233.966 88.5445 233.014 88.5778C232.694 88.5911 232.171 88.5978 231.448 88.5944C230.725 88.5911 230.222 88.5844 229.936 88.5778C228.97 88.5278 228.26 88.278 227.801 87.8317C227.344 87.3853 227.201 86.789 227.371 86.0462C227.484 85.5533 227.701 84.7805 228.021 83.7312C228.337 82.682 228.627 81.7826 228.883 81.0398L228.893 81.0498Z" fill="white"/>
</svg>
