<svg width="52" height="52" viewBox="0 0 52 52" fill="none" xmlns="http://www.w3.org/2000/svg">
<path d="M29.1281 15.4133L28.9656 15.2508C28.6488 14.934 28.1369 14.934 27.82 15.2508L21.3769 21.6858L18.4681 21.4177C17.9644 21.369 17.4688 21.5477 17.1194 21.9052L7.49938 31.5171C6.83313 32.1833 6.83313 33.2477 7.49938 33.914L8.58813 35.0027C8.88876 35.3033 9.27876 35.474 9.70126 35.4983L11.5456 35.5958C12.2281 35.6283 12.8213 36.0752 13.0488 36.7252L16.4369 46.3777C17.3144 48.8721 20.4913 49.5952 22.36 47.7265L31.265 38.8215C32.2888 37.7977 32.5975 36.2621 32.0531 34.9215L27.9744 24.9765L32.76 20.1908C33.0769 19.874 33.0769 19.3621 32.76 19.0452L29.1281 15.4133ZM28.9738 36.3352L20.6294 44.6796L17.42 35.539L19.0044 33.9546C19.4756 34.6696 20.4994 35.6446 21.8725 35.6446C22.1244 35.6446 22.3925 35.6121 22.6606 35.539C23.0913 35.4252 23.3513 34.9783 23.2375 34.5477C23.1238 34.1171 22.6769 33.8571 22.2463 33.9708C21.0763 34.2796 20.3288 33.0121 20.2963 32.9633C20.2638 32.8983 20.2069 32.8577 20.1581 32.809L25.3906 27.5765L28.9738 36.3433V36.3352Z" fill="white"/>
<path d="M44.4681 5.50071L42.5019 3.53446C42.2012 3.23383 41.7219 3.20133 41.3806 3.46946L37.8706 6.22383C37.4725 6.54071 37.44 7.12571 37.7975 7.48321L38.0331 7.71883L34.0275 11.7245C34.0681 11.7651 34.1169 11.7895 34.1575 11.8301L36.1725 13.8451C36.1725 13.8451 36.2375 13.9345 36.2781 13.9751L40.2837 9.96946L40.5194 10.2051C40.8769 10.5626 41.47 10.5301 41.7787 10.132L44.5331 6.62195C44.8012 6.28883 44.7687 5.80133 44.4681 5.50071Z" fill="white"/>
<path d="M33.0119 12.9837C32.6137 12.5855 31.9556 12.5855 31.5575 12.9837L30.2737 14.2674L33.7431 17.7368L35.0269 16.453C35.425 16.0549 35.425 15.3968 35.0269 14.9987L33.0119 12.9837Z" fill="white"/>
</svg>
