<svg width="49" height="29" viewBox="0 0 49 29" fill="none" xmlns="http://www.w3.org/2000/svg">
<path fill-rule="evenodd" clip-rule="evenodd" d="M9.23267 3.99162C11.6217 3.99162 13.5632 5.93071 13.5632 8.32893C13.5632 10.7271 11.6271 12.6662 9.23267 12.6662C6.83821 12.6662 4.90216 10.7271 4.90216 8.32893C4.90216 5.93071 6.83821 3.99162 9.23267 3.99162ZM24.5 13.6493C31.4191 13.6493 37.0817 19.3207 37.0817 26.2507V27.1689C37.0817 28.179 36.2619 29 35.2535 29H13.7411C12.7327 29 11.9129 28.179 11.9129 27.1689V26.2507C11.9129 19.3207 17.5755 13.6493 24.4946 13.6493H24.5ZM24.5 0C27.7573 0 30.3945 2.64127 30.3945 5.90371C30.3945 9.16614 27.7573 11.8074 24.5 11.8074C21.2427 11.8074 18.6055 9.16614 18.6055 5.90371C18.6055 2.64127 21.2427 0 24.5 0ZM39.7619 3.98622C42.151 3.98622 44.0924 5.92531 44.0924 8.32352C44.0924 10.7217 42.1564 12.6608 39.7619 12.6608C37.3675 12.6608 35.4314 10.7217 35.4314 8.32352C35.4314 5.92531 37.3675 3.98622 39.7619 3.98622ZM9.23806 13.7465C4.15793 13.7465 0 17.911 0 22.9991V23.6742C0 24.4142 0.604006 25.0192 1.34284 25.0192H10.7481C11.0663 21.4597 12.7488 18.2729 15.2619 15.9989C13.6441 14.5999 11.5354 13.7465 9.23806 13.7465ZM39.7619 13.7465C37.4646 13.7465 35.3613 14.5945 33.7381 15.9989C36.2512 18.2729 37.9337 21.4597 38.2519 25.0192H47.6572C48.396 25.0192 49 24.4142 49 23.6742V22.9991C49 17.911 44.8421 13.7465 39.7619 13.7465Z" fill="white"/>
</svg>
