<svg width="36" height="46" viewBox="0 0 36 46" fill="none" xmlns="http://www.w3.org/2000/svg">
<path d="M33.9719 13.208C33.6882 12.8789 33.4741 12.4957 33.3426 12.0816C33.2111 11.6675 33.1648 11.2311 33.2066 10.7986C33.3289 9.36234 32.9331 7.92974 32.0909 6.75995C31.2486 5.59017 30.0155 4.76045 28.6146 4.42089H28.5296C27.6919 4.21151 26.9695 3.68242 26.5171 2.94693C25.7715 1.69305 24.5965 0.752109 23.21 0.298627C21.8235 -0.154854 20.3196 -0.0900998 18.9772 0.480881C18.5829 0.64921 18.1587 0.735988 17.73 0.735988C17.3013 0.735988 16.8771 0.64921 16.4828 0.480881C15.1401 -0.0878778 13.637 -0.151485 12.251 0.30181C10.8651 0.755105 9.69003 1.69467 8.94293 2.94693C8.49054 3.68242 7.76813 4.21151 6.93041 4.42089H6.84538C5.44047 4.76326 4.20477 5.59773 3.36232 6.773C2.51987 7.94827 2.12646 9.38651 2.25343 10.8269C2.25343 10.9403 2.28177 11.0254 2.28177 11.1387C2.27681 11.9019 1.99476 12.6372 1.4881 13.208C0.528873 14.3019 0 15.7072 0 17.1621C0 18.6171 0.528873 20.0224 1.4881 21.1163C1.7696 21.4411 1.98251 21.8194 2.11404 22.2286C2.24556 22.6378 2.29297 23.0694 2.25343 23.4973C2.12483 24.9505 2.5281 26.4009 3.3883 27.5791C4.24851 28.7573 5.50716 29.5832 6.93041 29.9034C7.36525 30.0144 7.77122 30.2174 8.12092 30.4986C8.45072 30.7339 8.7302 31.0326 8.94293 31.3773C9.43291 32.2075 10.1253 32.8999 10.9555 33.3899C11.7731 33.9039 12.7036 34.2113 13.6666 34.2853C14.6296 34.3594 15.5961 34.198 16.4828 33.815C16.8771 33.6467 17.3013 33.56 17.73 33.56C18.1587 33.56 18.5829 33.6467 18.9772 33.815C19.8599 34.2094 20.8264 34.3795 21.7907 34.3103C22.755 34.2411 23.6872 33.9346 24.5045 33.4182C25.3297 32.9096 26.02 32.2095 26.5171 31.3773C26.9933 30.6521 27.7197 30.1274 28.5579 29.9034C29.9755 29.5766 31.227 28.748 32.0814 27.5706C32.9359 26.3931 33.3355 24.9464 33.2066 23.4973C33.167 23.0694 33.2144 22.6378 33.346 22.2286C33.4775 21.8194 33.6904 21.4411 33.9719 21.1163C34.9311 20.0224 35.46 18.6171 35.46 17.1621C35.46 15.7072 34.9311 14.3019 33.9719 13.208ZM17.73 28.4011C15.5084 28.3983 13.3374 27.7371 11.4913 26.5011C9.64526 25.265 8.20693 23.5096 7.35804 21.4565C6.50915 19.4035 6.28778 17.1449 6.72189 14.9661C7.15599 12.7872 8.22611 10.786 9.79705 9.21501C11.368 7.64407 13.3693 6.57396 15.5481 6.13985C17.7269 5.70574 19.9855 5.92711 22.0386 6.776C24.0917 7.6249 25.8471 9.06322 27.0831 10.9093C28.3191 12.7553 28.9803 14.9263 28.9831 17.148C28.9807 20.1317 27.7943 22.9926 25.6845 25.1024C23.5746 27.2122 20.7138 28.3986 17.73 28.4011ZM26.0068 35.8277C26.4795 35.5266 26.9252 35.1852 27.3391 34.8073V41.7802C27.3415 42.2499 27.2508 42.7154 27.0721 43.1498C26.8935 43.5842 26.6305 43.9789 26.2984 44.311C25.9662 44.6432 25.5716 44.9062 25.1372 45.0848C24.7028 45.2634 24.2373 45.3542 23.7676 45.3517C23.2387 45.3507 22.7164 45.2347 22.2369 45.0116L18.0418 42.9991C17.9473 42.9434 17.8397 42.9141 17.73 42.9141C17.6203 42.9141 17.5127 42.9434 17.4182 42.9991L13.2231 45.0116C12.6802 45.267 12.082 45.3826 11.483 45.348C10.884 45.3133 10.3032 45.1295 9.79329 44.8132C9.27824 44.4931 8.85399 44.0461 8.56117 43.515C8.26834 42.984 8.11676 42.3866 8.12092 41.7802V34.7789C8.52013 35.174 8.96777 35.5168 9.45315 35.7994C10.8542 36.6782 12.4763 37.1403 14.1301 37.1316C15.3942 37.123 16.645 36.8728 17.8152 36.3946C18.9192 36.8963 20.1173 37.1572 21.33 37.1599C22.9843 37.1725 24.6075 36.7101 26.0068 35.8277ZM21.9652 13.7067C22.1201 13.8099 22.2532 13.9426 22.3568 14.0973C22.4604 14.2519 22.5326 14.4254 22.5691 14.608C22.6056 14.7905 22.6057 14.9784 22.5696 15.161C22.5334 15.3436 22.4616 15.5173 22.3583 15.6721L19.9999 19.207C19.6655 19.7094 19.2128 20.1221 18.6817 20.4088C18.1506 20.6955 17.5572 20.8474 16.9536 20.8512H16.9286C16.3304 20.8515 15.741 20.7059 15.2117 20.4271C14.6823 20.1484 14.2289 19.7447 13.8906 19.2512L13.1142 18.1218C13.0088 17.9686 12.9346 17.7961 12.8958 17.6142C12.857 17.4324 12.8545 17.2446 12.8883 17.0617C12.9221 16.8788 12.9916 16.7044 13.0928 16.5484C13.194 16.3923 13.325 16.2578 13.4782 16.1524C13.6314 16.0469 13.8039 15.9727 13.9858 15.934C14.1677 15.8952 14.3554 15.8927 14.5383 15.9265C14.7212 15.9603 14.8956 16.0298 15.0517 16.131C15.2077 16.2322 15.3423 16.3631 15.4477 16.5164L16.2255 17.6457C16.3135 17.7511 16.4213 17.8381 16.5429 17.9018C16.6645 17.9654 16.7975 18.0045 16.9342 18.0167C17.0743 18.0156 17.212 17.9802 17.3353 17.9136C17.4586 17.847 17.5637 17.7512 17.6414 17.6347L19.9998 14.0998C20.103 13.9449 20.2357 13.8119 20.3904 13.7084C20.545 13.6048 20.7186 13.5327 20.9011 13.4962C21.0836 13.4597 21.2715 13.4595 21.4541 13.4956C21.6367 13.5318 21.8103 13.6035 21.9652 13.7067Z" fill="white"/>
</svg>
