<svg width="21" height="21" viewBox="0 0 21 21" fill="none" xmlns="http://www.w3.org/2000/svg">
<path d="M20.7123 10.2681C20.7123 11.7413 20.7549 13.2169 20.7011 14.6886C20.7006 15.5777 20.4902 16.4544 20.0864 17.2494C19.6825 18.0444 19.0965 18.7359 18.3746 19.269C17.6451 19.8448 16.7585 20.1939 15.8272 20.272C13.9494 20.3952 12.0668 20.4763 10.185 20.5059C8.69169 20.527 7.19596 20.4669 5.70347 20.3983C4.37664 20.3478 3.10374 19.8679 2.08152 19.0327C1.45954 18.5395 0.956834 17.9159 0.610095 17.2072C0.263355 16.4985 0.0811391 15.7226 0.0768581 14.9358C-0.00227725 11.8427 -0.0465931 8.74259 0.0768581 5.65494C0.20664 2.43237 2.24055 0.438151 5.49539 0.127748C6.71628 0.0228882 7.94192 -0.0174638 9.16719 0.00686378C11.3181 0.0294811 13.4691 0.0793914 15.6176 0.1761C16.9413 0.305666 18.1753 0.894263 19.0997 1.83698C20.0241 2.77969 20.5787 4.01526 20.6648 5.32348C20.7384 6.14472 20.7621 6.97143 20.7811 7.79579C20.8001 8.62015 20.7852 9.44607 20.7852 10.2712L20.7123 10.2681ZM2.13446 10.2681H2.08461C2.08461 10.9755 2.07828 11.6836 2.08461 12.3902C2.09331 13.1264 2.11156 13.8635 2.13214 14.5997C2.19624 16.8411 3.34133 18.1732 5.61885 18.3035C8.27067 18.4594 10.9343 18.4236 13.5925 18.4376C14.2497 18.4245 14.9049 18.3606 15.5519 18.2465C16.259 18.1761 16.9233 17.8801 17.4439 17.4034C17.9646 16.9267 18.3131 16.2955 18.4364 15.6058C18.5819 14.9733 18.6613 14.3278 18.6737 13.6794C18.6982 11.2617 18.699 8.84398 18.6634 6.42627C18.6321 5.78057 18.5349 5.13963 18.3731 4.51316C18.291 4.07421 18.0946 3.66376 17.8033 3.32199C17.512 2.98022 17.1357 2.71883 16.7111 2.5634C15.9634 2.27484 15.1739 2.1058 14.372 2.06269C11.9521 1.99406 9.52882 2.01824 7.10727 2.02916C6.53989 2.03521 5.97395 2.08554 5.41463 2.17968C4.94914 2.21321 4.49502 2.33708 4.07826 2.54416C3.6615 2.75124 3.29024 3.03746 2.98609 3.38635C2.68193 3.73525 2.45077 4.13994 2.30583 4.57718C2.16088 5.01442 2.10512 5.47558 2.1416 5.93415C2.11786 7.37542 2.13446 8.8198 2.13446 10.2642V10.2681Z" fill="white"/>
<path d="M10.3029 4.9378C11.0154 4.93039 11.7224 5.06193 12.3831 5.32486C13.0438 5.58779 13.6453 5.97691 14.1528 6.46983C14.6603 6.96274 15.0638 7.54972 15.3402 8.19696C15.6166 8.8442 15.7604 9.53893 15.7633 10.2412C15.7703 11.6288 15.2202 12.9628 14.233 13.9523C13.2458 14.9417 11.9017 15.5062 10.4937 15.5227C9.05655 15.5385 7.67087 14.9957 6.63686 14.0118C5.60286 13.0279 5.00361 11.6822 4.96915 10.2661C4.96427 8.86388 5.52247 7.51667 6.52172 6.51844C7.52096 5.5202 8.88012 4.952 10.3029 4.9378V4.9378ZM13.6607 10.2412C13.6768 9.80727 13.6025 9.37473 13.4426 8.97018C13.2826 8.56564 13.0404 8.19766 12.7306 7.88894C12.4209 7.58022 12.0502 7.33729 11.6416 7.17513C11.2329 7.01297 10.7949 6.93501 10.3545 6.94605C9.91293 6.94834 9.47632 7.03774 9.07043 7.20901C8.66455 7.38028 8.29761 7.62993 7.99121 7.94324C7.68481 8.25654 7.44511 8.62716 7.28641 9.03321C7.1277 9.43926 7.05317 9.87253 7.06712 10.3075C7.06284 10.7348 7.14626 11.1585 7.31249 11.5532C7.47872 11.9479 7.72423 12.3054 8.03429 12.6041C8.34436 12.9028 8.71265 13.1367 9.1168 13.2915C9.52095 13.4463 9.95256 13.519 10.3859 13.5051C11.2585 13.4983 12.0928 13.1513 12.7065 12.5399C13.3201 11.9286 13.6632 11.1026 13.6607 10.2427V10.2412Z" fill="white"/>
<path d="M17.2555 4.81177C17.2594 4.91852 17.2473 5.02525 17.2191 5.12841C17.1439 5.37619 16.9966 5.59687 16.7956 5.76326C16.6481 5.90133 16.4702 6.0041 16.2759 6.0636C16.0816 6.12311 15.8761 6.13775 15.6751 6.10641C15.3657 6.04348 15.0864 5.88101 14.881 5.64453C14.6756 5.40806 14.5558 5.111 14.5404 4.80007C14.5419 4.62201 14.5795 4.44604 14.6509 4.28247C14.7223 4.11891 14.826 3.97105 14.9562 3.84755C15.0863 3.72406 15.2403 3.62743 15.4088 3.56332C15.5774 3.49922 15.7572 3.46892 15.9378 3.47423C16.1487 3.49178 16.353 3.55575 16.5354 3.66141C16.7413 3.78104 16.9144 3.94832 17.0399 4.14877C17.1653 4.34921 17.2393 4.57678 17.2555 4.81177V4.81177Z" fill="white"/>
</svg>
