<svg width="40" height="40" viewBox="0 0 40 40" fill="none" xmlns="http://www.w3.org/2000/svg">
<path d="M33.7827 27.1084L34.9586 20.3088C35.2523 18.6105 33.9462 17.0572 32.2246 17.0572H23.5895C22.7336 17.0572 22.0819 16.289 22.2204 15.4435L23.3249 8.70253C23.5043 7.60741 23.4531 6.48683 23.1745 5.4127C22.9436 4.5229 22.2571 3.80841 21.3543 3.51837L21.1126 3.44075C20.567 3.26546 19.9714 3.30625 19.457 3.55415C18.8907 3.82701 18.4765 4.32472 18.3229 4.91664L17.5301 7.97307C17.2778 8.94555 16.9103 9.88425 16.4366 10.7712C15.7443 12.0671 14.674 13.1043 13.5614 14.063L11.1636 16.1293C10.4875 16.7119 10.1324 17.5844 10.2093 18.4742L11.5629 34.1286C11.6871 35.5645 12.8876 36.6668 14.3272 36.6668H22.0749C27.8771 36.6668 32.8288 32.6242 33.7827 27.1084Z" fill="white"/>
<path fill-rule="evenodd" clip-rule="evenodd" d="M4.94611 15.8083C5.61488 15.7795 6.18769 16.2826 6.24535 16.9495L7.86468 35.677C7.9687 36.88 7.02114 37.9168 5.81118 37.9168C4.67148 37.9168 3.75 36.9922 3.75 35.8547V17.0571C3.75 16.3878 4.27733 15.8372 4.94611 15.8083Z" fill="white"/>
</svg>
