<svg width="17" height="17" viewBox="0 0 17 17" fill="none" xmlns="http://www.w3.org/2000/svg">
<path d="M9.11209 16.1902H5.69449C5.63119 16.134 5.60982 16.119 5.59152 16.0977C5.57322 16.0764 5.54359 16.0579 5.53901 16.0344C5.50541 15.9053 5.48422 15.7736 5.47571 15.641C5.4813 12.4164 5.4906 9.19169 5.50382 5.96702C5.52969 5.85838 5.57034 5.75322 5.62448 5.65404C6.59839 5.65404 7.59653 5.64906 8.59484 5.65404C8.65312 5.65098 8.7115 5.65952 8.76596 5.67911C8.82041 5.69869 8.86984 5.72887 8.91082 5.76763C8.9518 5.80639 8.98331 5.85285 9.00354 5.90391C9.02378 5.95497 9.03222 6.00946 9.02812 6.06376C9.03727 6.22381 9.02812 6.38386 9.02812 6.64634C9.24243 6.50407 9.39344 6.41302 9.53606 6.30988C10.1125 5.87921 10.7946 5.58877 11.5211 5.46462C12.2476 5.34047 12.9959 5.38649 13.6986 5.59856C14.3543 5.77664 14.941 6.12716 15.3887 6.60817C15.8364 7.08918 16.1262 7.68031 16.2231 8.31084C16.3419 8.78221 16.4056 9.26423 16.413 9.74842C16.4359 11.7401 16.4259 13.7261 16.4243 15.7157C16.4134 15.8635 16.3932 16.0105 16.364 16.156H12.8367C12.8131 15.9049 12.7742 15.6759 12.7734 15.4447C12.7696 13.8585 12.7804 12.2729 12.7697 10.6874C12.7691 10.339 12.7297 9.99172 12.6522 9.65097C12.6277 9.30942 12.4593 8.99082 12.1836 8.76487C11.9079 8.53892 11.5474 8.42401 11.1811 8.44528C10.776 8.38837 10.3627 8.47452 10.0222 8.68688C9.68169 8.89923 9.4384 9.22248 9.34 9.59335C9.21902 10.0903 9.15764 10.5982 9.15697 11.1078C9.13714 12.5055 9.15697 13.9033 9.15697 15.301C9.15849 15.5656 9.13192 15.8281 9.11209 16.1902Z" fill="white"/>
<path d="M0.0999153 5.39648H4.27692C4.3816 6.29371 4.40722 7.19579 4.35369 8.09595C4.3817 8.97802 4.36997 9.86155 4.37177 10.7436C4.37177 11.6534 4.37177 12.5632 4.37177 13.4737C4.37177 14.3492 4.37177 15.2204 4.37177 16.1885C2.99662 16.1885 1.74525 16.1943 0.493881 16.1841C0.424208 16.1866 0.354596 16.1765 0.290281 16.1548C0.225965 16.133 0.168453 16.1 0.121753 16.0582C0.0750533 16.0164 0.0404676 15.9667 0.020284 15.9128C0.000100368 15.8589 -0.00511608 15.8021 0.00506357 15.7464C0.00506357 15.4159 0.0211451 15.0846 0.0220486 14.7541C0.0280721 11.8844 0.0338332 9.01596 0.0392543 6.14869C0.0374473 5.91595 0.0755203 5.67665 0.0999153 5.39648Z" fill="white"/>
<path d="M2.20558 4.31747C1.62939 4.31009 1.07824 4.08476 0.667309 3.68852C0.256375 3.29228 0.0173878 2.75571 0 2.19074C0.0214035 1.62689 0.255131 1.09085 0.656039 0.686211C1.05695 0.281576 1.59661 0.0370838 2.1706 0C2.74282 0.0403379 3.28103 0.281406 3.68691 0.679099C4.0928 1.07679 4.3391 1.60453 4.38085 2.16576C4.37 2.73002 4.1379 3.26847 3.73277 3.6692C3.32765 4.06993 2.78072 4.30211 2.20558 4.31747V4.31747Z" fill="white"/>
</svg>
