<svg width="154" height="70" viewBox="0 0 154 70" fill="none" xmlns="http://www.w3.org/2000/svg">
<path d="M60.4336 47.5478C60.4336 47.5478 59.1229 63.8519 45.8945 68.7031C45.8925 68.7052 45.8862 68.7094 45.882 68.7094C44.6383 69.1281 43.3423 69.4296 41.996 69.6181C35.3379 70.5477 29.2513 68.7827 23.5752 65.4997C13.8162 59.8528 7.23552 51.4673 3.09617 41.0823C0.849574 35.4439 -0.243363 29.5835 0.0455749 23.5095C0.298919 18.2144 1.63264 13.2145 4.75233 8.85112C7.8113 4.5715 11.7476 1.82868 16.6281 0.645711C16.6616 0.637336 16.6951 0.63106 16.7286 0.624778C17.9974 0.342122 19.195 0.162056 20.3257 0.0657437C20.3403 0.0657437 20.3571 0.0657417 20.3675 0.0636479C23.081 -0.143633 25.6773 0.172522 28.2379 0.76296C29.6282 1.15868 30.7463 1.64234 31.59 2.07575C32.8191 2.71225 33.4514 3.24406 33.4514 3.24406C31.7638 2.33118 30.0448 1.86009 28.4033 1.67584C25.2648 1.3199 22.4131 2.00665 20.5999 2.63059C20.4534 2.68293 20.311 2.73109 20.1812 2.78344C19.9865 2.85672 19.7917 2.93209 19.6012 3.00746C19.5279 3.03887 19.4588 3.06609 19.3918 3.0954C19.3793 3.10168 19.3667 3.10797 19.3562 3.11006C18.9731 3.27128 18.7197 3.3969 18.6255 3.44506C18.6004 3.45971 18.5857 3.46599 18.5857 3.46599C15.5666 4.94418 13.1504 7.23475 11.2555 10.1995C9.20574 13.4113 8.3117 16.9812 7.84689 20.7436C7.7778 21.2901 7.73174 21.8324 7.7108 22.3747C7.7108 22.3747 7.7087 22.4165 7.7087 22.5045C7.59355 25.2934 7.99764 28.0215 8.36824 30.7706C8.3808 30.8565 8.46036 30.9339 8.5483 31.0658C8.72418 31.9724 8.93983 32.9209 9.20155 33.9008C9.27692 34.2965 9.36277 34.665 9.50305 34.9874C10.6588 38.9279 12.5495 43.2745 15.6398 47.2128C20.0283 53.469 25.7003 58.3432 33.2211 61.1635C36.7155 62.4742 40.2833 63.0311 43.8824 62.5831C43.8824 62.5831 56.3486 62.2313 60.4357 47.5499L60.4336 47.5478Z" fill="url(#paint0_linear_1_337)"/>
<path d="M38.2188 69.3459C33.3906 69.3459 28.619 67.9452 23.6338 65.0621C14.4862 59.767 7.68356 51.6537 3.4144 40.9462C1.14268 35.247 0.131394 29.4222 0.405675 23.6288C0.677863 17.9275 2.18118 13.2396 5.00146 9.29499C8.01228 5.08236 11.7831 2.47774 16.5255 1.32827C16.5569 1.31989 16.5736 1.3178 16.5904 1.31361C17.7901 1.04561 18.9668 0.863452 20.1079 0.762952C20.1309 0.762952 20.1602 0.762953 20.1937 0.756671C20.7214 0.71689 21.2615 0.695957 21.7996 0.695957C23.1292 0.695957 24.5048 0.817395 25.9599 1.06236C23.5856 1.12518 21.5086 1.67583 20.1539 2.14274L20.0597 2.17623C19.9383 2.21811 19.8189 2.25999 19.7101 2.30396C19.5216 2.37514 19.3227 2.45261 19.128 2.53008L19.0589 2.55939C19.0066 2.58033 18.9563 2.60127 18.9082 2.6243L18.8705 2.63896C18.4392 2.82111 18.1691 2.95721 18.0979 2.9928L18.056 3.00536H18.0707V3.00955C15.0473 4.48983 12.4992 6.82856 10.4997 9.96081C8.6425 12.8711 7.56212 16.2002 6.9989 20.7583C6.92771 21.3194 6.87956 21.8847 6.85862 22.4354C6.85862 22.4354 6.85443 22.4919 6.85443 22.5945C6.74556 25.2326 7.10149 27.8666 7.44696 30.4126L7.51815 30.9423C7.54746 31.1517 7.65006 31.2961 7.72962 31.4029C7.90968 32.3116 8.12115 33.2266 8.36193 34.1269C8.43521 34.508 8.52525 34.9099 8.68228 35.2826C10.0662 39.9915 12.1537 44.1497 14.8861 47.6421L14.8944 47.6546C19.6829 54.4761 25.5265 59.1095 32.7604 61.8209C35.61 62.8908 38.4387 63.4331 41.1647 63.4331C42.0064 63.4331 42.8544 63.3808 43.6835 63.2803C44.0437 63.2656 47.1047 63.0856 50.6641 61.1991C52.9819 59.9701 55.8105 57.8282 58.0697 54.1432C56.357 59.1137 52.7809 65.5332 45.4402 68.2236L45.3795 68.2467C44.2049 68.6382 42.957 68.9292 41.6672 69.1093C40.522 69.2684 39.362 69.3501 38.2188 69.3501V69.3459Z" fill="url(#paint1_linear_1_337)"/>
<path d="M153.526 30.0043C154.127 29.1961 154.202 27.9231 153.486 26.9684C153.107 26.4638 152.603 26.133 151.983 25.9885C151.244 25.821 150.553 25.9613 149.897 26.3905C149.839 26.2816 149.793 26.2062 149.753 26.1246C149.424 25.5237 149.003 24.996 148.472 24.5668C148.336 24.4579 148.256 24.3449 148.233 24.1795C148.193 23.8194 148.08 23.476 147.936 23.1452C147.697 22.5945 147.372 22.1025 146.935 21.6879C146.137 20.9384 145.201 20.5008 144.106 20.4296C143.465 20.3835 142.833 20.4526 142.234 20.7143C142.067 20.7855 141.954 20.7604 141.824 20.6201C141.453 20.2328 141.003 19.9564 140.488 19.8035C139.726 19.5816 138.981 19.6088 138.246 19.9396C137.5 20.2725 136.95 20.8023 136.617 21.5497C136.59 21.6125 136.55 21.6712 136.508 21.7486C136.41 21.667 136.332 21.6084 136.255 21.5455C135.622 21.0263 134.933 20.6034 134.192 20.2642C133.344 19.8768 132.465 19.6109 131.539 19.4748C130.308 19.2906 129.086 19.3534 127.871 19.6235C127.348 19.7407 126.847 19.9208 126.351 20.1239C125.777 20.3584 125.237 20.6431 124.722 20.9802C124.136 21.3676 123.598 21.8156 123.106 22.316C122.34 23.1054 121.72 23.9994 121.255 24.996C121.188 25.1405 121.119 25.2892 121.048 25.4378C119.165 24.192 117.04 24.5166 115.66 25.7624C114.22 27.0584 113.981 29.0014 114.488 30.3204C114.226 28.3 115.265 26.5852 116.856 25.8C118.269 25.1049 119.957 25.3164 120.849 25.9634C120.763 26.2753 120.673 26.581 120.591 26.893C120.56 27.0186 120.501 27.1045 120.397 27.1861C119.963 27.519 119.611 27.9252 119.331 28.4005C118.83 29.2526 118.663 30.1781 118.776 31.1579C118.78 31.204 118.799 31.2438 118.816 31.2982C118.897 29.5165 119.651 28.122 121.234 27.3222C123.261 26.3025 125.087 26.759 126.718 28.346C126.23 27.5735 125.608 27.0186 124.823 26.6627C123.726 26.1665 122.608 26.1434 121.456 26.5726C121.469 26.5224 121.475 26.4952 121.487 26.468C121.772 25.7812 122.132 25.1468 122.566 24.5459C123.07 23.8382 123.671 23.2143 124.343 22.6678C125.237 21.9455 126.23 21.4053 127.312 21.0389C127.98 20.8127 128.671 20.6641 129.379 20.5929C130.398 20.484 131.41 20.5343 132.406 20.7457C133.633 21.0074 134.766 21.4953 135.809 22.1946C136.539 22.6824 137.18 23.2729 137.762 23.9282C137.808 23.9785 137.84 24.0413 137.884 24.1083C135.488 24.6087 134.938 26.9746 135.497 28.1827C135.587 26.7025 136.263 25.6053 137.672 25.0735C138.832 24.6401 139.914 24.8788 140.907 25.6472C140.618 26.0618 140.415 26.4952 140.262 26.9558C140.118 27.4122 140.023 27.877 140.032 28.3691C140.365 27.1924 140.97 26.1979 141.931 25.4315C142.896 24.6589 143.997 24.2758 145.224 24.2674C146.349 24.259 147.377 24.5836 148.298 25.2243C149.219 25.8608 149.877 26.7129 150.287 27.7598C150.237 27.4855 150.17 27.2175 150.084 26.9558C150.029 26.7757 150.029 26.7213 150.214 26.671C150.425 26.6166 150.639 26.5622 150.854 26.5496C152.515 26.4449 153.796 27.8352 153.62 29.4285C153.601 29.6191 153.557 29.8033 153.522 30.0064L153.526 30.0043ZM147.358 23.8675C146.514 23.4697 145.63 23.321 144.705 23.4027C143.631 23.5011 142.678 23.8989 141.862 24.594C141.581 24.8285 141.351 25.1217 141.095 25.3876C141.06 25.4274 141.018 25.4734 140.97 25.5279C140.911 25.4567 140.865 25.398 140.821 25.3436C140.27 24.6255 139.559 24.2025 138.65 24.1167C138.518 24.1041 138.447 24.0455 138.388 23.945C138.032 23.3713 137.616 22.8479 137.151 22.3663C137.123 22.3391 137.1 22.3077 137.073 22.2846C136.788 22.0271 136.843 22.0543 137.046 21.78C137.402 21.3027 137.854 20.9237 138.409 20.7018C139.303 20.3458 140.21 20.3228 141.104 20.7248C141.221 20.7792 141.334 20.8337 141.451 20.8923C141.487 20.9153 141.522 20.9425 141.592 20.9823C141.19 21.244 140.825 21.5058 140.513 21.8449C140.205 22.1737 139.958 22.5401 139.755 22.9421C140.815 21.5288 142.22 20.8295 143.978 21.0472C145.737 21.2692 146.924 22.2888 147.619 23.9722C147.502 23.9261 147.425 23.9052 147.358 23.8738V23.8675Z" fill="url(#paint2_linear_1_337)"/>
<path d="M54.4454 14.0164C54.4182 13.8824 54.3659 13.7526 54.3407 13.6186C54.2633 13.1873 54.1942 12.7539 54.1188 12.2995C54.0958 12.3938 54.0685 12.4754 54.0539 12.5592C53.9764 12.9926 53.899 13.426 53.8236 13.8615C53.7231 14.4394 53.3755 14.7848 52.8207 14.9356C52.4899 15.0256 52.1549 15.1031 51.8471 15.1784C52.1632 15.2559 52.5066 15.3355 52.8479 15.4276C53.3399 15.5616 53.6896 15.8484 53.7964 16.3677C53.8906 16.8283 53.968 17.291 54.0518 17.7538C54.0685 17.8459 54.0811 17.9401 54.0937 18.0322C54.1104 18.028 54.1251 18.0239 54.1418 18.0197C54.169 17.8061 54.1942 17.5925 54.2235 17.379C54.2779 16.9498 54.3659 16.5289 54.5187 16.1206C54.6045 15.8882 54.7553 15.7103 54.9751 15.6014C55.151 15.5135 55.3332 15.436 55.5195 15.3815C55.8106 15.2999 56.11 15.2434 56.38 15.1826C56.0346 15.0926 55.664 15.0089 55.3018 14.9C54.8579 14.766 54.5459 14.4917 54.4475 14.0143L54.4454 14.0164Z" fill="#0B5CAA"/>
<path d="M109.664 28.256C109.687 28.0759 109.72 27.9001 109.756 27.7263C109.614 27.7305 109.473 27.7221 109.335 27.7012C109.327 27.8854 109.321 28.0697 109.321 28.2602C108.391 28.2749 107.495 28.3816 106.67 28.7753C106.546 28.612 106.45 28.4968 106.362 28.3733C105.656 27.3662 104.783 26.5287 103.755 25.8566C102.378 24.9584 100.868 24.4349 99.2308 24.3177C97.9096 24.2255 96.6157 24.3847 95.3511 24.8306C94.3482 25.1824 93.4185 25.6619 92.5894 26.313C91.7142 26.9998 90.9772 27.7996 90.3951 28.7125C90.592 28.6957 90.7783 28.702 90.9626 28.7041C91.3143 28.7083 91.6682 28.7166 92.0262 28.7208C93.161 27.3389 94.6496 26.3758 96.467 25.8419C98.3137 25.3017 100.173 25.3729 101.992 26.022C103.653 26.6145 105.02 27.6174 106.117 29.0035C105.799 29.1898 105.51 29.3929 105.248 29.6065C106.207 29.617 107.183 29.6316 108.159 29.6463C108.82 29.483 109.501 29.4536 110.21 29.5604C110.447 29.5981 110.671 29.6442 110.891 29.7007C110.952 29.7007 111.012 29.7049 111.073 29.707C111.435 29.7174 111.754 29.6819 112.045 29.6023C112.206 29.5583 112.357 29.5018 112.514 29.4285C112.541 29.4181 112.566 29.4034 112.597 29.3908C111.846 28.8192 110.939 28.4654 109.892 28.3084C109.821 28.2937 109.752 28.2749 109.662 28.2539L109.664 28.256Z" fill="url(#paint3_linear_1_337)"/>
<path d="M46.8367 14.6822H38.4157C37.084 13.2124 35.6058 12.0671 34.1193 11.1668C31.5461 9.60906 28.9331 8.80297 26.9607 8.38212C26.9461 8.38003 26.9293 8.37584 26.9147 8.37375C25.9264 8.13925 24.9256 7.99269 23.9185 7.94872C23.7238 7.93615 23.617 7.93406 23.617 7.93406C21.5254 7.86706 19.4023 8.20834 17.2709 8.99141C16.1695 9.3955 15.152 10.0341 13.8497 10.6873C16.9359 6.11669 20.8679 3.5309 26.2175 3.26918C29.222 3.12262 32.0255 3.65444 34.6909 4.67409C35.3986 4.96094 36.0665 5.25196 36.6925 5.5409C36.7469 5.56812 36.8014 5.58697 36.8537 5.61628C45.5742 10.4926 46.8388 14.6822 46.8388 14.6822H46.8367Z" fill="#FC621A"/>
<path d="M38.6816 14.075C37.4609 12.7685 36.033 11.617 34.4334 10.6476C32.2496 9.3264 29.7789 8.36327 27.0864 7.78749L27.0298 7.77702C26.0123 7.53624 24.9675 7.38759 23.9457 7.34152C23.7489 7.32896 23.6338 7.32687 23.6338 7.32687C23.4579 7.32058 23.2799 7.31849 23.102 7.31849C21.0836 7.31849 19.0506 7.68909 17.0594 8.4219C16.6993 8.55381 16.3475 8.71084 15.9979 8.88043C18.7951 5.68537 22.1032 4.08155 26.2468 3.88055C26.5629 3.8659 26.8812 3.85752 27.1953 3.85752C29.6491 3.85752 32.0297 4.31186 34.4731 5.24568C35.1096 5.50321 35.7545 5.78168 36.4371 6.09574C36.4517 6.10411 36.4831 6.11668 36.5145 6.13133C36.5292 6.13762 36.5418 6.1439 36.5564 6.15018C42.7079 9.59021 45.057 12.6806 45.8694 14.0771H38.6837L38.6816 14.075Z" fill="#FC621A"/>
<path d="M56.8114 50.2446C55.5865 53.7181 53.0133 58.2071 47.7266 59.7837C47.7266 59.7837 51.0892 56.8462 52.7746 50.2509H53.4048C53.7943 50.2551 54.213 50.2551 54.6569 50.2551C55.1887 50.2551 55.687 50.2551 56.1477 50.2509C56.378 50.2509 56.5999 50.2467 56.8135 50.2467L56.8114 50.2446Z" fill="#FC621A"/>
<path d="M56.1456 50.2488C55.1343 53.0042 53.2625 56.3479 49.8455 58.2385C50.9991 56.6284 52.471 54.0113 53.4027 50.2488C53.7922 50.253 54.2109 50.253 54.6548 50.253C55.1866 50.253 55.6849 50.253 56.1456 50.2488Z" fill="#FC621A"/>
<path d="M82.3531 24.146C82.3447 24.102 82.3258 24.058 82.3175 24.0141C82.2923 23.8696 82.2693 23.7251 82.2442 23.5744C82.2358 23.6058 82.2274 23.633 82.2232 23.6623C82.196 23.8068 82.1709 23.9513 82.1458 24.0978C82.1123 24.2904 81.9971 24.4056 81.8108 24.4559C81.6998 24.4852 81.5888 24.5124 81.4862 24.5375C81.593 24.5647 81.7061 24.5899 81.8212 24.6213C81.9846 24.6652 82.1018 24.7615 82.1374 24.9353C82.1688 25.0882 82.1939 25.2431 82.2232 25.398C82.2295 25.4294 82.2337 25.4609 82.2379 25.4902C82.2442 25.4902 82.2484 25.4881 82.2546 25.486C82.263 25.4148 82.2714 25.3436 82.2819 25.2724C82.3007 25.13 82.33 24.9877 82.3803 24.8516C82.4096 24.7741 82.4598 24.7155 82.5331 24.6778C82.5917 24.6485 82.6525 24.6213 82.7153 24.6045C82.8116 24.5773 82.9121 24.5584 83.0021 24.5375C82.887 24.5082 82.7634 24.4789 82.642 24.4433C82.4933 24.3993 82.3887 24.3072 82.3572 24.1481L82.3531 24.146Z" fill="#FC621A"/>
<path d="M57.2887 36.5975C57.2804 36.5536 57.2615 36.5096 57.2532 36.4656C57.228 36.3212 57.205 36.1767 57.1799 36.0259C57.1715 36.0573 57.1631 36.0846 57.1589 36.1139C57.1317 36.2583 57.1066 36.4028 57.0815 36.5494C57.048 36.742 56.9328 36.8572 56.7465 36.9074C56.6355 36.9367 56.5245 36.9639 56.4219 36.9891C56.5287 37.0163 56.6418 37.0414 56.7569 37.0728C56.9203 37.1168 57.0375 37.2131 57.0731 37.3869C57.1045 37.5397 57.1296 37.6947 57.1589 37.8496C57.1652 37.881 57.1694 37.9124 57.1736 37.9417C57.1799 37.9417 57.1841 37.9396 57.1903 37.9375C57.1987 37.8663 57.2071 37.7952 57.2176 37.724C57.2364 37.5816 57.2657 37.4392 57.316 37.3031C57.3453 37.2257 57.3955 37.167 57.4688 37.1293C57.5274 37.1 57.5882 37.0728 57.651 37.0561C57.7473 37.0288 57.8478 37.01 57.9378 36.9891C57.8227 36.9597 57.6991 36.9304 57.5777 36.8948C57.429 36.8509 57.3243 36.7588 57.2929 36.5996L57.2887 36.5975Z" fill="#FC621A"/>
<path d="M123.097 24.146C123.089 24.102 123.07 24.058 123.062 24.0141C123.037 23.8696 123.014 23.7251 122.989 23.5744C122.98 23.6058 122.972 23.633 122.968 23.6623C122.94 23.8068 122.915 23.9513 122.89 24.0978C122.857 24.2904 122.742 24.4056 122.555 24.4559C122.444 24.4852 122.333 24.5124 122.231 24.5375C122.337 24.5647 122.45 24.5899 122.566 24.6213C122.729 24.6652 122.846 24.7615 122.882 24.9353C122.913 25.0882 122.938 25.2431 122.968 25.398C122.974 25.4294 122.978 25.4609 122.982 25.4902C122.989 25.4902 122.993 25.4881 122.999 25.486C123.007 25.4148 123.016 25.3436 123.026 25.2724C123.045 25.13 123.074 24.9877 123.125 24.8516C123.154 24.7741 123.204 24.7155 123.278 24.6778C123.336 24.6485 123.397 24.6213 123.46 24.6045C123.556 24.5773 123.656 24.5584 123.747 24.5375C123.631 24.5082 123.508 24.4789 123.386 24.4433C123.238 24.3993 123.133 24.3072 123.102 24.1481L123.097 24.146Z" fill="url(#paint4_linear_1_337)"/>
<path d="M18.0518 36.9304C18.3366 37.1168 18.6381 37.2759 18.9479 37.4308C18.5166 38.0338 18.1 38.6599 17.7231 39.3257C17.1285 40.2972 16.6679 41.3441 16.3517 42.414C9.26644 30.2409 9.00054 17.2366 15.935 12.8816C19.7415 10.4905 24.9507 11.1815 30.1809 14.2216C28.7132 14.3284 27.235 14.4833 25.717 14.6424C23.8662 14.8518 22.6434 16.1374 22.5178 18.005C22.5052 18.1872 22.5052 18.3735 22.5052 18.5515C22.5052 18.6457 22.5052 18.7336 22.4969 18.8446C22.3901 20.4673 22.8381 21.7947 23.841 22.7934C23.8327 22.9169 23.7824 23.1389 23.5165 23.4194C21.8918 25.1007 20.2168 26.7108 18.6276 28.21C18.3073 28.5156 17.9053 28.8129 17.4739 29.1333C17.2918 29.2715 17.1054 29.4076 16.9191 29.5499C15.2336 30.8502 14.7939 32.833 15.8136 34.6294C15.8722 34.7278 15.9329 34.8283 16.0041 34.9309C16.5359 35.7119 17.2206 36.3819 18.0497 36.9325L18.0518 36.9304Z" fill="#0D60AD"/>
<path d="M40.9554 39.512C40.6979 40.607 40.6183 41.589 40.6623 42.4621C40.254 42.9227 39.829 43.3708 39.3809 43.8021C35.8404 47.2945 32.1679 49.3066 28.4578 49.7965C27.9176 49.8719 27.3795 49.9117 26.8686 49.9117C25.826 49.9117 24.8984 49.7567 24.1363 49.472C23.3742 49.1831 22.7754 48.7622 22.388 48.2304C21.5359 47.037 21.8374 45.3431 22.2498 44.1141C22.6183 43.1551 23.1501 42.2779 23.8076 41.3859C24.1886 41.6644 24.5697 41.9324 24.9487 42.1669C25.9327 42.7741 26.9754 43.0861 28.0453 43.0861C29.1152 43.0861 30.1077 42.7929 31.0896 42.2171C31.2927 42.1062 31.4854 41.9868 31.6654 41.857L32.1219 41.5283L32.1616 41.4529L33.7634 40.1255L33.8387 40.0501C35.6624 38.2223 37.2851 35.9987 38.9412 33.0549C40.1744 30.8732 40.924 28.9469 41.2925 27.0207C41.3281 26.9495 41.4077 26.8029 41.4432 26.7422C41.4558 26.715 41.4663 26.6941 41.4788 26.6752C41.8243 26.6082 42.2012 26.5329 42.6053 26.4365C42.823 26.7653 43.0408 27.094 43.2481 27.4311C43.5182 27.8666 43.7841 28.3 44.0374 28.7355C42.6534 33.1407 41.6191 36.7525 40.9533 39.5162L40.9554 39.512Z" fill="#0D60AD"/>
<path d="M49.3053 50.1378C48.7337 53.7809 47.1361 56.6913 44.4959 58.3453C40.1618 61.0693 33.9999 59.7921 28.0641 55.5941C28.2233 55.5858 28.3887 55.5669 28.5478 55.5502C34.984 54.8446 40.0341 50.9502 43.1706 47.7635C44.6529 49.0721 46.7069 49.8698 49.3053 50.1378Z" fill="#0D60AD"/>
<path d="M18.301 22.9881C18.1147 23.03 17.9325 23.0991 17.7545 23.1703C17.5347 23.2624 17.386 23.4111 17.3002 23.6058C17.1473 23.945 17.0594 24.2967 17.005 24.6548C16.9757 24.8348 16.9526 25.0128 16.9233 25.1929C16.9066 25.1949 16.8919 25.1991 16.8752 25.2033C16.8626 25.1238 16.8479 25.0484 16.8333 24.9709C16.7495 24.5836 16.6721 24.1962 16.5778 23.811C16.4732 23.3755 16.1235 23.1368 15.6315 23.0258C15.2923 22.9463 14.9489 22.8834 14.6328 22.8164C14.9384 22.7536 15.2734 22.6866 15.6063 22.6134C16.1612 22.4877 16.5088 22.1967 16.6093 21.713C16.6867 21.3508 16.7621 20.9886 16.8417 20.6264C16.8542 20.5552 16.8814 20.4861 16.9045 20.4065C16.9819 20.7855 17.0489 21.1477 17.1264 21.5099C17.1494 21.623 17.2039 21.7319 17.229 21.8429C17.3295 22.2407 17.6415 22.471 18.0832 22.584C18.4476 22.6741 18.8161 22.7453 19.1615 22.8185C18.8935 22.8709 18.592 22.919 18.301 22.9881Z" fill="white"/>
<path d="M19.7583 18.4635C19.6787 18.4824 19.6033 18.5117 19.5259 18.5431C19.4337 18.5808 19.3709 18.6436 19.3332 18.7252C19.2704 18.8697 19.2327 19.0205 19.2097 19.1733C19.1971 19.2508 19.1867 19.3262 19.1762 19.3994C19.1678 19.4015 19.1595 19.4057 19.1553 19.4057C19.149 19.3743 19.1448 19.3408 19.1364 19.3073C19.1029 19.1419 19.0673 18.9786 19.0275 18.8132C18.9836 18.6289 18.8328 18.5263 18.6235 18.4782C18.479 18.4468 18.3324 18.4175 18.1984 18.3882C18.3282 18.3609 18.4706 18.3358 18.613 18.3044C18.8475 18.25 18.9961 18.1285 19.0401 17.9212C19.0715 17.7663 19.1029 17.6135 19.1385 17.4606C19.1448 17.4292 19.1553 17.3999 19.1657 17.3664C19.1971 17.5297 19.2265 17.6826 19.26 17.8354C19.2704 17.8836 19.2914 17.9296 19.3039 17.9778C19.3437 18.1474 19.4777 18.2437 19.6661 18.2918C19.8211 18.3316 19.9781 18.3609 20.1247 18.3923C20.0095 18.4133 19.8818 18.4342 19.7583 18.4635Z" fill="white"/>
<path d="M45.1031 40.5317H46.2756C44.7534 42.527 43.3067 44.5831 41.6756 46.1199C38.1225 49.7609 33.4953 52.778 28.3091 53.3433C25.9788 53.6051 23.5291 53.4124 21.4395 52.2316C17.1913 49.8552 17.3379 44.1874 19.6326 40.4521C20.4743 38.9697 21.5086 37.6632 22.5304 36.4049L23.9981 37.636C22.4571 39.4241 20.9894 41.187 20.1665 43.3624C17.9785 49.7986 22.7586 52.8157 28.7593 51.995C33.4577 51.3773 37.5928 48.6806 40.9386 45.3829C42.488 43.8963 43.7903 42.2192 45.1031 40.5317Z" fill="#FC621A"/>
<path d="M117.086 20.0276C117.08 19.8349 117.084 19.6423 117.08 19.4455C117.08 19.2717 117.078 19.0937 117.078 18.9158C116.513 18.7797 115.949 18.6478 115.39 18.5159C114.138 18.2207 112.899 17.9359 111.666 17.5946C110.973 17.4083 110.378 17.4208 109.779 17.8166C109.605 17.9317 109.402 17.9966 109.212 18.0908C108.357 18.5263 107.468 18.7064 106.49 18.6938C103.012 18.6645 80.0499 18.7253 76.5764 18.742C76.1932 18.7441 75.808 18.742 75.4102 18.7441C75.1673 18.1013 74.7423 17.9024 74.089 17.9087C70.3684 17.9464 66.6436 17.938 62.9189 17.9527C62.0793 17.9527 62.0793 17.9652 61.6605 18.7755C58.1346 18.7922 54.5878 18.8027 51.1583 18.8195C50.6976 18.4614 50.3564 18.0238 49.9271 17.8982C48.8279 17.58 47.691 17.268 46.5332 17.4816C46.1668 17.5465 45.8967 17.513 45.6789 17.2785C45.2811 16.8388 44.7765 16.6776 44.2238 16.5289C42.4838 16.062 40.6916 16.1353 38.9203 16.0076C37.9572 15.9343 36.9689 16.0955 35.9953 16.1437C34.2156 16.2316 32.4276 16.2839 30.65 16.4054C29.0838 16.5163 27.5177 16.6796 25.9579 16.8451C25.1539 16.9351 24.7812 17.3601 24.7288 18.1453C24.71 18.43 24.7288 18.7106 24.7079 18.987C24.6472 19.9019 24.8063 20.7143 25.5496 21.355C25.9369 21.6879 26.0458 22.1716 26.0563 22.6845C26.073 23.589 25.6878 24.3595 25.112 24.9521C23.5082 26.6166 21.8416 28.2162 20.1624 29.8054C19.5845 30.3602 18.9103 30.8125 18.2738 31.3003C17.6247 31.8007 17.1955 32.5629 17.7252 33.4967C17.7587 33.5553 17.7943 33.6118 17.8341 33.6704C18.2236 34.2399 18.7072 34.6985 19.2579 35.0649C19.6033 35.2889 19.9697 35.4794 20.3634 35.6365C21.0313 35.9087 21.5442 36.3232 22.0405 36.8278L22.1179 36.9053C22.5618 37.3596 23.0141 37.8056 23.481 38.2348C24.3017 38.9865 25.1664 39.6858 26.1191 40.2741C27.4067 41.0698 28.73 41.0363 29.9925 40.2825C30.1307 40.2092 30.2584 40.1297 30.3862 40.0396V40.0334L32.2684 38.4777C34.1884 36.5556 35.6833 34.3153 37.0108 31.9578C37.976 30.2451 38.7591 28.4717 39.1297 26.5328C39.1904 26.2355 39.3453 25.9424 39.4961 25.6702C39.8227 25.0714 40.2373 24.6464 40.9931 24.504C42.0169 24.3114 43.0534 24.0601 43.9997 23.6372C45.3397 23.0363 46.6923 22.7955 48.1558 22.806C49.0017 22.8122 49.9355 22.6845 50.5804 22.0062C50.9698 21.6021 51.3907 21.5288 51.9015 21.5309C53.6205 21.5392 55.3437 21.5225 57.0647 21.5183C58.6057 21.5099 60.1509 21.5057 61.7296 21.4995C61.9557 22.2804 62.5483 22.3621 63.2225 22.3558C66.7253 22.3244 70.2219 22.3035 73.7184 22.3139C74.4785 22.316 75.1192 22.2218 75.4269 21.4513C79.5202 21.4304 103.041 21.4011 107.078 21.3718C107.725 21.3697 108.318 21.4597 108.887 21.7842C110.066 22.4542 111.295 22.6803 112.593 22.1088C112.746 22.0376 112.93 22.048 113.102 22.0062C114.134 21.7486 115.164 21.4953 116.217 21.2357C116.504 21.1624 116.795 21.087 117.084 21.02C117.086 20.6745 117.084 20.3521 117.084 20.0234L117.086 20.0276ZM35.8781 29.8075C35.8194 30.0901 35.7462 30.3581 35.6582 30.6282C35.5996 30.802 35.5389 30.98 35.4719 31.1475C35.4384 31.2354 35.4028 31.3213 35.363 31.405C35.1662 31.8803 34.9275 32.3388 34.6721 32.7932C34.5004 33.0989 34.3182 33.4024 34.1298 33.6998C33.1834 35.2512 32.1721 36.7608 30.8321 38.015C30.3987 38.4149 29.8983 38.7499 29.4021 39.0598C28.8724 39.399 28.305 39.3885 27.6894 39.2252C27.1995 39.0933 26.7556 38.8902 26.3347 38.6452C26.1945 38.5656 26.0605 38.484 25.9265 38.3898C25.8574 38.3479 25.7925 38.2976 25.7234 38.2495C25.5266 38.1134 25.3339 37.9647 25.1434 37.8119C24.9298 37.6381 24.7142 37.4539 24.5069 37.2696C23.8851 36.7043 23.326 36.0824 22.8989 35.3371C22.4278 34.5059 22.3713 33.8861 22.7754 33.2035C22.8445 33.0905 22.924 32.9732 23.0203 32.8497C23.0643 32.789 23.1146 32.7283 23.1753 32.6675C23.1962 32.6403 23.2171 32.6173 23.2465 32.5901C25.0785 30.6638 26.921 28.7334 28.7509 26.8092C28.9708 26.5789 29.2283 26.3716 29.377 26.1057C29.3895 26.0785 29.4042 26.0576 29.4209 26.0324C29.4482 25.9906 29.4817 25.9487 29.5131 25.911C29.5675 25.8587 29.624 25.8105 29.6847 25.7686C29.758 25.7163 29.8439 25.6744 29.9318 25.6388C29.9716 25.6221 30.0197 25.6074 30.0637 25.5969C30.1537 25.5739 30.2396 25.553 30.3359 25.5425C30.6395 25.5006 30.9745 25.6367 31.3221 25.7037C31.098 27.2384 30.428 28.4465 29.5884 29.5751C28.8368 30.5822 28.0516 31.5662 27.2916 32.5691C27.2392 32.6403 27.189 32.7073 27.1387 32.7806C27.0592 32.8853 26.9901 32.9963 26.9189 33.1051C26.8498 33.2161 26.7828 33.3292 26.7179 33.4485C26.3431 34.1206 26.2719 34.8283 26.475 35.4522C26.5022 35.5318 26.5274 35.6072 26.5588 35.6846C26.609 35.7935 26.6635 35.9003 26.7305 36.0092C26.8896 36.2541 27.0969 36.4782 27.346 36.6729C27.4193 36.7273 27.4947 36.7839 27.5701 36.8383C27.8025 36.9869 28.0663 37.1189 28.3615 37.2173C28.328 37.0916 28.3071 36.9639 28.284 36.8488C28.2715 36.7692 28.2526 36.6959 28.2317 36.6247C28.2212 36.5912 28.2128 36.5473 28.2024 36.5138C28.194 36.4824 28.1793 36.4489 28.1647 36.4133C28.1521 36.384 28.1354 36.3504 28.1228 36.319C28.1061 36.2897 28.0935 36.2604 28.0746 36.2311C28.0537 36.1704 28.0265 36.1118 28.0118 36.0552C27.993 35.9966 27.9804 35.9401 27.9721 35.8794C27.9595 35.8249 27.9532 35.7663 27.9511 35.7098C27.949 35.6805 27.9511 35.6553 27.9511 35.626C27.9574 35.5653 27.9574 35.5129 27.9679 35.4543C27.9909 35.291 28.0453 35.1256 28.1207 34.9665C28.1626 34.889 28.2024 34.8115 28.2526 34.732C28.2756 34.6901 28.305 34.6524 28.3301 34.6168C28.3594 34.5749 28.3845 34.5352 28.4117 34.4975C28.4536 34.4347 28.4955 34.3781 28.5374 34.3174C28.6253 34.2044 28.7132 34.0913 28.8096 33.9824C28.8598 33.9301 28.908 33.8735 28.954 33.8233C29.4084 33.3355 29.8878 32.8748 30.3631 32.41C30.9703 31.8133 31.4372 31.1307 31.8036 30.3644C31.9167 30.1194 32.0381 29.8766 32.1617 29.6337C32.2098 29.5499 32.2559 29.462 32.3019 29.372L32.3543 29.2736C32.3815 29.2233 32.4066 29.1752 32.4338 29.1249C32.4527 29.0956 32.4673 29.0642 32.4862 29.037C32.5302 28.949 32.5762 28.8716 32.6286 28.7857C32.7165 28.635 32.8086 28.4842 32.9007 28.3377C33.1164 28.0027 33.4472 27.7054 33.7864 27.4876C34.3831 27.1023 35.4321 27.4143 35.6624 28.0759C35.8529 28.6161 36.0142 29.1794 35.876 29.8054L35.8781 29.8075ZM35.2583 26.6773C34.9003 26.4847 34.4941 26.3737 34.1005 26.4219C33.7068 26.4721 33.3488 26.6689 33.0515 26.9369C32.928 27.0898 32.7709 27.2238 32.6579 27.3913C32.5364 27.5546 32.4338 27.7347 32.3459 27.9126C31.9837 28.6664 31.5942 29.418 31.1399 30.1236C30.6856 30.825 30.1935 31.5285 29.5319 32.0499C29.8292 31.7568 30.0909 31.428 30.3233 31.0868C30.5599 30.7434 30.7798 30.3874 30.985 30.0294C31.3995 29.3071 31.7764 28.568 32.1323 27.8121C32.2307 27.6216 32.3417 27.4332 32.4673 27.2615C32.593 27.0793 32.7542 26.9349 32.9028 26.782C33.2295 26.4973 33.6357 26.2711 34.0816 26.2439C34.5255 26.2146 34.9547 26.3633 35.3127 26.5789C35.6792 26.8092 35.9911 27.0961 36.2466 27.4332C35.9534 27.1358 35.6247 26.8658 35.2583 26.6815V26.6773ZM68.3815 18.9723L62.6802 19.1021L62.14 19.8538L62.0814 19.9313H61.9871L53.3776 19.9543L51.2274 19.9606L50.4213 19.9543H50.3584L50.3208 19.948H50.304L50.2956 19.9501C50.2831 19.948 50.2747 19.9396 50.2747 19.9396C50.2412 19.9208 50.1763 19.8789 50.0737 19.8077C50.0549 19.7763 50.0402 19.7365 50.0234 19.7072C49.879 19.4308 49.6403 19.211 49.3618 19.0812C49.0687 18.9702 48.7211 18.8781 48.3799 18.8195C48.0365 18.7588 47.6889 18.7211 47.3351 18.7001C46.6316 18.6582 45.9218 18.6771 45.2225 18.7336L45.0906 18.7462L45.0215 18.7525H45.0131C45.0131 18.7525 45.0152 18.7546 45.0194 18.7587L45.0005 18.7483L44.9922 18.7399C44.9587 18.7273 44.8979 18.6897 44.7891 18.631L44.7828 18.6206L44.7702 18.5933C44.7388 18.5242 44.6969 18.4614 44.6467 18.4028C44.5525 18.2835 44.4352 18.183 44.3033 18.1097C44.163 18.0385 44.0374 17.9987 43.8573 17.9778L43.3381 17.9129C42.9864 17.8647 42.6283 17.8522 42.2745 17.8187L41.2046 17.7642C39.7787 17.7098 38.3466 17.7014 36.9145 17.7035C34.0502 17.7265 31.1818 17.7935 28.3133 17.8898C29.7434 17.7663 31.1755 17.6763 32.6076 17.5946C34.0398 17.5067 35.4719 17.4502 36.9082 17.4125C38.3403 17.3706 39.7808 17.3497 41.2171 17.3748C41.5793 17.3873 41.9374 17.402 42.2975 17.4146C42.6555 17.4439 43.0198 17.4585 43.3821 17.5025L43.9223 17.5674C44.0102 17.5779 44.1128 17.5967 44.2154 17.6218C44.3138 17.6532 44.4101 17.693 44.5001 17.7412C44.6865 17.8417 44.8477 17.9757 44.9796 18.1348C45.0215 18.1934 45.0613 18.2562 45.0989 18.3107H45.1806C45.9008 18.2395 46.6295 18.2186 47.3581 18.2583C47.7224 18.2751 48.0867 18.3107 48.4531 18.3714C48.8195 18.43 49.1713 18.5138 49.544 18.6645C49.9188 18.8299 50.2328 19.121 50.4296 19.479H50.683H51.2253L53.3714 19.4916L61.8825 19.5418L62.4331 18.809L62.4876 18.7378H68.371C70.3035 18.7546 72.234 18.7546 74.1728 18.786C72.2402 18.8592 70.3056 18.9074 68.371 18.9681L68.3815 18.9723Z" fill="#FC621A"/>
<path d="M50.4443 48.0001C47.5444 47.864 45.4612 47.0809 44.1944 45.6551C42.9277 44.2293 42.5676 42.3512 43.1162 40.0229C44.029 36.2332 45.6266 30.869 47.9109 23.9282C51.3341 23.8382 54.994 23.7796 58.8863 23.7565C62.7786 23.7335 65.0336 23.7461 65.6491 23.79C68.3647 23.9052 70.203 24.6401 71.162 25.9989C72.1209 27.3578 72.3031 29.1773 71.7105 31.4615C71.5954 31.918 71.4258 32.4666 71.1976 33.1051H65.1361L65.4795 31.9075C65.7999 30.9486 65.8103 30.2116 65.513 29.6986C65.2157 29.1856 64.5646 28.9281 63.5616 28.9281H52.536L49.5565 39.3026C48.9179 41.5409 49.6696 42.6589 51.8157 42.6589H59.5207C61.4616 42.6589 62.7158 41.6665 63.2874 39.6795L63.8694 37.6591H70.0334L69.2106 40.5359C68.549 42.795 67.4016 44.5705 65.7685 45.8603C64.1353 47.15 61.8825 47.8514 59.0056 47.9666C58.0467 48.0127 56.5978 48.0357 54.6569 48.0357C52.716 48.0357 51.3132 48.0231 50.4443 48.0022V48.0001Z" fill="#1A71B8"/>
<path d="M64.1395 39.9245C63.459 42.2925 61.8615 43.5467 59.5207 43.5467H51.8157C50.4966 43.5467 49.5439 43.1677 48.9807 42.4223C48.384 41.633 48.2919 40.5024 48.7023 39.0598L48.8739 38.463H44.4268C44.2635 39.0849 44.1127 39.6774 43.9808 40.2281C43.4993 42.2779 43.7861 43.8607 44.8602 45.0688C45.9573 46.3041 47.8501 46.993 50.4694 47.1165C51.3362 47.1396 52.7453 47.15 54.659 47.15C56.5727 47.15 58.0215 47.127 58.9721 47.083C61.6437 46.9783 63.7459 46.3335 65.2199 45.1672C66.6959 44.001 67.7533 42.3595 68.3584 40.2951L68.8567 38.5489H64.5373L64.1395 39.9266V39.9245Z" fill="url(#paint5_linear_1_337)"/>
<path d="M75.921 30.7769H88.8311C90.6799 30.7769 92.0618 31.1768 92.9746 31.9745C93.8875 32.7743 94.1848 33.9385 93.8645 35.4669C93.272 38.0003 92.0953 42.1439 90.3386 47.8975H74.5873C73.7645 47.8975 73.0631 47.7844 72.481 47.5541C71.8989 47.3259 71.4718 47.0286 71.1975 46.6643C70.9233 46.3 70.7348 45.9273 70.6322 45.5525C70.5296 45.1777 70.5003 44.7946 70.5464 44.4051C70.5924 43.9947 70.7285 43.3959 70.9568 42.6066C71.185 41.8193 71.4027 41.1745 71.6079 40.672C72.0874 39.5539 72.726 38.7311 73.5258 38.2055C74.3235 37.68 75.3871 37.4183 76.7104 37.4183H84.0385C84.6101 37.4183 85.0938 37.4811 85.4937 37.6067C85.8936 37.7323 86.2181 37.9312 86.4694 38.2055C86.7206 38.4798 86.8923 38.8336 86.9823 39.2671H87.1184L87.734 37.0079C88.1213 35.7077 87.6314 35.0565 86.2621 35.0565H80.611C77.9624 35.0565 76.0111 35 74.7548 34.8848L75.919 30.7748L75.921 30.7769ZM85.7826 43.8566L86.2956 42.0413C86.5929 41.0593 86.216 40.5694 85.165 40.5694H78.5215C77.6986 40.5694 77.1626 40.9797 76.9114 41.8026L76.6371 42.6924C76.545 43.0588 76.568 43.3436 76.7062 43.5488C76.8423 43.754 77.1061 43.8566 77.4934 43.8566H85.7805H85.7826Z" fill="#1A71B8"/>
<path d="M88.2574 38.461L87.7947 40.1569H86.7101C86.8002 40.2344 86.8818 40.3223 86.953 40.4186C87.311 40.9002 87.3759 41.5346 87.1477 42.2841L86.4505 44.7443H77.4934C76.6203 44.7443 76.1807 44.3612 75.9671 44.0408C75.6865 43.62 75.6216 43.0923 75.7766 42.4768L76.0634 41.543C76.4298 40.3432 77.3029 39.6816 78.5215 39.6816H85.1649C85.5607 39.6816 85.904 39.7381 86.1951 39.8512L86.1113 39.4513C86.0527 39.1728 85.9543 38.9614 85.8119 38.8064C85.6695 38.6515 85.4811 38.5384 85.2382 38.461H75.2196C74.7506 38.5677 74.3444 38.729 74.0115 38.9488C73.3646 39.3738 72.8307 40.0711 72.4287 41.0091C72.2339 41.4843 72.0267 42.1062 71.8089 42.8558C71.543 43.7686 71.4551 44.2565 71.4278 44.5098C71.3943 44.7883 71.4153 45.0521 71.4886 45.3201C71.5618 45.586 71.7021 45.8603 71.9073 46.1346C72.079 46.3649 72.3826 46.5659 72.8055 46.7313C73.2808 46.9176 73.8796 47.0118 74.5873 47.0118H89.6812C90.7322 43.5592 91.5655 40.6992 92.179 38.461H88.2595H88.2574Z" fill="url(#paint6_linear_1_337)"/>
<path d="M93.0772 47.8975C93.5797 45.8435 94.367 42.9897 95.439 39.3362C96.467 35.7517 97.3108 32.8979 97.9724 30.7748H103.247L102.972 33.4464H103.075C103.554 32.5566 104.12 31.8949 104.771 31.4594C105.422 31.026 106.226 30.7853 107.185 30.7413C108.462 30.6722 109.947 30.6722 111.636 30.7413C112.708 30.7874 113.581 31.0721 114.256 31.5976C114.93 32.1232 115.346 32.8309 115.506 33.7207C115.939 32.8539 116.58 32.1504 117.423 31.6144C118.267 31.0784 119.26 30.7874 120.403 30.7413C122.159 30.6722 125.528 30.6848 130.505 30.7748C129.272 35.6365 127.628 41.344 125.574 47.8954H119.754L123.418 35.0209H117.769C116.559 35.0209 115.761 35.6951 115.372 37.0414L112.256 47.8954H106.435L109.517 37.0414C109.905 35.6951 109.459 35.0209 108.182 35.0209H104.448C103.215 35.0209 102.415 35.6951 102.051 37.0414L98.9356 47.8954H93.0793L93.0772 47.8975Z" fill="#1A71B8"/>
<path d="M110.032 38.461L107.606 47.0097H111.584L114.038 38.461H110.032Z" fill="url(#paint7_linear_1_337)"/>
<path d="M96.6136 38.461C96.5068 38.8274 96.4 39.2021 96.2891 39.5874C95.4055 42.5961 94.7083 45.0877 94.2141 47.0097H98.2635L100.717 38.4589H96.6136V38.461Z" fill="url(#paint8_linear_1_337)"/>
<path d="M123.359 38.461L120.926 47.0118H124.921C125.865 43.9864 126.722 41.1347 127.492 38.461H123.359Z" fill="url(#paint9_linear_1_337)"/>
<path d="M134.577 47.8975C132.729 47.8514 131.387 47.3385 130.553 46.3565C129.72 45.3745 129.462 44.1643 129.783 42.7259C130.375 40.1004 131.519 36.1181 133.206 30.7748C139.027 30.6617 144.129 30.6617 148.514 30.7748C149.768 30.7978 150.802 31.0554 151.612 31.5453C152.423 32.0373 152.965 32.6634 153.239 33.4276C153.513 34.1918 153.536 35.044 153.308 35.9778C152.714 38.4672 152.088 40.6803 151.426 42.6212C151.198 43.2829 150.913 43.8942 150.57 44.4533C150.228 45.0123 149.799 45.5609 149.286 46.0969C148.773 46.6329 148.122 47.0621 147.335 47.3803C146.547 47.7007 145.662 47.8724 144.68 47.8933C141.301 47.9833 137.934 47.9833 134.577 47.8933V47.8975ZM137.283 43.6514H143.275C144.552 43.6514 145.398 42.9562 145.808 41.5618L147.075 37.1105C147.485 35.7181 147.042 35.0209 145.739 35.0209H137.829L135.945 41.5618C135.534 42.9541 135.978 43.6514 137.281 43.6514H137.283Z" fill="#1A71B8"/>
<path d="M147.615 38.461L146.661 41.8152C146.141 43.5718 144.939 44.5391 143.275 44.5391H137.283C136.376 44.5391 135.708 44.2628 135.3 43.7163C134.864 43.1342 134.795 42.326 135.095 41.3168L135.918 38.4589H131.812C131.309 40.2344 130.92 41.7272 130.65 42.9186C130.392 44.0806 130.581 45.0165 131.232 45.7807C131.891 46.5575 133.024 46.97 134.603 47.0097C136.265 47.0558 137.953 47.0767 139.621 47.0767C141.29 47.0767 142.984 47.0537 144.661 47.0097C145.53 46.9888 146.317 46.8381 147.002 46.5617C147.67 46.2916 148.222 45.9294 148.645 45.4855C149.112 44.9977 149.506 44.4952 149.814 43.9927C150.122 43.4902 150.381 42.9332 150.586 42.3365C150.988 41.1577 151.382 39.8617 151.763 38.4589H147.615V38.461Z" fill="url(#paint10_linear_1_337)"/>
<path d="M61.6982 55.6611C61.8511 55.0853 62.0688 54.3002 62.3515 53.3036L63.0529 50.946H68.1742C68.1428 51.0758 68.0025 51.6076 67.7575 52.5435C67.6277 53.0377 67.3744 53.4501 66.9996 53.7809C66.6248 54.1118 66.1914 54.2772 65.7036 54.2772H63.614L63.2162 55.6653H61.7003L61.6982 55.6611ZM63.8548 53.4376H63.882C63.9951 53.2805 64.1102 53.1675 64.2296 53.1005C64.3489 53.0335 64.485 53 64.6378 53H65.6952C65.9506 53 66.1181 52.8702 66.1935 52.6084L66.3024 52.2106H64.2065L63.8569 53.4376H63.8548Z" fill="#FC621A"/>
<path d="M67.2634 55.6611C67.4162 55.0853 67.634 54.3002 67.9166 53.3036L68.6181 50.946H73.9823C73.9236 51.2014 73.8085 51.6327 73.6389 52.2399C73.5719 52.4682 73.4735 52.6712 73.3457 52.8429C73.218 53.0167 73.0903 53.1423 72.9626 53.224C72.8349 53.3057 72.7113 53.3538 72.5962 53.3727C72.8391 53.4585 73.0045 53.5799 73.0945 53.7391C73.1845 53.8982 73.1929 54.1097 73.1217 54.3693L72.7448 55.6632H71.2227L71.4928 54.7336C71.5284 54.6038 71.5221 54.5075 71.476 54.4468C71.43 54.386 71.3253 54.3567 71.162 54.3567H69.1603L68.7835 55.6632H67.2676L67.2634 55.6611ZM69.399 53.5129H69.4262C69.5016 53.4103 69.5791 53.3287 69.6545 53.268C69.7298 53.2073 69.8115 53.1633 69.8973 53.1361C69.9832 53.1088 70.0774 53.0963 70.18 53.0963H71.4195C71.7021 53.0963 71.8885 52.9455 71.9785 52.644L72.0937 52.219H69.7696L69.399 53.5129Z" fill="#FC621A"/>
<path d="M73.1657 55.6611C73.3185 55.0916 73.5363 54.3044 73.8189 53.3036L74.5203 50.946H79.2438L78.9067 52.1248C78.3351 52.1373 77.6296 52.1457 76.7837 52.1457H75.6928L75.3955 53.1758H75.4227C75.5086 53.046 75.5923 52.9434 75.6782 52.8702C75.764 52.7969 75.8499 52.7466 75.9336 52.7194C76.0195 52.6922 76.1179 52.6796 76.2309 52.6796H76.6225C77.3909 52.6796 78.0378 52.6838 78.5634 52.6922L78.2409 53.8102C77.7112 53.8186 77.0622 53.8228 76.2937 53.8228H75.2092L75.048 54.3881H76.166C77.0098 54.3881 77.7133 54.3944 78.2744 54.4091L77.9164 55.6632H73.1657V55.6611Z" fill="#FC621A"/>
<path d="M79.7484 50.946C81.482 50.9062 82.6608 50.8957 83.2869 50.9188C83.5214 50.9272 83.7265 50.9586 83.9024 51.013C84.0804 51.0674 84.2207 51.1365 84.3233 51.2224C84.4259 51.3082 84.5117 51.4024 84.5766 51.5092C84.6415 51.616 84.6771 51.7228 84.6813 51.8358C84.6855 51.9489 84.6792 52.0599 84.6604 52.1729C84.6478 52.2399 84.6206 52.3342 84.5787 52.4556H83.0754L83.088 52.4012C83.1236 52.2713 83.1194 52.1813 83.0754 52.1311C83.0314 52.0808 82.9456 52.0578 82.82 52.0578H80.8581L80.7702 52.286C80.7199 52.4242 80.745 52.5247 80.8435 52.5854C80.9419 52.6461 81.0926 52.6754 81.2957 52.6754H82.9937C83.2576 52.6754 83.4837 52.711 83.67 52.7822C83.8564 52.8534 83.9945 52.9434 84.0867 53.0481C84.1788 53.1528 84.2437 53.2784 84.2814 53.4229C84.3191 53.5674 84.3358 53.7014 84.3316 53.8228C84.3275 53.9463 84.3086 54.0678 84.2772 54.1892C84.2374 54.3651 84.1662 54.5326 84.0678 54.6917C83.9694 54.8508 83.8417 55.0058 83.6868 55.1565C83.5318 55.3073 83.335 55.4287 83.0942 55.5229C82.8535 55.6172 82.5875 55.6716 82.2965 55.6842C82.1311 55.6883 81.7836 55.6904 81.2559 55.6904C80.7283 55.6904 80.3682 55.6883 80.1734 55.6842C79.5495 55.6611 79.0973 55.5271 78.8188 55.2801C78.5403 55.033 78.4712 54.6708 78.6094 54.1955C78.6178 54.1557 78.6325 54.1118 78.6492 54.0678H80.1714L80.1169 54.2625C80.0897 54.3525 80.0918 54.4174 80.1232 54.4551C80.1546 54.4928 80.2216 54.5117 80.3263 54.5117H82.2944C82.5247 54.5117 82.6692 54.4049 82.732 54.1892C82.7592 54.0908 82.753 54.0154 82.7132 53.9631C82.6734 53.9108 82.6022 53.8856 82.5038 53.8856H80.6173C80.3347 53.8856 80.0939 53.8521 79.8929 53.7872C79.694 53.7223 79.5432 53.6386 79.4406 53.5381C79.3401 53.4376 79.2669 53.3161 79.2229 53.1779C79.1768 53.0398 79.1601 52.9016 79.1684 52.7676C79.1768 52.6336 79.202 52.4933 79.2417 52.3488C79.3443 51.9719 79.5118 51.5029 79.7401 50.9397L79.7484 50.946Z" fill="#FC621A"/>
<path d="M85.6507 50.946C87.3843 50.9062 88.5631 50.8957 89.1891 50.9188C89.4236 50.9272 89.6288 50.9586 89.8047 51.013C89.9827 51.0674 90.123 51.1365 90.2255 51.2224C90.3281 51.3082 90.414 51.4024 90.4789 51.5092C90.5438 51.616 90.5794 51.7228 90.5836 51.8358C90.5878 51.9489 90.5815 52.0599 90.5627 52.1729C90.5501 52.2399 90.5229 52.3342 90.481 52.4556H88.9777L88.9902 52.4012C89.0258 52.2713 89.0216 52.1813 88.9777 52.1311C88.9337 52.0808 88.8479 52.0578 88.7222 52.0578H86.7604L86.6725 52.286C86.6222 52.4242 86.6473 52.5247 86.7457 52.5854C86.8441 52.6461 86.9949 52.6754 87.198 52.6754H88.896C89.1598 52.6754 89.386 52.711 89.5723 52.7822C89.7586 52.8534 89.8968 52.9434 89.989 53.0481C90.0811 53.1528 90.146 53.2784 90.1837 53.4229C90.2214 53.5674 90.2381 53.7014 90.2339 53.8228C90.2297 53.9463 90.2109 54.0678 90.1795 54.1892C90.1397 54.3651 90.0685 54.5326 89.9701 54.6917C89.8717 54.8508 89.744 55.0058 89.5891 55.1565C89.4341 55.3073 89.2373 55.4287 88.9965 55.5229C88.7557 55.6172 88.4898 55.6716 88.1988 55.6842C88.0334 55.6883 87.6858 55.6904 87.1582 55.6904C86.6306 55.6904 86.2704 55.6883 86.0757 55.6842C85.4518 55.6611 84.9995 55.5271 84.7211 55.2801C84.4426 55.033 84.3735 54.6708 84.5117 54.1955C84.5201 54.1557 84.5347 54.1118 84.5515 54.0678H86.0736L86.0192 54.2625C85.992 54.3525 85.9941 54.4174 86.0255 54.4551C86.0569 54.4928 86.1239 54.5117 86.2286 54.5117H88.1967C88.427 54.5117 88.5715 54.4049 88.6343 54.1892C88.6615 54.0908 88.6552 54.0154 88.6155 53.9631C88.5757 53.9108 88.5045 53.8856 88.4061 53.8856H86.5196C86.2369 53.8856 85.9962 53.8521 85.7952 53.7872C85.5963 53.7223 85.4455 53.6386 85.3429 53.5381C85.2424 53.4376 85.1691 53.3161 85.1252 53.1779C85.0791 53.0398 85.0624 52.9016 85.0707 52.7676C85.0791 52.6336 85.1042 52.4933 85.144 52.3488C85.2466 51.9719 85.4141 51.5029 85.6423 50.9397L85.6507 50.946Z" fill="#FC621A"/>
<path d="M90.1858 55.6611C90.2883 55.2654 90.5061 54.4803 90.839 53.3036C91.0944 52.3907 91.331 51.6055 91.5467 50.946H93.0416L91.9236 54.8467H91.9571C92.0073 54.7692 92.0555 54.7043 92.1057 54.6477C92.156 54.5912 92.2041 54.5452 92.2544 54.5054C92.3046 54.4656 92.357 54.4363 92.4156 54.4153C92.4742 54.3923 92.5328 54.3777 92.5936 54.3672C92.6543 54.3588 92.7234 54.3546 92.7988 54.3546H94.1471C94.2874 54.3546 94.3963 54.3232 94.4738 54.2646C94.5533 54.2039 94.6099 54.1076 94.6455 53.9778L95.5144 50.946H96.9967C96.7224 52.0599 96.4293 53.1256 96.1132 54.139C95.9603 54.6373 95.6902 55.0163 95.3008 55.2738C94.9113 55.5313 94.3691 55.6611 93.6739 55.6611H90.1837H90.1858Z" fill="#FC621A"/>
<path d="M96.1425 55.6611C96.2953 55.0853 96.5131 54.3002 96.7957 53.3036L97.4972 50.946H102.861C102.803 51.2014 102.688 51.6327 102.518 52.2399C102.451 52.4682 102.353 52.6712 102.225 52.8429C102.097 53.0167 101.969 53.1423 101.842 53.224C101.714 53.3057 101.59 53.3538 101.475 53.3727C101.718 53.4585 101.884 53.5799 101.974 53.7391C102.064 53.8982 102.072 54.1097 102.001 54.3693L101.624 55.6632H100.102L100.372 54.7336C100.407 54.6038 100.403 54.5075 100.355 54.4468C100.307 54.386 100.204 54.3567 100.041 54.3567H98.0394L97.6626 55.6632H96.1467L96.1425 55.6611ZM98.2781 53.5129H98.3053C98.3828 53.4103 98.4582 53.3287 98.5335 53.268C98.611 53.2073 98.6906 53.1633 98.7764 53.1361C98.8623 53.1088 98.9565 53.0963 99.0591 53.0963H100.299C100.581 53.0963 100.768 52.9455 100.858 52.644L100.973 52.219H98.6487L98.2781 53.5129Z" fill="#FC621A"/>
<path d="M102.047 55.6611C102.2 55.0916 102.417 54.3044 102.7 53.3036L103.402 50.946H108.125L107.788 52.1248C107.218 52.1373 106.511 52.1457 105.665 52.1457H104.574L104.277 53.1758H104.304C104.39 53.046 104.474 52.9434 104.559 52.8702C104.645 52.7969 104.729 52.7466 104.815 52.7194C104.901 52.6922 104.999 52.6796 105.112 52.6796H105.504C106.272 52.6796 106.919 52.6838 107.445 52.6922L107.122 53.8102C106.592 53.8186 105.943 53.8228 105.175 53.8228H104.09L103.929 54.3881H105.047C105.891 54.3881 106.595 54.3944 107.156 54.4091L106.8 55.6632H102.049L102.047 55.6611Z" fill="#FC621A"/>
<path d="M110.125 55.6611C109.823 53.8417 109.582 52.2692 109.404 50.9439H111.063L111.421 53.7809L111.454 53.7537C111.513 53.5506 111.584 53.3894 111.67 53.268L113.253 50.9439H114.492L114.842 53.7809L114.875 53.7537C114.926 53.5737 114.999 53.4124 115.097 53.268L116.668 50.9439H118.508L115.085 55.6611H113.736C113.705 55.5041 113.678 55.3408 113.653 55.1733C113.627 55.0058 113.602 54.8278 113.575 54.6436C113.548 54.4593 113.523 54.2876 113.502 54.1285C113.479 53.9694 113.452 53.7705 113.42 53.536C113.389 53.2994 113.362 53.0921 113.338 52.912L113.305 52.9392C113.282 53.1109 113.215 53.2742 113.102 53.4313C112.639 54.1097 112.103 54.8529 111.492 55.6611H110.125Z" fill="#FC621A"/>
<path d="M115.859 55.6611L120.024 50.9439H121.345L122.806 55.6611H121.054L120.866 54.9597H118.317L117.731 55.6611H115.857H115.859ZM120.225 52.6168L119.046 53.9987L119.067 54.0112C119.165 53.9087 119.258 53.8375 119.343 53.8019C119.429 53.7663 119.521 53.7474 119.62 53.7474H120.631L120.309 52.6147H120.227L120.225 52.6168Z" fill="#FC621A"/>
<path d="M124.025 50.946C125.759 50.9062 126.937 50.8957 127.563 50.9188C127.798 50.9272 128.003 50.9586 128.179 51.013C128.357 51.0674 128.497 51.1365 128.6 51.2224C128.702 51.3082 128.788 51.4024 128.853 51.5092C128.918 51.616 128.954 51.7228 128.958 51.8358C128.962 51.9489 128.956 52.0599 128.937 52.1729C128.924 52.2399 128.897 52.3342 128.855 52.4556H127.352L127.365 52.4012C127.4 52.2713 127.396 52.1813 127.352 52.1311C127.308 52.0808 127.222 52.0578 127.097 52.0578H125.135L125.047 52.286C124.996 52.4242 125.022 52.5247 125.12 52.5854C125.218 52.6461 125.369 52.6754 125.572 52.6754H127.27C127.534 52.6754 127.76 52.711 127.947 52.7822C128.133 52.8534 128.271 52.9434 128.363 53.0481C128.455 53.1528 128.52 53.2784 128.558 53.4229C128.596 53.5674 128.612 53.7014 128.608 53.8228C128.604 53.9463 128.585 54.0678 128.554 54.1892C128.514 54.3651 128.443 54.5326 128.344 54.6917C128.246 54.8508 128.118 55.0058 127.963 55.1565C127.808 55.3073 127.612 55.4287 127.371 55.5229C127.13 55.6172 126.864 55.6716 126.573 55.6842C126.408 55.6883 126.06 55.6904 125.532 55.6904C125.005 55.6904 124.645 55.6883 124.45 55.6842C123.826 55.6611 123.374 55.5271 123.095 55.2801C122.817 55.033 122.748 54.6708 122.886 54.1955C122.894 54.1557 122.909 54.1118 122.926 54.0678H124.448L124.393 54.2625C124.366 54.3525 124.368 54.4174 124.4 54.4551C124.431 54.4928 124.498 54.5117 124.603 54.5117H126.571C126.801 54.5117 126.946 54.4049 127.009 54.1892C127.036 54.0908 127.03 54.0154 126.99 53.9631C126.95 53.9108 126.879 53.8856 126.78 53.8856H124.894C124.611 53.8856 124.37 53.8521 124.169 53.7872C123.971 53.7223 123.82 53.6386 123.717 53.5381C123.617 53.4376 123.543 53.3161 123.499 53.1779C123.453 53.0398 123.437 52.9016 123.445 52.7676C123.453 52.6336 123.479 52.4933 123.518 52.3488C123.621 51.9719 123.788 51.5029 124.017 50.9397L124.025 50.946Z" fill="#FC621A"/>
<path d="M128.554 55.6611C128.707 55.0916 128.924 54.3044 129.207 53.3036L129.908 50.946H131.424L130.79 53.1633H130.817C130.939 52.9434 131.066 52.7906 131.202 52.7089C131.336 52.6252 131.5 52.5854 131.688 52.5854H133.468L133.933 50.9481H135.455C135.329 51.415 135.109 52.2023 134.795 53.3057L134.1 55.6632H132.584L133.097 53.8647H130.591L130.072 55.6632H128.556L128.554 55.6611Z" fill="#FC621A"/>
<path d="M134.598 55.6611C134.747 55.0916 134.965 54.3044 135.252 53.3036L135.947 50.946H137.442C137.316 51.4129 137.096 52.2002 136.782 53.3036L136.087 55.6611H134.598Z" fill="#FC621A"/>
<path d="M136.585 55.6611C136.738 55.0916 136.956 54.3044 137.239 53.3036L137.94 50.946H139.255L141.236 53.871L141.269 53.8438C141.183 53.5464 141.185 53.2491 141.275 52.9476L141.841 50.946H143.363C143.237 51.4129 143.017 52.2002 142.703 53.3036L142.008 55.6611H140.695L138.706 52.7173L138.673 52.7445C138.767 53.0356 138.773 53.3266 138.694 53.6134L138.101 55.6611H136.585Z" fill="#FC621A"/>
<path d="M143.876 50.946C144.621 50.9272 145.427 50.9167 146.292 50.9125C147.157 50.9083 147.67 50.9104 147.833 50.9188C148.407 50.9418 148.798 51.0758 149.006 51.3187C149.213 51.5637 149.257 51.8903 149.14 52.2986L149.085 52.4661H147.529L147.542 52.4053C147.559 52.3656 147.567 52.3279 147.561 52.2944C147.557 52.2609 147.544 52.2316 147.523 52.2064C147.502 52.1813 147.469 52.1625 147.423 52.1499C147.377 52.1373 147.318 52.129 147.251 52.129H145.021L144.483 54.0092C144.443 54.1536 144.445 54.2604 144.489 54.3316C144.533 54.4028 144.634 54.4384 144.787 54.4384H146.47C146.635 54.4384 146.782 54.3986 146.908 54.3211C147.033 54.2416 147.117 54.1348 147.157 54.0008L147.257 53.6302H147.23C147.06 53.8542 146.832 53.9673 146.55 53.9673H146.374C146.081 53.9673 145.781 53.961 145.471 53.9463L145.787 52.8136C146.129 52.8053 146.483 52.8011 146.851 52.8011H149.014L148.637 54.1494C148.507 54.5996 148.262 54.9597 147.902 55.234C147.542 55.5083 147.065 55.6569 146.466 55.6779C146.265 55.6863 145.936 55.6904 145.482 55.6883C145.027 55.6863 144.711 55.6821 144.531 55.6779C143.924 55.6465 143.478 55.4894 143.189 55.2089C142.902 54.9283 142.812 54.5535 142.919 54.0866C142.99 53.7767 143.126 53.291 143.327 52.6315C143.526 51.9719 143.708 51.4066 143.87 50.9397L143.876 50.946Z" fill="#FC621A"/>
<defs>
<linearGradient id="paint0_linear_1_337" x1="42.6806" y1="68.8853" x2="16.2114" y2="9.45203" gradientUnits="userSpaceOnUse">
<stop stop-color="#0B5CAA"/>
<stop offset="0.99" stop-color="#38C4EA"/>
</linearGradient>
<linearGradient id="paint1_linear_1_337" x1="23.9897" y1="5.05515" x2="27.1178" y2="26.7108" gradientUnits="userSpaceOnUse">
<stop stop-color="#6CCBDE"/>
<stop offset="0.98" stop-color="#33C3EA" stop-opacity="0"/>
</linearGradient>
<linearGradient id="paint2_linear_1_337" x1="114.056" y1="26.9446" x2="153.608" y2="23.7207" gradientUnits="userSpaceOnUse">
<stop stop-color="#0B5CAA"/>
<stop offset="0.99" stop-color="#38C4EA"/>
</linearGradient>
<linearGradient id="paint3_linear_1_337" x1="90.3439" y1="28.1842" x2="132.947" y2="24.7116" gradientUnits="userSpaceOnUse">
<stop stop-color="#0B5CAA"/>
<stop offset="0.99" stop-color="#38C4EA"/>
</linearGradient>
<linearGradient id="paint4_linear_1_337" x1="122.231" y1="24.5312" x2="123.742" y2="24.5312" gradientUnits="userSpaceOnUse">
<stop stop-color="#A9CF37"/>
<stop offset="0.99" stop-color="#53AB47"/>
</linearGradient>
<linearGradient id="paint5_linear_1_337" x1="56.3047" y1="49.2417" x2="56.3047" y2="40.2448" gradientUnits="userSpaceOnUse">
<stop stop-color="#0B5CAA"/>
<stop offset="0.99" stop-color="#38C4EA"/>
</linearGradient>
<linearGradient id="paint6_linear_1_337" x1="81.794" y1="49.2417" x2="81.794" y2="40.2448" gradientUnits="userSpaceOnUse">
<stop stop-color="#0B5CAA"/>
<stop offset="0.99" stop-color="#38C4EA"/>
</linearGradient>
<linearGradient id="paint7_linear_1_337" x1="110.822" y1="49.2417" x2="110.822" y2="40.2448" gradientUnits="userSpaceOnUse">
<stop stop-color="#0B5CAA"/>
<stop offset="0.99" stop-color="#38C4EA"/>
</linearGradient>
<linearGradient id="paint8_linear_1_337" x1="97.4657" y1="49.2417" x2="97.4657" y2="40.2448" gradientUnits="userSpaceOnUse">
<stop stop-color="#0B5CAA"/>
<stop offset="0.99" stop-color="#38C4EA"/>
</linearGradient>
<linearGradient id="paint9_linear_1_337" x1="124.209" y1="49.2417" x2="124.209" y2="40.2448" gradientUnits="userSpaceOnUse">
<stop stop-color="#0B5CAA"/>
<stop offset="0.99" stop-color="#38C4EA"/>
</linearGradient>
<linearGradient id="paint10_linear_1_337" x1="141.15" y1="49.2417" x2="141.15" y2="40.2448" gradientUnits="userSpaceOnUse">
<stop stop-color="#0B5CAA"/>
<stop offset="0.99" stop-color="#38C4EA"/>
</linearGradient>
</defs>
</svg>
