<svg width="167" height="28" viewBox="0 0 167 28" fill="none" xmlns="http://www.w3.org/2000/svg">
<path d="M143.493 27.8142L145.843 17.5303L137.96 10.6133L148.374 9.69838L152.424 0L156.473 9.69838L166.887 10.6133L159.005 17.5303L161.355 27.8142L152.424 22.3612L143.493 27.8142Z" fill="#F4CA5E"/>
<path d="M108.998 27.8142L111.349 17.5303L103.466 10.6133L113.88 9.69838L117.93 0L121.979 9.69838L132.393 10.6133L124.51 17.5303L126.861 27.8142L117.93 22.3612L108.998 27.8142Z" fill="#F4CA5E"/>
<path d="M74.5124 27.8142L76.8627 17.5303L68.9802 10.6133L79.3938 9.69838L83.4436 0L87.4933 9.69838L97.907 10.6133L90.0244 17.5303L92.3747 27.8142L83.4436 22.3612L74.5124 27.8142Z" fill="#F4CA5E"/>
<path d="M40.0182 27.8142L42.3685 17.5303L34.486 10.6133L44.8996 9.69838L48.9494 0L52.9991 9.69838L63.4128 10.6133L55.5302 17.5303L57.8805 27.8142L48.9494 22.3612L40.0182 27.8142Z" fill="#F4CA5E"/>
<path d="M5.53225 27.8142L7.88255 17.5303L0 10.6133L10.4136 9.69838L14.4634 0L18.5131 9.69838L28.9268 10.6133L21.0442 17.5303L23.3945 27.8142L14.4634 22.3612L5.53225 27.8142Z" fill="#F4CA5E"/>
</svg>
