<svg width="28" height="28" viewBox="0 0 28 28" fill="none" xmlns="http://www.w3.org/2000/svg">
<path d="M0 13.9983C0 6.24183 6.2581 -0.00499047 14.0208 2.99159e-06C21.7635 0.00499645 28 6.27179 28 14.0449C28 21.7382 21.7203 28.0067 14.0191 28C6.24312 27.9933 0 21.7582 0 13.9983ZM12.0285 15.2151C11.7339 14.9338 11.5126 14.729 11.2979 14.5177C10.6471 13.8752 10.0229 13.206 9.3472 12.5918C8.53665 11.8561 7.39654 11.8994 6.65256 12.6434C5.90858 13.3858 5.84367 14.5493 6.59763 15.3366C7.93913 16.7364 9.31059 18.108 10.712 19.4479C11.476 20.1786 12.4646 20.1453 13.2785 19.4762C13.4283 19.353 13.5648 19.2148 13.7012 19.0767C16.1496 16.6282 18.5979 14.1798 21.0445 11.7313C21.201 11.5748 21.3608 11.4184 21.4972 11.2453C22.0498 10.5362 22.0615 9.54916 21.5339 8.85341C21.0229 8.17596 20.1158 7.87802 19.3136 8.21757C18.9208 8.38402 18.5596 8.67697 18.2533 8.98157C16.1895 11.0272 14.144 13.0912 12.0285 15.2151Z" fill="#F7FCFE"/>
</svg>
