<svg width="19" height="16" viewBox="0 0 19 16" fill="none" xmlns="http://www.w3.org/2000/svg">
<path d="M0 13.1553C1.86977 13.4228 3.77178 12.9627 5.30376 11.8722C4.56464 11.7181 3.87767 11.3805 3.30774 10.8914C2.73781 10.4024 2.30377 9.77802 2.04679 9.07739H3.09983C1.73096 8.17781 0.747696 7.08937 0.743748 5.24803C1.02279 5.34409 1.21631 5.41613 1.41375 5.47584C1.59738 5.53534 1.7891 5.56707 1.98236 5.56995C1.34656 4.93436 0.93723 4.11231 0.81605 3.2275C0.694869 2.34269 0.868393 1.443 1.31044 0.66383C2.2615 1.78573 3.41919 2.71993 4.72261 3.41708C6.04255 4.10379 7.49778 4.50036 8.98795 4.57952C9.00177 4.35754 9.02279 4.17321 9.02411 3.98888C8.99699 3.04559 9.3211 2.12518 9.93527 1.40156C10.5494 0.677935 11.4111 0.201228 12.3574 0.0615166C12.8615 -0.0343711 13.3809 -0.0179908 13.8778 0.10946C14.3747 0.236911 14.8365 0.472215 15.2294 0.798183C15.3981 0.958257 15.6122 1.06411 15.8432 1.10177C16.0742 1.13943 16.3113 1.10712 16.5233 1.00912C16.8912 0.863085 17.2471 0.691093 17.611 0.532077C17.7604 0.467173 17.9118 0.402267 18.1375 0.309454C18.1336 1.14412 17.5644 1.58093 17.1867 2.20726L18.6186 1.78473C18.5646 1.97945 18.5673 2.15209 18.4811 2.2488C18.095 2.69678 17.6821 3.12158 17.2445 3.52092C17.1132 3.62732 17.0079 3.76165 16.9367 3.91383C16.8655 4.06602 16.8301 4.23214 16.8332 4.39973C16.6252 8.85477 14.5568 12.1928 10.4594 14.1088C9.03613 14.7763 7.47873 15.1189 5.90274 15.111C4.32676 15.1032 2.77271 14.7451 1.35639 14.0633C1.03728 13.9266 0.725796 13.7732 0.423208 13.6038C0.29027 13.5305 0.209937 13.3844 0 13.1553Z" fill="white"/>
</svg>
