<svg width="36" height="36" viewBox="0 0 36 36" fill="none" xmlns="http://www.w3.org/2000/svg">
<g clip-path="url(#clip0_2028_132)">
<path d="M23.9971 8.22007C23.0985 8.14382 22.2762 8.02382 21.4526 8.01507C19.0155 7.98882 16.5784 8.03757 14.1413 7.99757C11.3393 7.95132 8.9035 9.86382 8.23611 12.3926C8.10489 12.8901 8.0224 13.4163 8.01865 13.9288C7.99741 16.5951 7.99116 19.2626 8.0199 21.9288C8.0274 22.6063 8.17987 23.2826 8.27736 24.0476C6.59765 23.9963 4.86045 24.0701 3.15825 23.8563C1.31481 23.6238 0.0212892 21.9338 0.0087914 20.0551C-0.00745578 17.4513 0.00379227 14.8463 0.00379227 12.2426C0.00379227 9.55507 0.0012927 6.86757 0.00504205 4.18007C0.00754162 1.72132 1.71225 0.00381836 4.15682 0.00256836C9.38466 -0.00118164 14.6125 -0.00118164 19.8416 0.00256836C22.2874 0.00381836 23.9921 1.72007 23.9971 4.17757C23.9996 5.55132 23.9971 6.92382 23.9971 8.22007Z" fill="white"/>
<path d="M12.0017 27.7774C12.9353 27.8537 13.7989 27.9749 14.6637 27.9849C17.0795 28.0124 19.4954 28.0012 21.9124 27.9924C24.687 27.9824 26.9366 26.3274 27.7414 23.6737C27.9014 23.1449 27.9751 22.5699 27.9801 22.0149C28.0039 19.3699 28.0089 16.7237 27.9801 14.0787C27.9726 13.4012 27.8202 12.7249 27.7289 12.0012C28.6725 12.0012 29.6673 11.9874 30.6634 12.0062C31.3896 12.0187 32.1282 11.9949 32.8368 12.1249C34.674 12.4624 35.975 14.0599 35.9913 15.9387C36.0087 18.0012 35.9962 20.0637 35.9962 22.1262C35.9962 25.3549 35.9988 28.5837 35.995 31.8124C35.9925 34.3024 34.289 35.9974 31.7882 35.9987C26.6016 36.0012 21.4163 36.0012 16.2297 35.9987C13.6926 35.9974 12.0067 34.3074 12.0042 31.7687C12.0004 30.4149 12.0017 29.0624 12.0017 27.7774Z" fill="white"/>
<path d="M18.0295 12.0014C19.2781 12.0014 20.5254 11.9989 21.7739 12.0014C23.1899 12.0039 23.9935 12.7926 23.9948 14.1914C23.9985 16.7301 23.9985 19.2676 23.9948 21.8064C23.9923 23.2039 23.1886 23.9964 21.7739 23.9976C19.2568 24.0001 16.7398 24.0001 14.2227 23.9976C12.8067 23.9964 12.0043 23.2051 12.0018 21.8076C11.9981 19.2689 11.9981 16.7314 12.0018 14.1926C12.0043 12.7926 12.8042 12.0051 14.2215 12.0026C15.4925 12.0001 16.761 12.0014 18.0295 12.0014Z" fill="white"/>
</g>
<defs>
<clipPath id="clip0_2028_132">
<rect width="36" height="36" fill="white"/>
</clipPath>
</defs>
</svg>
