<svg width="46" height="46" viewBox="0 0 46 46" fill="none" xmlns="http://www.w3.org/2000/svg">
<g clip-path="url(#clip0_2028_173)">
<path d="M46 20.1342C46.0025 21.2394 45.7125 22.0822 45.2973 22.8965C44.8003 23.8699 44.3262 24.8562 43.8305 25.8308C43.313 26.8469 43.2223 27.9107 43.3846 29.0288C43.5571 30.2194 43.75 31.4163 43.7973 32.6159C43.8752 34.635 43.0345 36.225 41.2509 37.1802C40.1649 37.7619 39.0111 38.2195 37.8689 38.6836C36.6973 39.158 35.7952 39.9142 35.1372 41.0026C34.6044 41.8829 34.0333 42.7386 33.4724 43.6021C32.4656 45.1533 31.0615 45.9974 29.2101 45.9961C28.8345 45.9961 28.4486 45.912 28.0832 45.8086C26.9384 45.4842 25.7949 45.1533 24.6642 44.7823C23.5513 44.4178 22.4666 44.41 21.3512 44.7823C20.223 45.1597 19.0692 45.4583 17.9334 45.8125C16.0475 46.3994 13.9113 45.5682 12.801 43.9757C12.2503 43.1846 11.6958 42.3896 11.232 41.5455C10.3581 39.9568 9.06762 38.9421 7.38492 38.3527C6.52505 38.0515 5.69201 37.6559 4.8743 37.2475C2.93863 36.2793 1.94588 34.2731 2.25763 32.117C2.42756 30.9471 2.5566 29.7708 2.67415 28.5945C2.77125 27.6341 2.61921 26.7124 2.17714 25.8425C1.60474 24.714 1.03362 23.5855 0.500831 22.4376C-0.436979 20.4211 -0.0472897 18.3154 1.53958 16.7604C2.38029 15.9369 3.24144 15.1342 4.10131 14.3302C4.89091 13.5921 5.40964 12.7105 5.63324 11.6376C5.86577 10.5246 6.13919 9.41943 6.39728 8.31164C6.94924 5.94481 8.75203 4.46861 11.1438 4.3833C12.3346 4.34064 13.5216 4.23981 14.7111 4.16743C15.6323 4.11184 16.4436 3.76412 17.177 3.21475C18.0663 2.54904 18.9542 1.88203 19.8294 1.19952C20.6024 0.595852 21.4534 0.173157 22.4231 0.0426002C23.6612 -0.124151 24.7894 0.210644 25.7949 0.934524C26.7991 1.65711 27.7778 2.41977 28.7642 3.16821C29.5487 3.76412 30.4162 4.12735 31.4051 4.18035C32.5308 4.24111 33.6564 4.33159 34.782 4.37942C37.3527 4.488 39.0814 5.94998 39.6359 8.48873C39.8825 9.62109 40.1508 10.7496 40.4217 11.8755C40.6491 12.8217 41.1423 13.6128 41.845 14.2746C42.7023 15.0812 43.5584 15.8878 44.408 16.7022C45.4314 17.6807 45.9732 18.8803 46 20.1342ZM23.0198 7.1405C14.3342 7.18833 7.34787 14.1673 7.33637 22.9831C7.32487 31.7408 14.232 38.8322 22.984 38.8478C31.6632 38.8646 38.6521 31.8468 38.6649 23.018C38.6789 14.2449 31.7501 7.20901 23.0198 7.1405Z" fill="white"/>
<path d="M37.1224 23.5416C36.8247 31.6569 30.0223 37.5953 22.4815 37.2954C14.4335 36.9748 8.55363 30.076 8.87433 22.4274C9.21419 14.316 16.0191 8.39315 23.5522 8.70856C31.599 9.04465 37.4546 15.9487 37.1224 23.5416ZM21.0684 24.1893C20.9458 24.069 20.7618 23.8945 20.5842 23.7149C19.6949 22.8178 18.8248 21.9 17.9126 21.0274C17.0476 20.2002 15.7993 20.2454 14.9867 21.0804C14.1997 21.8896 14.1447 23.159 14.9445 23.9941C16.5148 25.6331 18.1196 27.2373 19.7269 28.8389C20.289 29.3999 21.0084 29.5589 21.7379 29.3055C22.1404 29.1659 22.5237 28.8712 22.8303 28.561C25.272 26.0972 27.6931 23.6127 30.1207 21.1334C30.4504 20.7974 30.7953 20.4716 31.0969 20.1123C32.0219 19.0096 31.6833 17.4184 30.4056 16.7915C29.6186 16.405 28.6974 16.5678 28.0036 17.2594C27.0173 18.2418 26.0616 19.2552 25.0765 20.2376C23.7592 21.5536 22.4266 22.8527 21.0684 24.1893Z" fill="white"/>
</g>
<defs>
<clipPath id="clip0_2028_173">
<rect width="46" height="46" fill="white"/>
</clipPath>
</defs>
</svg>
