<svg width="45" height="42" viewBox="0 0 45 42" fill="none" xmlns="http://www.w3.org/2000/svg">
<g clip-path="url(#clip0_2028_159)">
<path d="M16.9308 10.7861C16.3181 11.2942 15.7065 11.8034 15.0926 12.3091C13.9456 13.2545 12.7928 14.1929 11.6504 15.1442C9.70676 16.765 9.55914 19.3254 11.313 21.1479C12.0992 21.9636 12.8572 22.8183 13.8624 23.3829C16.7914 25.0274 19.663 24.9224 22.476 23.0917C22.6237 22.9963 22.7678 22.8925 22.9002 22.7782C23.0841 22.6202 23.2446 22.5943 23.4766 22.7228C25.7167 23.97 28.1302 24.4757 30.6772 24.3979C30.7557 24.3955 30.8354 24.4108 30.9116 24.3955C31.6989 24.2387 32.1781 24.6584 32.6069 25.2501C34.0737 27.2777 33.243 30.5925 30.2601 31.2421C30.1113 31.2751 29.9614 31.3057 29.8267 31.334C29.4881 33.3745 28.3188 34.5369 26.3154 34.8646C25.9908 36.9004 24.8087 38.0768 22.7783 38.4093C22.6693 39.4608 22.2206 40.326 21.4427 41.0156C19.9981 42.297 17.9197 42.3418 16.4774 41.0545C15.1793 39.8957 13.9351 38.6733 12.6697 37.4768C10.7354 35.6485 8.7976 33.8237 6.875 31.9835C6.61139 31.7313 6.34192 31.6346 5.9881 31.6381C4.48493 31.6511 2.98177 31.6499 1.47861 31.6393C0.700665 31.6334 0.241397 31.3093 0.0586275 30.6609C0.0117635 30.4947 0.00356227 30.3132 0.00356227 30.1387C4.74713e-05 24.8387 -0.00112413 19.5353 0.00121907 14.2329C0.00121907 13.2569 0.51438 12.737 1.47158 12.7311C2.2917 12.7252 3.11182 12.7182 3.93077 12.7323C4.6513 12.7453 5.26522 12.5189 5.78893 12.0168C6.7965 11.0501 7.99739 10.5928 9.39394 10.6022C11.5801 10.6187 13.7664 10.6069 15.9526 10.6069C16.2595 10.6069 16.5676 10.6069 16.8746 10.6069C16.8945 10.667 16.9121 10.7271 16.9308 10.7861Z" fill="white"/>
<path d="M31.1644 35.0024C31.4233 34.5179 31.6424 34.0593 31.9084 33.6314C32.0021 33.4805 32.2025 33.3839 32.3712 33.2943C34.753 32.0306 35.9399 30.0207 35.9516 27.3366C35.9586 25.7699 35.3834 24.3848 34.3441 23.2119C33.9809 22.8017 33.5721 22.4339 33.203 22.0283C32.998 21.8044 32.766 21.736 32.4754 21.7395C31.578 21.7478 30.6794 21.7466 29.7808 21.7325C27.4048 21.6936 25.2678 20.9497 23.3756 19.4998C23.3288 19.4644 23.2807 19.4302 23.2303 19.4019C23.1975 19.3831 23.1589 19.3748 23.0815 19.3477C22.4454 19.824 21.7963 20.3238 21.1332 20.8047C19.5996 21.9211 17.9195 22.1828 16.1457 21.5427C15.5716 21.3352 15.0362 20.9733 14.5418 20.6032C14.0919 20.266 13.738 19.8016 13.3104 19.4314C12.5453 18.7689 12.5992 17.7481 13.3983 17.1127C15.2353 15.651 17.0326 14.1409 18.8439 12.6462C19.5386 12.0733 20.2287 11.498 21.0746 11.1514C21.8771 10.8225 22.7008 10.6103 23.5724 10.6103C25.9356 10.6115 28.2975 10.6045 30.6606 10.6127C31.9845 10.6174 33.21 10.9946 34.2809 11.7703C35.2416 12.4682 36.2796 12.7629 37.4583 12.7405C39.4301 12.7027 41.403 12.7688 43.3737 12.7157C44.5007 12.6851 45.0057 13.4584 45.0022 14.3283C44.9752 19.5741 44.9893 24.8186 44.9881 30.0643C44.9881 31.1536 44.5078 31.6333 43.4135 31.6463C41.8717 31.6652 40.3287 31.6581 38.788 31.7041C37.518 31.7418 36.398 32.2345 35.4138 33.0279C34.2715 33.9497 33.0144 34.6299 31.5792 34.9564C31.4503 34.9835 31.3179 34.9847 31.1644 35.0024Z" fill="white"/>
<path d="M18.385 3.44557C18.385 2.73946 18.3757 2.03217 18.3874 1.32606C18.4014 0.564542 18.9462 0.00932 19.6632 0.0010683C20.3838 -0.00718341 20.9649 0.542144 20.9731 1.28951C20.9883 2.72177 20.9848 4.15521 20.9743 5.58747C20.9696 6.1816 20.6029 6.66255 20.0756 6.82641C19.5262 6.99616 18.8888 6.78869 18.5947 6.28297C18.4647 6.06018 18.4038 5.76901 18.3944 5.50613C18.3675 4.82006 18.385 4.13164 18.385 3.44557Z" fill="white"/>
<path d="M12.1061 2.8125C12.2725 2.89973 12.6239 3.00111 12.8641 3.22391C13.5929 3.9029 14.2911 4.61727 14.9789 5.3387C15.5037 5.88921 15.4944 6.67548 14.9964 7.19298C14.5079 7.69987 13.6889 7.73523 13.1535 7.22363C12.4201 6.52105 11.7113 5.79137 11.0036 5.0605C10.59 4.63377 10.5385 4.11391 10.7693 3.58934C10.9837 3.10249 11.3938 2.85612 12.1061 2.8125Z" fill="white"/>
<path d="M28.7982 4.17879C28.6459 4.48292 28.551 4.8401 28.3296 5.08058C27.6559 5.81498 26.9471 6.51755 26.2277 7.20716C25.6841 7.7282 24.8804 7.71052 24.3836 7.21188C23.8611 6.6873 23.8576 5.88571 24.4059 5.31398C25.0831 4.60905 25.7767 3.91945 26.4738 3.23455C26.8862 2.82904 27.3747 2.69819 27.9207 2.93867C28.4327 3.165 28.7057 3.56227 28.7982 4.17879Z" fill="white"/>
</g>
<defs>
<clipPath id="clip0_2028_159">
<rect width="45" height="42" fill="white"/>
</clipPath>
</defs>
</svg>
