<svg width="49" height="35" viewBox="0 0 49 35" fill="none" xmlns="http://www.w3.org/2000/svg">
<g clip-path="url(#clip0_2028_185)">
<path d="M24.528 34.9987C20.8349 34.9987 17.1431 34.9987 13.45 34.9987C13.2486 34.9987 13.0471 35.0041 12.8457 34.992C12.1917 34.9531 11.7794 34.6337 11.7203 33.9815C11.6478 33.1831 11.6371 32.3739 11.6653 31.5714C11.7069 30.3905 11.7995 29.215 12.1366 28.065C13.1774 24.5143 15.3207 21.8626 18.5774 20.1168C20.851 18.8983 23.3032 18.4515 25.8454 18.7319C29.8286 19.1707 32.9764 21.087 35.2192 24.4096C36.4909 26.295 37.2309 28.3844 37.3061 30.6804C37.3356 31.5956 37.3611 32.5121 37.3719 33.4273C37.3746 33.6702 37.3437 33.9198 37.2886 34.1573C37.1812 34.6122 36.8132 34.9289 36.3432 34.9799C36.0988 35.0067 35.8517 34.9987 35.6059 34.9987C31.9128 34.9987 28.2211 34.9987 24.528 34.9987Z" fill="white"/>
<path d="M24.5143 16.3313C20.2411 16.393 16.3291 12.9389 16.3291 8.16036C16.3291 3.4945 20.1538 0.0242877 24.4741 0.000133124C28.6332 -0.0240215 32.6741 3.24087 32.6915 8.15365C32.709 12.8853 28.8735 16.3756 24.5143 16.3313Z" fill="white"/>
<path d="M8.20436 21.0132C5.14916 21.0897 2.33972 18.524 2.33838 15.204C2.33838 12.1364 4.69122 9.36266 8.1587 9.34119C11.3844 9.32106 14.0045 11.7942 14.0206 15.1598C14.0368 18.7588 11.0796 21.0656 8.20436 21.0132Z" fill="white"/>
<path d="M40.8123 21.016C37.9854 21.1005 34.9786 18.7522 35.0041 15.1585C35.0269 11.907 37.5301 9.32918 40.8808 9.35468C44.4289 9.38152 46.7025 12.2143 46.689 15.2283C46.6729 18.6837 43.7171 21.1475 40.8123 21.016Z" fill="white"/>
<path d="M11.3722 23.999C9.3578 27.4061 9.14696 31.1098 9.47464 34.9437C9.28394 34.9638 9.11339 34.996 8.94283 34.996C6.4369 34.9987 3.92962 35.0054 1.42369 34.9893C1.12421 34.988 0.803249 34.9115 0.533317 34.784C0.244584 34.6471 0.0565719 34.368 0.0552289 34.0258C0.053886 32.598 -0.136812 31.1501 0.20161 29.7478C0.946944 26.656 2.85392 24.6082 5.91046 23.6541C7.61735 23.1214 9.30408 23.2368 10.9774 23.8004C11.1009 23.842 11.2124 23.9171 11.3722 23.999Z" fill="white"/>
<path d="M37.6592 23.9265C38.2729 23.7508 38.8369 23.532 39.4225 23.4327C42.9437 22.8342 46.4259 24.525 48.0885 27.688C48.6673 28.791 49.0071 29.9598 48.995 31.2185C48.9869 32.068 49.0111 32.9174 48.995 33.7669C48.9789 34.5693 48.5867 34.9867 47.8038 34.9907C45.1407 35.0041 42.479 34.9947 39.8159 34.992C39.7528 34.992 39.6884 34.9652 39.6132 34.9477C39.593 34.886 39.55 34.8243 39.5568 34.7666C39.7663 33.0046 39.7327 31.2387 39.5286 29.4834C39.3446 27.9027 38.8732 26.3876 38.1749 24.9504C38.0177 24.6351 37.8579 24.3224 37.6592 23.9265Z" fill="white"/>
</g>
<defs>
<clipPath id="clip0_2028_185">
<rect width="49" height="35" fill="white"/>
</clipPath>
</defs>
</svg>
