<svg width="36" height="42" viewBox="0 0 36 42" fill="none" xmlns="http://www.w3.org/2000/svg">
<g clip-path="url(#clip0_2028_145)">
<path d="M35.9658 42.0002C34.468 42.0002 33.0031 42.0002 31.4704 42.0002C31.4704 41.7638 31.4704 41.5505 31.4704 41.3372C31.4704 37.2355 31.4704 33.1339 31.4704 29.0322C31.4704 28.832 31.4748 28.6307 31.4595 28.4316C31.395 27.5968 30.8117 27.0421 30.0022 27.0367C29.1992 27.0323 28.5864 27.5859 28.5045 28.401C28.4859 28.5815 28.4968 28.7653 28.4968 28.948C28.4968 33.0682 28.4968 37.1874 28.4968 41.3076C28.4968 41.5242 28.4968 41.7398 28.4968 41.9925C24.4865 41.9925 20.5133 41.9925 16.5456 41.9925C16.3894 41.6544 16.5838 41.4706 16.7903 41.277C17.6632 40.4619 18.382 39.5265 18.9304 38.4642C19.659 37.0517 20.0676 35.5518 20.0709 33.9577C20.0796 29.8922 20.0753 25.8277 20.0731 21.7622C20.0731 20.8716 19.7552 20.4198 18.9151 20.1353C18.0226 19.8333 17.1235 19.55 16.1709 19.2393C16.6428 18.8739 17.1541 18.7535 17.6424 18.5905C18.7895 18.2087 19.9747 18.0424 21.1797 18.0106C22.7987 17.968 24.4253 17.9078 26.0192 18.2491C30.1376 19.1299 33.0916 21.5073 34.8963 25.3091C35.6817 26.9655 35.9953 28.7336 35.9985 30.5574C36.0051 34.2028 36.0007 37.8493 35.9996 41.4947C35.9964 41.6544 35.9767 41.8142 35.9658 42.0002Z" fill="white"/>
<path d="M17.1205 22.715C17.1205 22.912 17.1205 23.11 17.1205 23.308C17.1205 26.6799 17.1139 30.0529 17.1227 33.4248C17.1303 36.3744 15.8412 38.5987 13.3778 40.161C11.9664 41.0559 10.4272 41.6445 8.78523 41.9574C8.66397 41.9804 8.53179 42.0034 8.4149 41.9793C6.3218 41.5493 4.37508 40.7835 2.70912 39.4061C0.949216 37.951 0.0315739 36.067 0.014095 33.787C-0.0143083 30.1776 0.00863281 26.5683 0.0108177 22.959C0.0108177 22.8868 0.0250193 22.8157 0.0359436 22.7129C0.157204 22.6571 0.280648 22.5838 0.413925 22.5411C3.01173 21.7216 5.61172 20.9098 8.20733 20.0849C8.46624 20.0029 8.69128 20.0072 8.94691 20.0882C11.5436 20.912 14.1425 21.726 16.7403 22.5455C16.8583 22.5838 16.9686 22.6472 17.1205 22.715ZM7.97246 30.996C7.78675 30.8221 7.65347 30.7028 7.52566 30.577C6.99473 30.0529 6.47364 29.5179 5.93289 29.0026C5.28071 28.3812 4.36525 28.3779 3.78408 28.9753C3.21164 29.5639 3.21274 30.4523 3.82887 31.0824C4.84701 32.1229 5.87936 33.1524 6.92591 34.1644C7.55297 34.7705 8.35044 34.7672 8.97641 34.1491C10.9319 32.217 12.8753 30.275 14.8111 28.3232C15.4207 27.7083 15.4076 26.7915 14.8286 26.215C14.2561 25.6449 13.345 25.6438 12.7136 26.2248C12.4591 26.4589 12.2231 26.7127 11.9795 26.9578C10.6598 28.2893 9.33909 29.6197 7.97246 30.996Z" fill="white"/>
<path d="M14.9956 7.5361C14.9967 3.31411 18.369 0.0734907 22.3488 0.0012825C26.5634 -0.0753019 29.9608 3.28785 30.0034 7.45623C30.0449 11.5699 26.6923 14.9473 22.6197 15.0217C18.7164 15.0939 15.0338 11.9769 14.9956 7.5361Z" fill="white"/>
</g>
<defs>
<clipPath id="clip0_2028_145">
<rect width="36" height="42" fill="white"/>
</clipPath>
</defs>
</svg>
